<svg width="168" height="110" viewBox="0 0 168 110" fill="none" xmlns="http://www.w3.org/2000/svg">
<path d="M53.972 0.702474C54.2916 0.551006 54.5266 0.43951 54.6595 0.350856C54.8757 0.221087 54.7892 -0.0384506 54.4865 0.00480571C52.065 0.3076 33.9028 7.01461 17.5569 25.9242C11.4595 32.9774 2.72439 45.2231 0.648711 63.3537C-1.42697 81.441 6.74606 90.6579 15.6109 92.7349C25.946 95.158 41.946 90.5712 54.8757 69.1953C67.9352 47.603 65.0379 19.3902 60.7569 6.32237C59.8054 3.33668 57.6865 3.94241 56.5622 5.50021C54.4865 8.35613 50.8542 16.4045 51.2001 22.3759C51.3715 25.5653 51.9501 27.8306 52.6782 30.6797C52.8688 31.4254 53.0695 32.2112 53.2758 33.0639C54.4865 38.1266 57.6433 55.4784 50.465 69.3251C43.892 81.9604 30.5298 87.6288 24.2596 86.1144C17.9027 84.5998 11.6757 76.7245 13.9244 55.3053C16.2162 33.6264 31.3514 17.8324 42.3784 8.70232C47.4812 4.46163 50.465 2.55778 52.8434 1.25967C53.1525 1.09763 53.4316 0.960727 53.6754 0.843664C53.781 0.792984 53.88 0.746016 53.972 0.702474Z" fill="#C3560C"/>
<path d="M92.1514 46.9106C96.9946 46.9106 100.887 47.8627 104.865 50.0695V44.3576C101.578 43.2327 98.2054 42.5836 94.2271 42.5836C78.1406 42.5836 66.0325 53.661 66.0325 68.3299C66.0325 82.5661 76.7568 92.4319 92.3243 92.4319C96.8649 92.4319 101.146 91.7828 105.427 90.6145V84.2104C100.973 86.9798 97.2108 88.1481 92.5406 88.1481C80.9082 88.1481 72.9082 79.6237 72.9082 67.4645C72.9082 55.0457 80.3459 46.9106 92.1514 46.9106Z" fill="#C3560C"/>
<path fill-rule="evenodd" clip-rule="evenodd" d="M11.2 106.235L10.3784 108.183C10.2053 108.529 10.1621 108.875 10.1621 109.178C10.1621 109.394 10.1621 109.524 10.2486 109.74H8.38916C8.64868 109.308 8.86482 108.832 9.12433 108.226L13.0594 99.0957L17.1243 108.356C17.427 109.091 17.6 109.351 17.8595 109.74H15.9567C15.964 109.697 15.9713 109.657 15.9782 109.62L15.9899 109.56L15.9984 109.518C16.0062 109.479 16.0133 109.442 16.0196 109.408C16.0339 109.329 16.0432 109.258 16.0432 109.178C16.0432 108.962 15.9567 108.615 15.7838 108.226L14.9189 106.192H11.2V106.235ZM13.1026 101.735L11.546 105.413H14.6594L13.1026 101.735Z" fill="#C3560C"/>
<path d="M7.61077 101.043C6.83237 100.567 6.09735 100.394 5.14589 100.394C2.81085 100.394 1.29728 102.125 1.29728 104.721C1.29728 107.274 2.8973 109.091 5.23249 109.091C6.14057 109.091 6.87574 108.832 7.7406 108.269L7.78382 109.611C6.91897 109.87 6.05412 110 5.18912 110C2.11891 110 0 107.923 0 104.937C0 101.865 2.37842 99.5284 5.57832 99.5284C6.35672 99.5284 7.04866 99.6582 7.69737 99.9179L7.61077 101.043Z" fill="#C3560C"/>
<path d="M21.319 109.74C21.0595 109.308 21.0163 109.091 21.0163 108.269H20.9731V100.437C22.3568 100.437 23.0055 100.567 23.6541 100.956L24.1297 99.6149H17.3838L16.8649 100.956C17.9027 100.567 18.5082 100.437 19.6325 100.437H19.8055V108.269C19.8055 109.048 19.7622 109.308 19.5027 109.74H21.319Z" fill="#C3560C"/>
<path d="M27.2001 108.269C27.2001 109.091 27.2433 109.308 27.5027 109.74H25.6865C25.946 109.308 25.9893 109.048 25.9893 108.269V101.129C25.9893 100.351 25.946 100.091 25.6865 99.6582H27.5027C27.2433 100.091 27.2001 100.351 27.2001 101.129V104.158H32V101.129C32 100.351 31.9568 100.091 31.6973 99.6582H33.5136C33.2541 100.091 33.2108 100.351 33.2108 101.129V108.269C33.2108 109.091 33.2541 109.308 33.5136 109.74H31.6973C31.9568 109.308 32 109.048 32 108.269V104.937H27.2001V108.269Z" fill="#C3560C"/>
<path fill-rule="evenodd" clip-rule="evenodd" d="M35.0702 104.851C35.0702 107.88 37.1027 109.957 40 109.957C43.1134 109.957 45.3189 107.707 45.3189 104.505C45.3189 101.476 43.3729 99.4419 40.4756 99.4419C37.3622 99.4419 35.0702 101.735 35.0702 104.851ZM36.3675 104.505C36.3675 102.038 37.8811 100.351 40.1729 100.351C42.4216 100.351 44.0216 102.255 44.0216 104.851C44.0216 107.274 42.4648 109.048 40.3459 109.048C38.0972 109.048 36.3675 107.058 36.3675 104.505Z" fill="#C3560C"/>
<path d="M46.573 109.74C46.8325 109.308 46.8757 109.048 46.8757 108.269V101.129C46.8757 100.351 46.8325 100.091 46.573 99.6582H48.3891C48.1298 100.091 48.0865 100.351 48.0865 101.129V108.918H49.2974C50.4216 108.918 51.1135 108.788 52.0648 108.269L51.4163 109.74H46.573Z" fill="#C3560C"/>
<path d="M53.8379 108.269C53.8379 109.048 53.7947 109.308 53.5352 109.74H55.3513C55.092 109.308 55.0487 109.091 55.0487 108.269V101.129C55.0487 100.351 55.092 100.134 55.3513 99.6582H53.5352C53.7947 100.091 53.8379 100.351 53.8379 101.129V108.269Z" fill="#C3560C"/>
<path d="M64.6918 101.043C63.9134 100.567 63.1784 100.394 62.2269 100.394C59.8919 100.394 58.3783 102.125 58.3783 104.721C58.3783 107.274 59.9783 109.091 62.3135 109.091C63.2216 109.091 63.9568 108.832 64.8216 108.269L64.8649 109.611C64 109.87 63.1352 110 62.2702 110C59.1999 110 57.081 107.923 57.081 104.937C57.081 101.865 59.4595 99.5284 62.6594 99.5284C63.4378 99.5284 64.1297 99.6582 64.7784 99.9179L64.6918 101.043Z" fill="#C3560C"/>
<path fill-rule="evenodd" clip-rule="evenodd" d="M72.3027 109.74C72.0434 109.264 72.0001 109.048 72.0001 108.269H72.0434V105.11L74.5947 108.009C75.6757 109.221 76.3676 109.784 76.7568 109.784C76.9299 109.784 77.146 109.74 77.4488 109.567C77.3851 109.472 77.298 109.4 77.2392 109.351C77.2181 109.333 77.2007 109.319 77.1892 109.308C76.4108 108.485 75.2866 107.187 73.9892 105.457L73.7298 105.11C75.3298 104.548 76.2379 103.553 76.2379 102.298C76.2379 101.519 75.8487 100.827 75.2 100.351C74.5082 99.8745 73.7298 99.6582 72.4325 99.6582H70.4866C70.7461 100.091 70.7893 100.351 70.7893 101.129V108.269C70.7893 109.048 70.7461 109.308 70.4866 109.74H72.3027ZM73.5135 100.61C74.4216 100.783 74.9839 101.476 74.9839 102.384C74.9839 103.682 73.7731 104.591 72.0434 104.591V100.48H72.173C72.865 100.48 73.0811 100.524 73.5135 100.61Z" fill="#C3560C"/>
<path d="M83.3297 104.115L82.6379 105.37C82.0756 104.981 81.6432 104.894 80.6487 104.894H79.7406V108.961H81.1675C82.3351 108.961 82.9405 108.875 83.9352 108.485L83.3297 109.74H78.227C78.4865 109.308 78.5298 109.048 78.5298 108.269V101.129C78.5298 100.351 78.4865 100.091 78.227 99.6582H83.8053L83.1135 100.87C82.6811 100.567 82.1189 100.48 81.0811 100.48H79.7406V104.115H83.3297Z" fill="#C3560C"/>
<path d="M85.6649 108.269C85.6649 109.048 85.6216 109.308 85.3621 109.74H90.2054L90.854 108.269C89.9027 108.788 89.2107 108.918 88.0865 108.918H86.8757V101.129C86.8757 100.351 86.9189 100.091 87.1783 99.6582H85.3621C85.6216 100.091 85.6649 100.351 85.6649 101.129V108.269Z" fill="#C3560C"/>
<path d="M92.2811 109.74C92.5406 109.308 92.5838 109.048 92.5838 108.269V101.129C92.5838 100.351 92.5406 100.091 92.2811 99.6582H94.0973C93.8379 100.134 93.7947 100.351 93.7947 101.129V108.269C93.7947 109.091 93.8379 109.308 94.0973 109.74H92.2811Z" fill="#C3560C"/>
<path d="M100.324 105.37L101.016 104.115H97.4271V100.48H98.7676C99.8054 100.48 100.368 100.567 100.8 100.87L101.492 99.6582H95.9136C96.1731 100.091 96.2163 100.351 96.2163 101.129V108.269C96.2163 109.048 96.1731 109.308 95.9136 109.74H101.059L101.665 108.485C100.67 108.875 100.065 108.961 98.8973 108.961H97.4704V104.894H98.3784C99.3298 104.894 99.7622 104.981 100.324 105.37Z" fill="#C3560C"/>
<path d="M104.649 108.269C104.649 109.091 104.692 109.308 104.951 109.74H103.135C103.395 109.308 103.438 109.048 103.438 108.269V101.129C103.438 100.351 103.395 100.091 103.135 99.6582H108.713L108.022 100.956C107.546 100.61 107.027 100.48 106.249 100.48H104.649V104.202H108.195L107.503 105.413C107.157 105.154 106.681 105.024 105.946 105.024H104.649V108.269Z" fill="#C3560C"/>
<path d="M116.67 100.351C117.362 100.351 117.924 100.567 118.573 101V99.7016C118.054 99.5717 117.578 99.4852 117.016 99.4852C115.114 99.4852 113.816 100.567 113.816 102.125C113.816 102.731 114.076 103.336 114.551 103.812C114.897 104.202 115.287 104.505 116.108 105.024C117.622 106.019 117.838 106.279 117.838 107.144C117.838 108.226 116.973 109.091 115.935 109.091C115.157 109.091 114.595 108.832 113.816 108.139V109.611C114.465 109.87 115.027 110 115.676 110C117.578 110 119.005 108.702 119.005 107.014C119.005 106.365 118.746 105.716 118.314 105.24C118.011 104.894 117.751 104.721 116.843 104.158C116.022 103.596 115.719 103.336 115.416 102.99C115.157 102.687 115.027 102.255 115.027 101.865C115.027 100.956 115.676 100.351 116.67 100.351Z" fill="#C3560C"/>
<path d="M125.622 104.115L124.93 105.37C124.368 104.981 123.935 104.894 122.984 104.894H122.076V108.961H123.503C124.67 108.961 125.276 108.875 126.27 108.485L125.665 109.74H120.562C120.822 109.308 120.865 109.048 120.865 108.269V101.129C120.865 100.351 120.822 100.091 120.562 99.6582H126.14L125.449 100.87C125.016 100.567 124.454 100.48 123.416 100.48H122.076V104.115H125.622Z" fill="#C3560C"/>
<path fill-rule="evenodd" clip-rule="evenodd" d="M129.384 109.74C129.124 109.264 129.081 109.048 129.081 108.269H129.124V105.11L131.676 108.009C132.757 109.221 133.449 109.784 133.838 109.784C134.011 109.784 134.227 109.74 134.53 109.567C134.466 109.472 134.379 109.4 134.32 109.351C134.299 109.333 134.282 109.319 134.27 109.308C133.492 108.485 132.368 107.187 131.07 105.457L130.811 105.11C132.411 104.548 133.319 103.553 133.319 102.298C133.319 101.519 132.93 100.827 132.281 100.351C131.589 99.8745 130.811 99.6582 129.514 99.6582H127.568C127.827 100.091 127.87 100.351 127.87 101.129V108.269C127.87 109.048 127.827 109.308 127.568 109.74H129.384ZM130.595 100.61C131.503 100.783 132.065 101.476 132.065 102.384C132.065 103.682 130.854 104.591 129.124 104.591V100.48H129.254C129.946 100.48 130.162 100.524 130.595 100.61Z" fill="#C3560C"/>
<path d="M137.643 109.74L134.659 101.605C134.314 100.74 134.054 100.177 133.708 99.6582H135.481V100.004C135.481 100.394 135.568 100.827 135.827 101.519L138.162 108.009L140.454 101.649C140.67 101.129 140.757 100.653 140.757 100.307C140.757 100.091 140.757 99.9611 140.67 99.7014H142.4C142.097 100.221 141.881 100.697 141.492 101.735L138.508 109.784H137.643V109.74Z" fill="#C3560C"/>
<path d="M143.784 108.269C143.784 109.048 143.741 109.308 143.481 109.74H145.297C145.038 109.308 144.995 109.091 144.995 108.269V101.129C144.995 100.351 145.038 100.134 145.297 99.6582H143.481C143.741 100.091 143.784 100.351 143.784 101.129V108.269Z" fill="#C3560C"/>
<path d="M154.249 101.043C153.47 100.567 152.735 100.394 151.784 100.394C149.449 100.394 147.935 102.125 147.935 104.721C147.935 107.274 149.535 109.091 151.87 109.091C152.778 109.091 153.513 108.832 154.422 108.269L154.465 109.611C153.6 109.87 152.735 110 151.87 110C148.8 110 146.681 107.923 146.681 104.937C146.681 101.865 149.06 99.5284 152.259 99.5284C153.038 99.5284 153.73 99.6582 154.378 99.9179L154.249 101.043Z" fill="#C3560C"/>
<path d="M160.13 105.37L160.822 104.115H157.233V100.48H158.573C159.611 100.48 160.173 100.567 160.606 100.87L161.297 99.6582H155.719C155.979 100.091 156.022 100.351 156.022 101.129V108.269C156.022 109.048 155.979 109.308 155.719 109.74H160.822L161.427 108.485C160.432 108.875 159.827 108.961 158.66 108.961H157.233V104.894H158.141C159.135 104.894 159.568 104.981 160.13 105.37Z" fill="#C3560C"/>
<path d="M167.308 101C166.659 100.567 166.097 100.351 165.405 100.351C164.411 100.351 163.762 100.956 163.762 101.865C163.762 102.255 163.892 102.687 164.151 102.99C164.454 103.336 164.757 103.596 165.578 104.158C166.487 104.721 166.746 104.894 167.049 105.24C167.481 105.716 167.74 106.365 167.74 107.014C167.74 108.702 166.314 110 164.411 110C163.762 110 163.2 109.87 162.551 109.611V108.139C163.33 108.832 163.892 109.091 164.67 109.091C165.708 109.091 166.573 108.226 166.573 107.144C166.573 106.279 166.357 106.019 164.843 105.024C164.022 104.505 163.633 104.202 163.287 103.812C162.811 103.336 162.551 102.731 162.551 102.125C162.551 100.567 163.849 99.4852 165.751 99.4852C166.314 99.4852 166.789 99.5717 167.308 99.7016V101Z" fill="#C3560C"/>
<path fill-rule="evenodd" clip-rule="evenodd" d="M134.141 81.8306C128.735 76.2485 124.886 69.3685 124.886 69.3685C133.146 66.6423 137.686 61.8826 137.686 55.9977C137.686 52.3197 135.827 49.1175 132.454 46.8241C128.908 44.5308 125.016 43.5789 118.443 43.5789H108.497C109.795 45.6559 110.011 46.8675 110.011 50.5454V84.4701C110.011 88.1914 109.795 89.3598 108.497 91.4368H117.708C116.497 89.2732 116.195 88.1914 116.195 84.4701V69.3685C116.195 69.3685 125.276 80.8785 127.308 83.0854C131.07 87.1096 138.292 93.9032 150.789 93.0811C160.259 92.4319 167.568 86.9798 167.568 78.9747C167.568 75.8158 166.27 72.7004 163.978 70.4934C162.465 68.979 161.081 68.0271 156.541 65.474C152.346 62.9643 150.703 61.7527 149.276 60.0218C148.065 58.6372 147.373 56.69 147.373 54.7861C147.373 50.4157 150.616 47.603 155.632 47.603C159.092 47.603 161.903 48.5118 165.276 50.5888V44.2711C162.724 43.6221 160.13 43.2759 157.405 43.2759C147.892 43.2759 141.232 48.4684 141.232 55.7813C141.232 58.6805 142.53 61.4499 144.908 63.7432C146.681 65.5605 148.584 67.0751 152.735 69.4983C159.87 73.6523 161.513 75.1668 161.557 79.5804C161.6 84.1671 157.319 88.7539 152 89.2732C145.254 89.9222 139.632 87.499 134.141 81.8306ZM116.151 66.9453V47.3867H116.757C120.216 47.3867 121.341 47.4732 123.589 47.9492C128.173 48.8579 131.113 52.1032 131.113 56.4304C131.07 62.6181 125.016 66.8588 116.151 66.9453Z" fill="#C3560C"/>
<path d="M33.8163 64.5219C28.0217 65.82 24.9947 68.9789 23.8704 70.3635C21.146 73.6089 19.4595 79.061 22.919 82.0035C26.2054 84.8161 30.5298 82.6093 33.2541 80.5323C35.5028 78.8015 38.7028 75.0802 41.2974 70.1472C43.4163 66.0797 44.9297 62.7046 45.3623 60.8873C45.5352 60.1084 45.6217 59.5025 45.492 59.113C45.2757 58.464 44.6704 58.4208 44.0649 59.0698C43.8978 59.2789 43.6902 59.5283 43.4814 59.7793L43.4595 59.8054C42.0758 61.5795 39.5677 63.2671 33.8163 64.5219Z" fill="#C3560C"/>
<path fill-rule="evenodd" clip-rule="evenodd" d="M166.141 91.6098V91.956H166.746V91.5665C166.746 91.4366 166.703 91.3069 166.659 91.1771C166.573 91.0472 166.487 90.9174 166.314 90.8309C166.368 90.8035 166.423 90.7761 166.478 90.7377C166.51 90.7154 166.541 90.6894 166.573 90.6577C166.604 90.5962 166.634 90.5347 166.65 90.4576C166.656 90.4263 166.659 90.3925 166.659 90.3549V90.1818C166.659 90.052 166.616 89.9222 166.486 89.8357C166.4 89.7491 166.184 89.7058 165.968 89.7058H165.103V91.9992H165.622V91.0039H165.795C165.924 91.0039 166.011 91.0472 166.054 91.1771C166.097 91.3069 166.141 91.4366 166.141 91.6098ZM166.184 90.3549V90.4414C166.184 90.528 166.184 90.6145 166.141 90.6577C166.106 90.692 166.072 90.6993 166.017 90.7007C166.002 90.7011 165.986 90.7011 165.968 90.7011H165.622V90.0953H165.968C166.054 90.0953 166.097 90.1385 166.141 90.1818C166.141 90.2048 166.153 90.2279 166.164 90.2574C166.174 90.2834 166.184 90.3144 166.184 90.3549Z" fill="#C3560C"/>
<path fill-rule="evenodd" clip-rule="evenodd" d="M167.395 92.4319C167.784 91.9992 168 91.5233 168 90.9174C168 90.3117 167.784 89.7923 167.395 89.4029C166.962 89.0136 166.443 88.7971 165.881 88.7971C165.276 88.7971 164.8 88.9702 164.368 89.4029C163.978 89.8357 163.762 90.3117 163.762 90.9174C163.762 91.5233 163.935 91.9992 164.368 92.4319C164.8 92.8214 165.276 93.0377 165.881 93.0377C166.487 93.0377 166.962 92.8647 167.395 92.4319ZM167.005 89.7491C167.308 90.0953 167.481 90.4847 167.481 90.9174C167.481 91.3501 167.308 91.7396 167.005 92.0858C166.703 92.4319 166.314 92.605 165.881 92.605C165.449 92.605 165.059 92.4319 164.757 92.0858C164.454 91.7396 164.281 91.3501 164.281 90.9174C164.281 90.4847 164.454 90.0953 164.757 89.7491C165.059 89.4029 165.449 89.2298 165.881 89.2298C166.314 89.2298 166.703 89.4029 167.005 89.7491Z" fill="#C3560C"/>
</svg>
