<svg width="129" height="84" viewBox="0 0 129 84" fill="none" xmlns="http://www.w3.org/2000/svg">
<path d="M41.4428 0.536435C41.6882 0.420768 41.8686 0.335626 41.9707 0.267926C42.1367 0.16883 42.0703 -0.0293623 41.8378 0.00366981C39.9785 0.234894 26.0325 5.35661 13.4812 19.7966C8.79928 25.1827 2.09194 34.534 0.498118 48.3792C-1.09571 62.1913 5.18001 69.2296 11.9869 70.8157C19.9228 72.6661 32.2085 69.1635 42.1367 52.8401C52.1645 36.3514 49.9398 14.8071 46.6526 4.82799C45.922 2.54801 44.295 3.01057 43.4317 4.20016C41.8378 6.38104 39.0487 12.5271 39.3144 17.087C39.4459 19.5226 39.8903 21.2525 40.4493 23.4281C40.5957 23.9976 40.7498 24.5976 40.9082 25.2488C41.8378 29.1149 44.2618 42.3653 38.7499 52.9392C33.7028 62.5879 23.4425 66.9165 18.6279 65.7601C13.7467 64.6035 8.96524 58.5896 10.6919 42.2332C12.4517 25.6783 24.0734 13.6175 32.5406 6.64541C36.4588 3.40706 38.7499 1.95322 40.5762 0.961927C40.8136 0.838193 41.0278 0.733646 41.2151 0.644252C41.2961 0.605551 41.3721 0.569685 41.4428 0.536435Z" fill="#375475"/>
<path d="M70.7591 35.8227C74.478 35.8227 77.4665 36.5497 80.5212 38.2349V33.8731C77.9977 33.0141 75.4077 32.5184 72.3529 32.5184C60.0008 32.5184 50.7035 40.9775 50.7035 52.1792C50.7035 63.0505 58.9383 70.5844 70.8919 70.5844C74.3784 70.5844 77.6656 70.0887 80.9529 69.1965V64.3061C77.5328 66.4209 74.644 67.3131 71.058 67.3131C62.1259 67.3131 55.9831 60.8035 55.9831 51.5183C55.9831 42.0349 61.6942 35.8227 70.7591 35.8227Z" fill="#375475"/>
<path fill-rule="evenodd" clip-rule="evenodd" d="M8.60001 81.1252L7.96912 82.6122C7.83623 82.8766 7.80304 83.1409 7.80304 83.3722C7.80304 83.5374 7.80304 83.6365 7.86943 83.8018H6.44168C6.64095 83.4714 6.80692 83.1078 7.00618 82.6452L10.0278 75.6731L13.149 82.7443C13.3815 83.3061 13.5143 83.5044 13.7135 83.8018H12.2525C12.2581 83.7687 12.2636 83.7382 12.269 83.7099L12.278 83.6639L12.2845 83.6317C12.2905 83.6018 12.296 83.5742 12.3008 83.5477C12.3117 83.4875 12.3189 83.4334 12.3189 83.3722C12.3189 83.207 12.2525 82.9426 12.1197 82.6452L11.4556 81.0922H8.60001V81.1252ZM10.0609 77.6887L8.86566 80.4974H11.2563L10.0609 77.6887Z" fill="#375475"/>
<path d="M5.84398 77.1601C5.24628 76.7965 4.68189 76.6644 3.95131 76.6644C2.15833 76.6644 0.996126 77.9861 0.996126 79.9688C0.996126 81.9183 2.22471 83.3061 4.01781 83.3061C4.71508 83.3061 5.27959 83.1078 5.94367 82.6783L5.97686 83.7026C5.31278 83.9009 4.6487 84 3.9845 84C1.62702 84 0 82.4139 0 80.1339C0 77.7879 1.82629 76.0035 4.28335 76.0035C4.88105 76.0035 5.41236 76.1026 5.91048 76.3009L5.84398 77.1601Z" fill="#375475"/>
<path d="M16.37 83.8017C16.1707 83.4713 16.1375 83.3061 16.1375 82.6783H16.1043V76.6974C17.1668 76.6974 17.6649 76.7965 18.1629 77.0939L18.5282 76.0696H13.3483L12.9499 77.0939C13.7467 76.7965 14.2116 76.6974 15.075 76.6974H15.2078V82.6783C15.2078 83.2731 15.1746 83.4713 14.9753 83.8017H16.37Z" fill="#375475"/>
<path d="M20.8858 82.6783C20.8858 83.3061 20.919 83.4713 21.1181 83.8017H19.7236C19.9228 83.4713 19.956 83.273 19.956 82.6783V77.2261C19.956 76.6313 19.9228 76.433 19.7236 76.1026H21.1181C20.919 76.433 20.8858 76.6313 20.8858 77.2261V79.5391H24.5714V77.2261C24.5714 76.6313 24.5382 76.433 24.339 76.1026H25.7336C25.5344 76.433 25.5012 76.6313 25.5012 77.2261V82.6783C25.5012 83.3061 25.5344 83.4713 25.7336 83.8017H24.339C24.5382 83.4713 24.5714 83.273 24.5714 82.6783V80.1339H20.8858V82.6783Z" fill="#375475"/>
<path fill-rule="evenodd" clip-rule="evenodd" d="M26.9289 80.0679C26.9289 82.3809 28.4896 83.967 30.7143 83.967C33.1049 83.967 34.7985 82.2488 34.7985 79.8035C34.7985 77.4905 33.3042 75.9374 31.0795 75.9374C28.6888 75.9374 26.9289 77.6888 26.9289 80.0679ZM27.925 79.8035C27.925 77.92 29.0872 76.6313 30.847 76.6313C32.5737 76.6313 33.8023 78.0853 33.8023 80.0679C33.8023 81.9183 32.6069 83.2731 30.9799 83.2731C29.2532 83.2731 27.925 81.7531 27.925 79.8035Z" fill="#375475"/>
<path d="M35.7614 83.8017C35.9607 83.4713 35.9939 83.273 35.9939 82.6783V77.2261C35.9939 76.6313 35.9607 76.433 35.7614 76.1026H37.1559C36.9568 76.433 36.9236 76.6313 36.9236 77.2261V83.1739H37.8533C38.7166 83.1739 39.2479 83.0748 39.9784 82.6783L39.4803 83.8017H35.7614Z" fill="#375475"/>
<path d="M41.3398 82.6783C41.3398 83.273 41.3066 83.4713 41.1074 83.8017H42.5019C42.3028 83.4713 42.2696 83.3061 42.2696 82.6783V77.2261C42.2696 76.6313 42.3028 76.4661 42.5019 76.1026H41.1074C41.3066 76.433 41.3398 76.6313 41.3398 77.2261V82.6783Z" fill="#375475"/>
<path d="M49.6741 77.1601C49.0764 76.7965 48.512 76.6644 47.7814 76.6644C45.9884 76.6644 44.8262 77.9861 44.8262 79.9688C44.8262 81.9183 46.0548 83.3061 47.8479 83.3061C48.5452 83.3061 49.1097 83.1078 49.7738 82.6783L49.807 83.7026C49.1429 83.9009 48.4788 84 47.8146 84C45.4571 84 43.8301 82.4139 43.8301 80.1339C43.8301 77.7879 45.6564 76.0035 48.1134 76.0035C48.7111 76.0035 49.2424 76.1026 49.7406 76.3009L49.6741 77.1601Z" fill="#375475"/>
<path fill-rule="evenodd" clip-rule="evenodd" d="M55.5182 83.8017C55.319 83.4382 55.2858 83.273 55.2858 82.6783H55.319V80.2661L57.2781 82.48C58.1081 83.4052 58.6394 83.8347 58.9383 83.8347C59.0712 83.8347 59.2371 83.8017 59.4696 83.6696C59.4207 83.5965 59.3538 83.5415 59.3087 83.5043C59.2924 83.491 59.2791 83.48 59.2703 83.4713C58.6726 82.8434 57.8094 81.8522 56.8131 80.5304L56.614 80.2661C57.8426 79.8365 58.5398 79.0765 58.5398 78.1182C58.5398 77.5235 58.241 76.9948 57.7429 76.6313C57.2117 76.2678 56.614 76.1026 55.6179 76.1026H54.1236C54.3229 76.433 54.3561 76.6313 54.3561 77.2261V82.6783C54.3561 83.273 54.3229 83.4713 54.1236 83.8017H55.5182ZM56.4479 76.8295C57.1452 76.9618 57.5769 77.4904 57.5769 78.1844C57.5769 79.1757 56.6472 79.8696 55.319 79.8696V76.7304H55.4186C55.9499 76.7304 56.1159 76.7635 56.4479 76.8295Z" fill="#375475"/>
<path d="M63.9853 79.5061L63.4541 80.4644C63.0224 80.167 62.6903 80.1009 61.9266 80.1009H61.2294V83.2069H62.3251C63.2216 83.2069 63.6864 83.1408 64.4502 82.8434L63.9853 83.8017H60.0672C60.2664 83.4713 60.2996 83.273 60.2996 82.6783V77.2261C60.2996 76.6313 60.2664 76.433 60.0672 76.1026H64.3505L63.8193 77.0278C63.4873 76.7965 63.0555 76.7304 62.2587 76.7304H61.2294V79.5061H63.9853Z" fill="#375475"/>
<path d="M65.7784 82.6783C65.7784 83.273 65.7452 83.4713 65.5459 83.8017H69.2649L69.7629 82.6783C69.0324 83.0748 68.5011 83.1739 67.6379 83.1739H66.7081V77.2261C66.7081 76.6313 66.7413 76.433 66.9405 76.1026H65.5459C65.7452 76.433 65.7784 76.6313 65.7784 77.2261V82.6783Z" fill="#375475"/>
<path d="M70.8587 83.8017C71.058 83.4713 71.0912 83.273 71.0912 82.6783V77.2261C71.0912 76.6313 71.058 76.433 70.8587 76.1026H72.2533C72.0541 76.4661 72.0209 76.6313 72.0209 77.2261V82.6783C72.0209 83.3061 72.0541 83.4713 72.2533 83.8017H70.8587Z" fill="#375475"/>
<path d="M77.0348 80.4644L77.566 79.5061H74.8101V76.7304H75.8394C76.6363 76.7304 77.068 76.7965 77.4001 77.0278L77.9313 76.1026H73.6479C73.8472 76.433 73.8804 76.6313 73.8804 77.2261V82.6783C73.8804 83.273 73.8472 83.4713 73.6479 83.8017H77.5992L78.0641 82.8434C77.3004 83.1408 76.8356 83.2069 75.939 83.2069H74.8433V80.1009H75.5406C76.2711 80.1009 76.6031 80.167 77.0348 80.4644Z" fill="#375475"/>
<path d="M80.3553 82.6783C80.3553 83.3061 80.3884 83.4713 80.5876 83.8017H79.193C79.3923 83.4713 79.4255 83.273 79.4255 82.6783V77.2261C79.4255 76.6313 79.3923 76.433 79.193 76.1026H83.4764L82.9452 77.0939C82.58 76.8295 82.1814 76.7304 81.5837 76.7304H80.3553V79.5722H83.078L82.5467 80.4974C82.2811 80.2991 81.9159 80.2 81.3514 80.2H80.3553V82.6783Z" fill="#375475"/>
<path d="M89.5861 76.6313C90.1173 76.6313 90.5491 76.7966 91.0471 77.127V76.1357C90.6487 76.0365 90.2834 75.9705 89.8518 75.9705C88.3908 75.9705 87.3946 76.7966 87.3946 77.9861C87.3946 78.4488 87.5939 78.9113 87.9591 79.2748C88.2248 79.5722 88.5236 79.8035 89.1544 80.2C90.3166 80.9601 90.4827 81.1583 90.4827 81.8191C90.4827 82.6452 89.8186 83.3061 89.0216 83.3061C88.4239 83.3061 87.9923 83.1078 87.3946 82.5792V83.7026C87.8927 83.9009 88.3244 84 88.8224 84C90.2834 84 91.3791 83.0087 91.3791 81.72C91.3791 81.2243 91.18 80.7287 90.8479 80.3653C90.6155 80.1009 90.4162 79.9687 89.7189 79.5391C89.088 79.1096 88.8557 78.9113 88.6232 78.6469C88.4239 78.4157 88.3244 78.0853 88.3244 77.7879C88.3244 77.0939 88.8224 76.6313 89.5861 76.6313Z" fill="#375475"/>
<path d="M96.4594 79.5061L95.9282 80.4644C95.4965 80.167 95.1645 80.1009 94.434 80.1009H93.7367V83.2069H94.8324C95.729 83.2069 96.1938 83.1408 96.9576 82.8434L96.4926 83.8017H92.5745C92.7738 83.4713 92.807 83.273 92.807 82.6783V77.2261C92.807 76.6313 92.7738 76.433 92.5745 76.1026H96.8579L96.3267 77.0278C95.9946 76.7965 95.5629 76.7304 94.766 76.7304H93.7367V79.5061H96.4594Z" fill="#375475"/>
<path fill-rule="evenodd" clip-rule="evenodd" d="M99.3482 83.8017C99.1491 83.4382 99.1159 83.273 99.1159 82.6783H99.1491V80.2661L101.108 82.48C101.938 83.4052 102.47 83.8347 102.768 83.8347C102.901 83.8347 103.067 83.8017 103.3 83.6696C103.251 83.5965 103.184 83.5415 103.139 83.5043C103.123 83.491 103.109 83.48 103.1 83.4713C102.503 82.8434 101.639 81.8522 100.643 80.5304L100.444 80.2661C101.673 79.8365 102.37 79.0765 102.37 78.1182C102.37 77.5235 102.071 76.9948 101.573 76.6313C101.042 76.2678 100.444 76.1026 99.4479 76.1026H97.9537C98.153 76.433 98.1862 76.6313 98.1862 77.2261V82.6783C98.1862 83.273 98.153 83.4713 97.9537 83.8017H99.3482ZM100.278 76.8295C100.975 76.9618 101.407 77.4904 101.407 78.1844C101.407 79.1757 100.477 79.8696 99.1491 79.8696V76.7304H99.2487C99.78 76.7304 99.9459 76.7635 100.278 76.8295Z" fill="#375475"/>
<path d="M105.69 83.8017L103.399 77.5896C103.134 76.9287 102.934 76.4991 102.669 76.1026H104.03V76.367C104.03 76.6644 104.097 76.9948 104.296 77.5235L106.089 82.48L107.849 77.6226C108.015 77.2261 108.081 76.8626 108.081 76.5982C108.081 76.433 108.081 76.3339 108.015 76.1356H109.343C109.11 76.5321 108.944 76.8957 108.646 77.6887L106.354 83.8347H105.69V83.8017Z" fill="#375475"/>
<path d="M110.405 82.6783C110.405 83.273 110.372 83.4713 110.173 83.8017H111.568C111.368 83.4713 111.335 83.3061 111.335 82.6783V77.2261C111.335 76.6313 111.368 76.4661 111.568 76.1026H110.173C110.372 76.433 110.405 76.6313 110.405 77.2261V82.6783Z" fill="#375475"/>
<path d="M118.441 77.1601C117.843 76.7965 117.279 76.6644 116.548 76.6644C114.755 76.6644 113.593 77.9861 113.593 79.9688C113.593 81.9183 114.822 83.3061 116.615 83.3061C117.312 83.3061 117.876 83.1078 118.574 82.6783L118.607 83.7026C117.943 83.9009 117.279 84 116.615 84C114.257 84 112.63 82.4139 112.63 80.1339C112.63 77.7879 114.456 76.0035 116.913 76.0035C117.511 76.0035 118.043 76.1026 118.541 76.3009L118.441 77.1601Z" fill="#375475"/>
<path d="M122.957 80.4644L123.488 79.5061H120.732V76.7304H121.761C122.558 76.7304 122.99 76.7965 123.322 77.0278L123.853 76.1026H119.57C119.769 76.433 119.802 76.6313 119.802 77.2261V82.6783C119.802 83.273 119.769 83.4713 119.57 83.8017H123.488L123.953 82.8434C123.189 83.1408 122.724 83.2069 121.828 83.2069H120.732V80.1009H121.429C122.193 80.1009 122.525 80.167 122.957 80.4644Z" fill="#375475"/>
<path d="M128.469 77.127C127.971 76.7966 127.539 76.6313 127.008 76.6313C126.244 76.6313 125.746 77.0939 125.746 77.7879C125.746 78.0853 125.846 78.4157 126.045 78.6469C126.277 78.9113 126.51 79.1096 127.141 79.5391C127.838 79.9687 128.037 80.1009 128.27 80.3653C128.602 80.7287 128.801 81.2243 128.801 81.72C128.801 83.0087 127.705 84 126.244 84C125.746 84 125.314 83.9009 124.816 83.7026V82.5792C125.414 83.1078 125.846 83.3061 126.443 83.3061C127.24 83.3061 127.904 82.6452 127.904 81.8191C127.904 81.1583 127.738 80.9601 126.576 80.2C125.945 79.8035 125.646 79.5722 125.381 79.2748C125.015 78.9113 124.816 78.4488 124.816 77.9861C124.816 76.7966 125.812 75.9705 127.273 75.9705C127.705 75.9705 128.07 76.0365 128.469 76.1357V77.127Z" fill="#375475"/>
<path fill-rule="evenodd" clip-rule="evenodd" d="M103.001 62.4888C98.8502 58.2261 95.8949 52.9723 95.8949 52.9723C102.237 50.8905 105.724 47.2558 105.724 42.7619C105.724 39.9532 104.296 37.5079 101.706 35.7566C98.983 34.0053 95.9946 33.2784 90.9475 33.2784H83.3104C84.3066 34.8645 84.4726 35.7897 84.4726 38.5983V64.5044C84.4726 67.3462 84.3066 68.2384 83.3104 69.8244H90.383C89.4533 68.1723 89.2208 67.3462 89.2208 64.5044V52.9723C89.2208 52.9723 96.1938 61.7618 97.7544 63.4471C100.643 66.52 106.188 71.7079 115.785 71.0801C123.056 70.5844 128.668 66.4209 128.668 60.3079C128.668 57.8957 127.672 55.5166 125.912 53.8314C124.75 52.6749 123.687 51.948 120.201 49.9983C116.98 48.0818 115.718 47.1566 114.622 45.8349C113.693 44.7775 113.161 43.2905 113.161 41.8367C113.161 38.4992 115.652 36.3514 119.503 36.3514C122.16 36.3514 124.318 37.0454 126.908 38.6315V33.807C124.949 33.3115 122.957 33.0471 120.865 33.0471C113.56 33.0471 108.446 37.0122 108.446 42.5966C108.446 44.8105 109.442 46.9254 111.269 48.6766C112.63 50.0644 114.091 51.2209 117.279 53.0714C122.758 56.2436 124.019 57.4001 124.053 60.7705C124.086 64.2731 120.798 67.7757 116.714 68.1723C111.534 68.6679 107.218 66.8174 103.001 62.4888ZM89.1876 51.1218V36.1862H89.6525C92.3089 36.1862 93.1722 36.2523 94.8988 36.6158C98.4185 37.3096 100.676 39.7879 100.676 43.0923C100.643 47.8174 95.9946 51.0558 89.1876 51.1218Z" fill="#375475"/>
<path d="M25.9661 49.2713C21.5167 50.2626 19.1924 52.6748 18.329 53.7321C16.2371 56.2104 14.9421 60.3739 17.5986 62.6208C20.122 64.7687 23.4425 63.0835 25.5344 61.4974C27.2611 60.1757 29.7182 57.334 31.7105 53.567C33.3375 50.4609 34.4996 47.8835 34.8318 46.4957C34.9645 45.9009 35.0309 45.4383 34.9313 45.1409C34.7653 44.6453 34.3004 44.6122 33.8355 45.1078C33.7072 45.2675 33.5479 45.458 33.3875 45.6496L33.3707 45.6696C32.3082 47.0243 30.3823 48.313 25.9661 49.2713Z" fill="#375475"/>
<path fill-rule="evenodd" clip-rule="evenodd" d="M127.572 69.9566V70.2209H128.037V69.9235C128.037 69.8243 128.004 69.7252 127.971 69.6261C127.904 69.5269 127.838 69.4278 127.705 69.3618C127.747 69.3408 127.789 69.3199 127.831 69.2906C127.856 69.2736 127.88 69.2537 127.904 69.2295C127.928 69.1825 127.951 69.1356 127.963 69.0767C127.968 69.0528 127.971 69.027 127.971 68.9983V68.8661C127.971 68.767 127.937 68.6679 127.838 68.6018C127.771 68.5356 127.605 68.5026 127.439 68.5026H126.775V70.254H127.174V69.4939H127.307C127.406 69.4939 127.473 69.5269 127.506 69.6261C127.539 69.7252 127.572 69.8243 127.572 69.9566ZM127.605 68.9983V69.0644C127.605 69.1304 127.605 69.1965 127.572 69.2295C127.546 69.2557 127.52 69.2613 127.477 69.2623C127.466 69.2627 127.453 69.2627 127.439 69.2627H127.174V68.8H127.439C127.506 68.8 127.539 68.833 127.572 68.8661C127.572 68.8836 127.582 68.9013 127.59 68.9239C127.598 68.9437 127.605 68.9674 127.605 68.9983Z" fill="#375475"/>
<path fill-rule="evenodd" clip-rule="evenodd" d="M128.535 70.5844C128.834 70.254 129 69.8905 129 69.4278C129 68.9653 128.834 68.5687 128.535 68.2713C128.203 67.974 127.805 67.8087 127.373 67.8087C126.908 67.8087 126.543 67.9408 126.211 68.2713C125.912 68.6018 125.746 68.9653 125.746 69.4278C125.746 69.8905 125.879 70.254 126.211 70.5844C126.543 70.8818 126.908 71.047 127.373 71.047C127.838 71.047 128.203 70.9148 128.535 70.5844ZM128.236 68.5356C128.469 68.8 128.602 69.0974 128.602 69.4278C128.602 69.7583 128.469 70.0557 128.236 70.32C128.004 70.5844 127.705 70.7165 127.373 70.7165C127.041 70.7165 126.742 70.5844 126.51 70.32C126.277 70.0557 126.144 69.7583 126.144 69.4278C126.144 69.0974 126.277 68.8 126.51 68.5356C126.742 68.2713 127.041 68.1392 127.373 68.1392C127.705 68.1392 128.004 68.2713 128.236 68.5356Z" fill="#375475"/>
</svg>
