<svg width="169" height="110" viewBox="0 0 169 110" fill="none" xmlns="http://www.w3.org/2000/svg">
<path d="M54.0068 0.702474C54.3266 0.551006 54.5617 0.43951 54.6948 0.350856C54.9111 0.221087 54.8246 -0.0384506 54.5216 0.00480571C52.0986 0.3076 33.9246 7.01461 17.5682 25.9242C11.4669 32.9774 2.72615 45.2231 0.64913 63.3537C-1.42789 81.441 6.75041 90.6579 15.6209 92.7349C25.9628 95.158 41.973 90.5712 54.9111 69.1953C67.979 47.603 65.0799 19.3902 60.7961 6.32237C59.844 3.33668 57.7237 3.94241 56.5986 5.50021C54.5216 8.35613 50.887 16.4045 51.2332 22.3759C51.4046 25.5653 51.9836 27.8306 52.7122 30.6797C52.9029 31.4254 53.1037 32.2112 53.3102 33.0639C54.5216 38.1266 57.6805 55.4784 50.4975 69.3251C43.9203 81.9604 30.5495 87.6288 24.2752 86.1144C17.9142 84.5998 11.6832 76.7245 13.9334 55.3053C16.2267 33.6264 31.3717 17.8324 42.4057 8.70232C47.5118 4.46163 50.4975 2.55778 52.8775 1.25967C53.1868 1.09763 53.4661 0.960727 53.71 0.843664C53.8157 0.792984 53.9148 0.746016 54.0068 0.702474Z" fill="black"/>
<path d="M92.2109 46.9106C97.0571 46.9106 100.952 47.8627 104.932 50.0695V44.3576C101.644 43.2327 98.2687 42.5836 94.2879 42.5836C78.191 42.5836 66.0751 53.661 66.0751 68.3299C66.0751 82.5661 76.8063 92.4319 92.3839 92.4319C96.9274 92.4319 101.211 91.7828 105.495 90.6145V84.2104C101.038 86.9798 97.2736 88.1481 92.6003 88.1481C80.9604 88.1481 72.9552 79.6237 72.9552 67.4645C72.9552 55.0457 80.3978 46.9106 92.2109 46.9106Z" fill="black"/>
<path fill-rule="evenodd" clip-rule="evenodd" d="M11.2072 106.235L10.3851 108.183C10.2119 108.529 10.1687 108.875 10.1687 109.178C10.1687 109.394 10.1687 109.524 10.2552 109.74H8.39458C8.65426 109.308 8.87054 108.832 9.13022 108.226L13.0678 99.0957L17.1353 108.356C17.4383 109.091 17.6113 109.351 17.871 109.74H15.967C15.9743 109.697 15.9816 109.657 15.9886 109.62L16.0003 109.56L16.0087 109.518C16.0165 109.479 16.0237 109.442 16.03 109.408C16.0442 109.329 16.0535 109.258 16.0535 109.178C16.0535 108.962 15.967 108.615 15.794 108.226L14.9286 106.192H11.2072V106.235ZM13.1111 101.735L11.5534 105.413H14.6689L13.1111 101.735Z" fill="black"/>
<path d="M7.61568 101.043C6.83678 100.567 6.10128 100.394 5.14921 100.394C2.81266 100.394 1.29812 102.125 1.29812 104.721C1.29812 107.274 2.89917 109.091 5.23587 109.091C6.14454 109.091 6.88018 108.832 7.74559 108.269L7.78885 109.611C6.92343 109.87 6.05802 110 5.19247 110C2.12027 110 0 107.923 0 104.937C0 101.865 2.37995 99.5284 5.58192 99.5284C6.36082 99.5284 7.0532 99.6582 7.70233 99.9179L7.61568 101.043Z" fill="black"/>
<path d="M21.3328 109.74C21.0731 109.308 21.0298 109.091 21.0298 108.269H20.9866V100.437C22.3712 100.437 23.0203 100.567 23.6693 100.956L24.1453 99.6149H17.395L16.8758 100.956C17.9142 100.567 18.5201 100.437 19.6452 100.437H19.8182V108.269C19.8182 109.048 19.775 109.308 19.5153 109.74H21.3328Z" fill="black"/>
<path d="M27.2176 108.269C27.2176 109.091 27.2609 109.308 27.5204 109.74H25.7031C25.9628 109.308 26.006 109.048 26.006 108.269V101.129C26.006 100.351 25.9628 100.091 25.7031 99.6582H27.5204C27.2609 100.091 27.2176 100.351 27.2176 101.129V104.158H32.0207V101.129C32.0207 100.351 31.9774 100.091 31.7177 99.6582H33.5352C33.2755 100.091 33.2323 100.351 33.2323 101.129V108.269C33.2323 109.091 33.2755 109.308 33.5352 109.74H31.7177C31.9774 109.308 32.0207 109.048 32.0207 108.269V104.937H27.2176V108.269Z" fill="black"/>
<path fill-rule="evenodd" clip-rule="evenodd" d="M35.0928 104.851C35.0928 107.88 37.1266 109.957 40.0258 109.957C43.1412 109.957 45.3482 107.707 45.3482 104.505C45.3482 101.476 43.4009 99.4419 40.5017 99.4419C37.3863 99.4419 35.0928 101.735 35.0928 104.851ZM36.391 104.505C36.391 102.038 37.9055 100.351 40.1988 100.351C42.449 100.351 44.05 102.255 44.05 104.851C44.05 107.274 42.4922 109.048 40.372 109.048C38.1218 109.048 36.391 107.058 36.391 104.505Z" fill="black"/>
<path d="M46.603 109.74C46.8627 109.308 46.906 109.048 46.906 108.269V101.129C46.906 100.351 46.8627 100.091 46.603 99.6582H48.4204C48.1608 100.091 48.1176 100.351 48.1176 101.129V108.918H49.3292C50.4541 108.918 51.1465 108.788 52.0984 108.269L51.4494 109.74H46.603Z" fill="black"/>
<path d="M53.8726 108.269C53.8726 109.048 53.8294 109.308 53.5697 109.74H55.387C55.1275 109.308 55.0843 109.091 55.0843 108.269V101.129C55.0843 100.351 55.1275 100.134 55.387 99.6582H53.5697C53.8294 100.091 53.8726 100.351 53.8726 101.129V108.269Z" fill="black"/>
<path d="M64.7335 101.043C63.9546 100.567 63.2191 100.394 62.2671 100.394C59.9305 100.394 58.416 102.125 58.416 104.721C58.416 107.274 60.017 109.091 62.3537 109.091C63.2624 109.091 63.998 108.832 64.8635 108.269L64.9067 109.611C64.0413 109.87 63.1759 110 62.3103 110C59.2381 110 57.1179 107.923 57.1179 104.937C57.1179 101.865 59.4978 99.5284 62.6998 99.5284C63.4787 99.5284 64.1711 99.6582 64.8202 99.9179L64.7335 101.043Z" fill="black"/>
<path fill-rule="evenodd" clip-rule="evenodd" d="M72.3494 109.74C72.0898 109.264 72.0466 109.048 72.0466 108.269H72.0898V105.11L74.6428 108.009C75.7245 109.221 76.4169 109.784 76.8063 109.784C76.9795 109.784 77.1958 109.74 77.4987 109.567C77.4351 109.472 77.3478 109.4 77.289 109.351C77.2679 109.333 77.2505 109.319 77.239 109.308C76.4601 108.485 75.3352 107.187 74.0369 105.457L73.7774 105.11C75.3784 104.548 76.2871 103.553 76.2871 102.298C76.2871 101.519 75.8977 100.827 75.2485 100.351C74.5563 99.8745 73.7774 99.6582 72.4793 99.6582H70.532C70.7917 100.091 70.835 100.351 70.835 101.129V108.269C70.835 109.048 70.7917 109.308 70.532 109.74H72.3494ZM73.561 100.61C74.4696 100.783 75.0323 101.476 75.0323 102.384C75.0323 103.682 73.8206 104.591 72.0898 104.591V100.48H72.2196C72.912 100.48 73.1283 100.524 73.561 100.61Z" fill="black"/>
<path d="M83.3834 104.115L82.6912 105.37C82.1286 104.981 81.6959 104.894 80.7007 104.894H79.792V108.961H81.2199C82.3883 108.961 82.994 108.875 83.9893 108.485L83.3834 109.74H78.2775C78.5372 109.308 78.5804 109.048 78.5804 108.269V101.129C78.5804 100.351 78.5372 100.091 78.2775 99.6582H83.8594L83.1672 100.87C82.7344 100.567 82.1718 100.48 81.1334 100.48H79.792V104.115H83.3834Z" fill="black"/>
<path d="M85.7201 108.269C85.7201 109.048 85.6769 109.308 85.4172 109.74H90.2636L90.9126 108.269C89.9607 108.788 89.2683 108.918 88.1433 108.918H86.9317V101.129C86.9317 100.351 86.975 100.091 87.2345 99.6582H85.4172C85.6769 100.091 85.7201 100.351 85.7201 101.129V108.269Z" fill="black"/>
<path d="M92.3406 109.74C92.6003 109.308 92.6436 109.048 92.6436 108.269V101.129C92.6436 100.351 92.6003 100.091 92.3406 99.6582H94.158C93.8984 100.134 93.8552 100.351 93.8552 101.129V108.269C93.8552 109.091 93.8984 109.308 94.158 109.74H92.3406Z" fill="black"/>
<path d="M100.389 105.37L101.081 104.115H97.49V100.48H98.8314C99.8698 100.48 100.432 100.567 100.865 100.87L101.557 99.6582H95.9754C96.2351 100.091 96.2784 100.351 96.2784 101.129V108.269C96.2784 109.048 96.2351 109.308 95.9754 109.74H101.125L101.731 108.485C100.735 108.875 100.129 108.961 98.9611 108.961H97.5332V104.894H98.4419C99.3938 104.894 99.8265 104.981 100.389 105.37Z" fill="black"/>
<path d="M104.716 108.269C104.716 109.091 104.759 109.308 105.019 109.74H103.202C103.461 109.308 103.505 109.048 103.505 108.269V101.129C103.505 100.351 103.461 100.091 103.202 99.6582H108.784L108.091 100.956C107.615 100.61 107.096 100.48 106.317 100.48H104.716V104.202H108.264L107.572 105.413C107.226 105.154 106.75 105.024 106.014 105.024H104.716V108.269Z" fill="black"/>
<path d="M116.746 100.351C117.438 100.351 118 100.567 118.649 101V99.7016C118.13 99.5717 117.654 99.4852 117.092 99.4852C115.188 99.4852 113.89 100.567 113.89 102.125C113.89 102.731 114.149 103.336 114.625 103.812C114.972 104.202 115.361 104.505 116.183 105.024C117.698 106.019 117.914 106.279 117.914 107.144C117.914 108.226 117.049 109.091 116.01 109.091C115.231 109.091 114.669 108.832 113.89 108.139V109.611C114.539 109.87 115.101 110 115.75 110C117.654 110 119.082 108.702 119.082 107.014C119.082 106.365 118.823 105.716 118.39 105.24C118.087 104.894 117.827 104.721 116.919 104.158C116.096 103.596 115.794 103.336 115.491 102.99C115.231 102.687 115.101 102.255 115.101 101.865C115.101 100.956 115.75 100.351 116.746 100.351Z" fill="black"/>
<path d="M125.703 104.115L125.01 105.37C124.448 104.981 124.015 104.894 123.063 104.894H122.154V108.961H123.582C124.751 108.961 125.356 108.875 126.352 108.485L125.746 109.74H120.64C120.9 109.308 120.943 109.048 120.943 108.269V101.129C120.943 100.351 120.9 100.091 120.64 99.6582H126.222L125.53 100.87C125.097 100.567 124.534 100.48 123.496 100.48H122.154V104.115H125.703Z" fill="black"/>
<path fill-rule="evenodd" clip-rule="evenodd" d="M129.467 109.74C129.208 109.264 129.164 109.048 129.164 108.269H129.208V105.11L131.761 108.009C132.842 109.221 133.535 109.784 133.924 109.784C134.097 109.784 134.314 109.74 134.617 109.567C134.553 109.472 134.466 109.4 134.407 109.351C134.386 109.333 134.368 109.319 134.357 109.308C133.578 108.485 132.453 107.187 131.155 105.457L130.895 105.11C132.496 104.548 133.405 103.553 133.405 102.298C133.405 101.519 133.016 100.827 132.366 100.351C131.674 99.8745 130.895 99.6582 129.597 99.6582H127.65C127.91 100.091 127.953 100.351 127.953 101.129V108.269C127.953 109.048 127.91 109.308 127.65 109.74H129.467ZM130.679 100.61C131.588 100.783 132.15 101.476 132.15 102.384C132.15 103.682 130.939 104.591 129.208 104.591V100.48H129.337C130.03 100.48 130.246 100.524 130.679 100.61Z" fill="black"/>
<path d="M137.732 109.74L134.746 101.605C134.4 100.74 134.141 100.177 133.794 99.6582H135.569V100.004C135.569 100.394 135.655 100.827 135.915 101.519L138.251 108.009L140.545 101.649C140.761 101.129 140.848 100.653 140.848 100.307C140.848 100.091 140.848 99.9611 140.761 99.7014H142.492C142.189 100.221 141.973 100.697 141.583 101.735L138.597 109.784H137.732V109.74Z" fill="black"/>
<path d="M143.877 108.269C143.877 109.048 143.833 109.308 143.574 109.74H145.391C145.131 109.308 145.088 109.091 145.088 108.269V101.129C145.088 100.351 145.131 100.134 145.391 99.6582H143.574C143.833 100.091 143.877 100.351 143.877 101.129V108.269Z" fill="black"/>
<path d="M154.348 101.043C153.569 100.567 152.834 100.394 151.882 100.394C149.545 100.394 148.031 102.125 148.031 104.721C148.031 107.274 149.632 109.091 151.968 109.091C152.877 109.091 153.613 108.832 154.521 108.269L154.565 109.611C153.699 109.87 152.834 110 151.968 110C148.896 110 146.776 107.923 146.776 104.937C146.776 101.865 149.156 99.5284 152.358 99.5284C153.137 99.5284 153.829 99.6582 154.478 99.9179L154.348 101.043Z" fill="black"/>
<path d="M160.233 105.37L160.925 104.115H157.334V100.48H158.675C159.714 100.48 160.276 100.567 160.709 100.87L161.401 99.6582H155.819C156.079 100.091 156.122 100.351 156.122 101.129V108.269C156.122 109.048 156.079 109.308 155.819 109.74H160.925L161.531 108.485C160.536 108.875 159.93 108.961 158.762 108.961H157.334V104.894H158.243C159.238 104.894 159.671 104.981 160.233 105.37Z" fill="black"/>
<path d="M167.416 101C166.767 100.567 166.205 100.351 165.512 100.351C164.517 100.351 163.868 100.956 163.868 101.865C163.868 102.255 163.998 102.687 164.257 102.99C164.56 103.336 164.863 103.596 165.685 104.158C166.594 104.721 166.854 104.894 167.156 105.24C167.589 105.716 167.849 106.365 167.849 107.014C167.849 108.702 166.421 110 164.517 110C163.868 110 163.305 109.87 162.656 109.611V108.139C163.435 108.832 163.998 109.091 164.777 109.091C165.815 109.091 166.68 108.226 166.68 107.144C166.68 106.279 166.464 106.019 164.95 105.024C164.128 104.505 163.738 104.202 163.392 103.812C162.916 103.336 162.656 102.731 162.656 102.125C162.656 100.567 163.954 99.4852 165.858 99.4852C166.421 99.4852 166.897 99.5717 167.416 99.7016V101Z" fill="black"/>
<path fill-rule="evenodd" clip-rule="evenodd" d="M134.227 81.8306C128.818 76.2485 124.967 69.3685 124.967 69.3685C133.232 66.6423 137.775 61.8826 137.775 55.9977C137.775 52.3197 135.915 49.1175 132.54 46.8241C128.991 44.5308 125.097 43.5789 118.52 43.5789H108.567C109.865 45.6559 110.082 46.8675 110.082 50.5454V84.4701C110.082 88.1914 109.865 89.3598 108.567 91.4368H117.784C116.572 89.2732 116.269 88.1914 116.269 84.4701V69.3685C116.269 69.3685 125.356 80.8785 127.39 83.0854C131.155 87.1096 138.381 93.9032 150.887 93.0811C160.363 92.4319 167.676 86.9798 167.676 78.9747C167.676 75.8158 166.378 72.7004 164.084 70.4934C162.57 68.979 161.185 68.0271 156.642 65.474C152.444 62.9643 150.8 61.7527 149.372 60.0218C148.16 58.6372 147.468 56.69 147.468 54.7861C147.468 50.4157 150.713 47.603 155.733 47.603C159.195 47.603 162.007 48.5118 165.382 50.5888V44.2711C162.829 43.6221 160.233 43.2759 157.507 43.2759C147.987 43.2759 141.324 48.4684 141.324 55.7813C141.324 58.6805 142.622 61.4499 145.002 63.7432C146.776 65.5605 148.68 67.0751 152.834 69.4983C159.973 73.6523 161.618 75.1668 161.661 79.5804C161.704 84.1671 157.42 88.7539 152.098 89.2732C145.348 89.9222 139.723 87.499 134.227 81.8306ZM116.226 66.9453V47.3867H116.832C120.294 47.3867 121.419 47.4732 123.669 47.9492C128.256 48.8579 131.198 52.1032 131.198 56.4304C131.155 62.6181 125.097 66.8588 116.226 66.9453Z" fill="black"/>
<path d="M33.8381 64.5219C28.0398 65.82 25.0108 68.9789 23.8858 70.3635C21.1596 73.6089 19.472 79.061 22.9338 82.0035C26.2223 84.8161 30.5495 82.6093 33.2755 80.5323C35.5257 78.8015 38.7278 75.0802 41.324 70.1472C43.4443 66.0797 44.9587 62.7046 45.3916 60.8873C45.5646 60.1084 45.6511 59.5025 45.5213 59.113C45.3049 58.464 44.6992 58.4208 44.0933 59.0698C43.9261 59.2789 43.7184 59.5283 43.5094 59.7793L43.4876 59.8054C42.1029 61.5795 39.5932 63.2671 33.8381 64.5219Z" fill="black"/>
<path fill-rule="evenodd" clip-rule="evenodd" d="M166.248 91.6098V91.956H166.854V91.5665C166.854 91.4366 166.81 91.3069 166.767 91.1771C166.68 91.0472 166.594 90.9174 166.421 90.8309C166.476 90.8035 166.531 90.7761 166.585 90.7377C166.617 90.7154 166.649 90.6894 166.68 90.6577C166.711 90.5962 166.742 90.5347 166.757 90.4576C166.763 90.4263 166.767 90.3925 166.767 90.3549V90.1818C166.767 90.052 166.724 89.9222 166.594 89.8357C166.507 89.7491 166.291 89.7058 166.075 89.7058H165.209V91.9992H165.728V91.0039H165.902C166.031 91.0039 166.118 91.0472 166.161 91.1771C166.205 91.3069 166.248 91.4366 166.248 91.6098ZM166.291 90.3549V90.4414C166.291 90.528 166.291 90.6145 166.248 90.6577C166.214 90.692 166.179 90.6993 166.124 90.7007C166.109 90.7011 166.093 90.7011 166.075 90.7011H165.728V90.0953H166.075C166.161 90.0953 166.205 90.1385 166.248 90.1818C166.248 90.2048 166.26 90.2279 166.271 90.2574C166.281 90.2834 166.291 90.3144 166.291 90.3549Z" fill="black"/>
<path fill-rule="evenodd" clip-rule="evenodd" d="M167.503 92.4319C167.892 91.9992 168.108 91.5233 168.108 90.9174C168.108 90.3117 167.892 89.7923 167.503 89.4029C167.07 89.0136 166.551 88.7971 165.988 88.7971C165.382 88.7971 164.906 88.9702 164.474 89.4029C164.084 89.8357 163.868 90.3117 163.868 90.9174C163.868 91.5233 164.041 91.9992 164.474 92.4319C164.906 92.8214 165.382 93.0377 165.988 93.0377C166.594 93.0377 167.07 92.8647 167.503 92.4319ZM167.113 89.7491C167.416 90.0953 167.589 90.4847 167.589 90.9174C167.589 91.3501 167.416 91.7396 167.113 92.0858C166.81 92.4319 166.421 92.605 165.988 92.605C165.555 92.605 165.166 92.4319 164.863 92.0858C164.56 91.7396 164.387 91.3501 164.387 90.9174C164.387 90.4847 164.56 90.0953 164.863 89.7491C165.166 89.4029 165.555 89.2298 165.988 89.2298C166.421 89.2298 166.81 89.4029 167.113 89.7491Z" fill="black"/>
</svg>
