<svg width="231" height="78" viewBox="0 0 231 78" fill="none" xmlns="http://www.w3.org/2000/svg">
<path d="M77.5749 25.9993H51.7159V0H25.859V25.9993H0V51.9986H25.859V78H51.7159V51.9986H77.5749V25.9993Z" fill="black"/>
<path d="M183.14 22.4035H177.855V35.7635H183.14V22.4035Z" fill="black"/>
<path d="M183.14 17.5562H177.855V21.0882H183.14V17.5562Z" fill="black"/>
<path fill-rule="evenodd" clip-rule="evenodd" d="M124.519 35.7465H118.765L117.921 33.0268H111.367L110.51 35.7465H104.762C104.941 35.2749 111.581 17.796 111.664 17.5707H117.778C117.861 17.7986 124.341 35.2801 124.519 35.7465ZM114.697 22.1271L112.54 29.1438H116.8L114.697 22.1271Z" fill="black"/>
<path fill-rule="evenodd" clip-rule="evenodd" d="M117.331 52.4624L117.438 52.6405C117.438 52.6405 121.477 59.3717 121.779 59.8747H115.859L112.244 53.2956H110.274V59.8747H104.904V41.6936H113.727C115.158 41.6936 116.943 41.7539 118.11 42.2491C120.33 43.1976 121.12 45.6029 121.12 47.437C121.12 48.8702 120.674 50.1305 119.791 51.0318C119.138 51.7346 118.458 52.0087 117.668 52.3267L117.331 52.4624ZM110.274 49.7427H112.853C113.674 49.7429 115.773 49.7434 115.773 47.526C115.773 45.333 113.693 45.3199 112.805 45.3199H110.274V49.7427Z" fill="black"/>
<path fill-rule="evenodd" clip-rule="evenodd" d="M143.385 60.2093C139.872 60.2093 137.605 57.2381 137.605 52.907C137.605 48.3742 140.419 46.1681 143.207 46.1681C145.076 46.1681 145.881 46.9017 146.412 47.389L146.764 47.7034V41.7191H151.676V59.8766H146.918V58.6006L146.605 58.9595C146.277 59.3368 146.035 59.6119 145.318 59.8871C144.75 60.1045 144.117 60.2093 143.385 60.2093ZM146.676 51.4371C146.303 50.2083 145.357 49.7707 144.667 49.7707C144.299 49.7707 143.061 49.9017 142.598 51.5734V51.5812C142.491 52.0712 142.441 52.5848 142.441 53.19C142.441 54.4634 142.699 55.3621 143.231 55.9359C143.596 56.3315 144.13 56.5595 144.69 56.5595C145.206 56.5595 145.738 56.3237 146.147 55.9149C146.889 55.142 146.889 53.8581 146.889 53.1638C146.889 52.5114 146.853 51.9716 146.676 51.4371Z" fill="black"/>
<path fill-rule="evenodd" clip-rule="evenodd" d="M131.938 55.0107C131.372 56.2448 130.491 56.8448 129.376 56.8448C128.899 56.8448 128.217 56.7295 127.664 56.174C127.031 55.5373 127 54.8718 126.976 54.2744L126.966 54.0701H136.227C136.18 52.0788 136.102 49.9486 134.267 48.125C132.628 46.5293 130.536 46.0158 129.071 46.0158C124.816 46.0158 121.957 48.9975 121.957 53.1661C121.957 55.0579 122.585 56.7924 123.727 58.0631C125.011 59.4859 126.864 60.4186 129.095 60.4186C132.081 60.4186 134.395 58.975 135.956 56.6954C135.816 56.6365 135.219 56.3867 134.526 56.0964C133.432 55.6384 132.097 55.0797 131.938 55.0107ZM127.031 51.222C127.156 50.6456 127.482 49.2097 129.199 49.2097C129.981 49.2097 130.882 49.6709 131.138 50.7084L131.195 51.0517L131.234 51.4552H126.981L127.031 51.222Z" fill="black"/>
<path d="M134.743 27.7477C134.795 28.0176 134.821 28.2901 134.821 28.5521V35.747H139.733V28.6307C139.733 28.3477 139.733 27.7634 140.009 27.2447C140.343 26.6132 140.869 26.2909 141.763 26.2909C143.719 26.2909 143.715 27.8537 143.712 28.6806L143.712 28.7591V35.747H148.622C148.622 35.4037 148.624 27.1425 148.624 27.1425L148.622 27.132C148.598 25.9032 148.569 24.5119 147.42 23.38C146.613 22.5651 145.315 22.0987 143.863 22.0987C140.713 22.0987 139.835 23.7782 139.587 24.3389L139.439 24.6848L139.269 24.3494C138.925 23.6865 138.462 22.9241 136.789 22.4C136.004 22.1511 135.29 22.0987 134.824 22.0987C132.188 22.0987 131.451 23.3142 131.028 24.0114C131.012 24.0365 130.998 24.061 130.983 24.0848L130.626 24.6665V22.4315H125.943V35.747H130.858V28.4945L130.863 28.408C130.887 27.9547 130.918 27.3914 131.421 26.8831C131.793 26.5058 132.257 26.2909 132.875 26.2909C133.654 26.2909 134.501 26.6709 134.743 27.7477Z" fill="black"/>
<path fill-rule="evenodd" clip-rule="evenodd" d="M158.013 32.6911C159.128 32.6911 160.009 32.0964 160.574 30.8623C160.835 30.9723 164.238 32.3951 164.595 32.5418C163.029 34.8239 160.717 36.2676 157.731 36.2676C155.506 36.2676 153.648 35.3348 152.366 33.9121C151.222 32.6413 150.597 30.9042 150.597 29.0151C150.597 24.8465 153.453 21.8648 157.708 21.8648C159.175 21.8648 161.265 22.3783 162.904 23.974C164.736 25.795 164.814 27.9251 164.866 29.919H155.602L155.61 30.1208C155.636 30.7182 155.67 31.3889 156.303 32.023C156.853 32.5785 157.536 32.6911 158.013 32.6911ZM157.838 25.0535C156.121 25.0535 155.793 26.4945 155.67 27.071L155.618 27.3041H159.873L159.834 26.9033L159.772 26.5548C159.521 25.5172 158.62 25.0535 157.838 25.0535Z" fill="black"/>
<path d="M171.474 22.3293H166.765V35.747H171.651V29.443L171.651 29.4381C171.677 28.5907 171.746 26.3696 175.002 26.3696C175.301 26.3696 175.784 26.3853 176.078 26.4036V22.125C174.244 22.1302 173.139 22.4682 171.771 23.697L171.474 23.9617V22.3293Z" fill="black"/>
<path d="M197.304 34.0188C197.89 33.4292 198.271 32.7768 198.581 32.1218C198.373 32.0068 196.284 30.855 195.285 30.3043L194.784 30.0283C194.513 30.9034 193.87 32.3576 192.28 32.3576C191.162 32.3576 189.828 31.7969 189.828 29.1165C189.828 26.7872 190.816 25.3383 192.408 25.3383C193.549 25.3383 194.36 26.03 194.777 27.4606C195.11 27.2719 198.294 25.464 198.573 25.3016C198.318 24.8824 197.982 24.4186 197.528 23.9653C195.54 21.9347 192.979 21.7906 192.153 21.7906C189.891 21.7906 188.041 22.5898 186.805 23.8867C185.635 25.092 184.963 26.9811 184.963 28.9645C184.963 33.2773 187.665 36.2406 191.845 36.2406C194.797 36.2406 196.554 34.797 197.304 34.0188Z" fill="black"/>
<path fill-rule="evenodd" clip-rule="evenodd" d="M208.855 34.7472C208.209 35.1978 207.005 36.0363 204.61 36.0363C201.218 36.0363 200.003 33.7306 200.003 31.7393C200.003 30.6467 200.366 29.7296 201.077 29.0117C202.255 27.8059 203.71 27.6114 205.911 27.3173L205.937 27.3139C207.401 27.1095 207.972 26.9785 208.777 26.7453L208.91 26.7086L208.905 26.5671C208.876 25.5505 208.532 24.8745 206.937 24.8745C205.754 24.8745 205.246 25.223 205.035 26.2841C204.782 26.2894 200.848 26.3942 200.457 26.4047C200.647 25.2466 201.025 23.8762 202.75 22.9644C203.889 22.3697 205.418 21.974 207.422 21.974C210.077 21.974 211.883 22.7417 212.787 23.9103C213.538 24.8798 213.538 26.0536 213.538 26.8291V34.2624C213.538 34.9987 213.598 35.3315 213.848 35.7481H209.163V34.5349L208.855 34.7472ZM205.726 30.4213H205.721C204.618 30.8641 204.532 31.527 204.532 31.7314C204.532 32.1978 204.934 32.7952 206.018 32.7952C206.789 32.7952 208.107 32.3628 208.61 31.244C208.881 30.6467 208.881 30.1777 208.881 29.7113V29.4597L208.587 29.5645L208.491 29.5978C208.039 29.7552 207.573 29.9175 207.094 30.0545L206.956 30.086L206.884 30.1028C206.508 30.1917 206.12 30.2832 205.728 30.4187L205.726 30.4213Z" fill="black"/>
<path d="M225.049 28.4476V35.7473H229.964V27.3157C229.964 26.6004 229.964 24.5095 228.687 23.2545C227.869 22.4789 226.746 22.0676 225.302 22.0676C222.622 22.0676 221.743 23.3305 221.275 24.0024L221.257 24.0291L221.227 24.072L220.88 24.5646V22.4056H216.249V35.7473H221.161V28.631C221.161 28.0441 221.187 26.2624 223.15 26.2624C225.057 26.2624 225.052 27.7502 225.049 28.386C225.049 28.4075 225.049 28.4281 225.049 28.4476Z" fill="black"/>
<path d="M164.079 50.5685C164.079 52.0777 164.384 53.3668 164.958 54.297C165.651 55.4236 166.701 55.9948 168.071 55.9948C169.314 55.9948 171.026 55.3136 171.897 52.9135C172.098 53.0105 173.791 53.8344 175.066 54.4552L175.077 54.4604C175.795 54.8099 176.379 55.094 176.486 55.1459C176.063 55.945 175.498 56.9826 174.698 57.7844C172.991 59.477 170.544 60.4438 167.814 60.4438C164.911 60.4438 162.5 59.3853 160.851 57.4437C159.42 55.7642 158.631 53.3459 158.631 50.9013C158.631 48.4331 159.488 45.868 160.979 44.1151C162.664 42.1343 165.028 41.0496 167.814 41.0496C170.602 41.0496 173.129 42.1081 174.922 43.9658C175.62 44.6863 176.108 45.5248 176.457 46.1667C176.358 46.2164 175.859 46.4664 175.226 46.7838C173.955 47.4211 172.142 48.3299 171.938 48.4331C171.485 47.3693 170.482 45.3204 168.043 45.3204C166.711 45.3204 165.872 45.9676 165.489 46.3501C164.079 47.7152 164.079 49.8637 164.079 50.5685Z" fill="black"/>
<path fill-rule="evenodd" clip-rule="evenodd" d="M201.136 47.9031C200.555 47.3503 198.861 46.0192 195.708 45.9904C193.329 45.9773 191.351 46.724 189.994 48.0839C188.727 49.3468 188.06 51.249 188.06 53.3189C188.06 55.1818 188.673 57.0159 189.783 58.2159C191.07 59.6151 193.022 60.3906 195.429 60.3906C197.798 60.3906 199.773 59.6806 201.136 58.4046C202.455 57.1679 203.15 55.2893 203.15 53.2403C203.15 51.2385 202.382 49.1031 201.136 47.9031ZM195.583 56.8692C193.293 56.8692 192.946 54.5478 192.946 53.1643C192.946 51.8359 193.288 49.5983 195.549 49.5407C196.261 49.5171 196.839 49.7215 197.277 50.1459C197.882 50.7355 198.189 51.7337 198.189 53.1119C198.189 56.2168 196.771 56.8692 195.583 56.8692Z" fill="black"/>
<path d="M211.61 51.0823C213.942 51.6169 214.497 51.7452 215.122 52.0701C216.397 52.7592 217.1 54.009 217.1 55.4553C217.1 57.9811 215.208 60.3864 210.985 60.3864C207.333 60.3864 205.142 58.5928 204.038 57.6883L203.998 57.6563C204.259 57.4178 206.495 55.3505 206.711 55.1488C207.172 55.6047 207.8 56.1313 208.767 56.5453C209.515 56.8493 210.224 56.996 210.935 56.996C211.709 56.996 212.493 56.6842 212.493 55.9951C212.493 55.23 211.565 55.0938 211.042 55.0172L211.011 55.0125C210.547 54.9366 209.46 54.7558 208.274 54.4021C207.037 54.0405 204.741 53.2964 204.741 50.5898C204.741 49.5365 205.208 48.3338 206.018 47.5425C207.055 46.5521 208.587 46.0045 210.575 46.0045C211.529 46.0045 212.496 46.1224 213.525 46.3609C215.194 46.7613 216.189 47.5199 216.825 48.0047L216.827 48.0063C216.671 48.1461 215.883 48.8681 215.207 49.4884L215.203 49.4917L215.201 49.4933C214.701 49.9521 214.262 50.3542 214.187 50.4221C213.301 49.8666 212.053 49.1041 210.656 49.1041C209.517 49.1041 209.348 49.6491 209.348 49.9793C209.348 50.5213 209.746 50.6201 211.405 51.0312L211.506 51.0561L211.61 51.0823Z" fill="black"/>
<path d="M229.025 52.0701C228.402 51.7452 227.847 51.6169 225.51 51.0823L225.408 51.0561L225.301 51.0295C223.65 50.6198 223.25 50.5206 223.25 49.9793C223.25 49.6491 223.422 49.1041 224.559 49.1041C225.955 49.1041 227.203 49.8666 228.092 50.4221L228.361 50.1754C228.996 49.5929 230.507 48.206 230.732 48.0063L230.723 47.9995C230.084 47.5145 229.09 46.7599 227.43 46.3609C226.398 46.1224 225.434 46.0045 224.478 46.0045C222.49 46.0045 220.957 46.5521 219.92 47.5425C219.11 48.3338 218.646 49.5365 218.646 50.5898C218.646 53.2964 220.944 54.0405 222.174 54.4021C223.362 54.7558 224.449 54.9366 224.913 55.0125L224.942 55.0168C225.466 55.0934 226.393 55.2286 226.393 55.9951C226.393 56.6842 225.611 56.996 224.837 56.996C224.126 56.996 223.417 56.8493 222.667 56.5453C221.703 56.1313 221.077 55.6047 220.613 55.1488C220.397 55.3505 218.161 57.4178 217.901 57.6563L217.942 57.69C219.047 58.5951 221.235 60.3864 224.887 60.3864C229.113 60.3864 231 57.9811 231 55.4553C231 54.009 230.299 52.7592 229.025 52.0701Z" fill="black"/>
<path d="M177.807 46.4804H182.515V48.1127L182.812 47.8507C184.183 46.6193 185.288 46.2839 187.122 46.2734V50.5573C186.828 50.5364 186.343 50.5154 186.044 50.5154C182.784 50.5154 182.719 52.7504 182.695 53.5914V59.8981H177.807V46.4804Z" fill="black"/>
</svg>
