<svg width="205" height="69" viewBox="0 0 205 69" fill="none" xmlns="http://www.w3.org/2000/svg">
<path d="M68.8435 22.9994H45.8951V0H22.9484V22.9994H0V45.9988H22.9484V69H45.8951V45.9988H68.8435V22.9994Z" fill="#375475"/>
<path d="M162.527 19.8184H157.837V31.637H162.527V19.8184Z" fill="#375475"/>
<path d="M162.527 15.5305H157.837V18.6549H162.527V15.5305Z" fill="#375475"/>
<path fill-rule="evenodd" clip-rule="evenodd" d="M110.504 31.6219H105.398L104.648 29.216H98.8324L98.0716 31.6219H92.9703C93.1298 31.2047 99.0221 15.7426 99.0961 15.5433H104.521C104.595 15.7449 110.346 31.2093 110.504 31.6219ZM101.788 19.5739L99.8731 25.781H103.654L101.788 19.5739Z" fill="#375475"/>
<path fill-rule="evenodd" clip-rule="evenodd" d="M104.125 46.409L104.22 46.5666C104.22 46.5666 107.804 52.5211 108.072 52.9661H102.818L99.6108 47.1461H97.8626V52.9661H93.0965V36.8828H100.927C102.196 36.8828 103.78 36.9361 104.816 37.3742C106.786 38.2133 107.487 40.341 107.487 41.9635C107.487 43.2313 107.092 44.3462 106.308 45.1435C105.729 45.7652 105.125 46.0077 104.424 46.289L104.125 46.409ZM97.8626 44.0031H100.151C100.88 44.0033 102.742 44.0037 102.742 42.0423C102.742 40.1023 100.897 40.0907 100.108 40.0907H97.8626V44.0031Z" fill="#375475"/>
<path fill-rule="evenodd" clip-rule="evenodd" d="M127.246 53.2621C124.129 53.2621 122.117 50.6337 122.117 46.8024C122.117 42.7926 124.614 40.841 127.089 40.841C128.747 40.841 129.461 41.49 129.933 41.9211L130.245 42.1992V36.9053H134.604V52.9677H130.382V51.839L130.104 52.1565C129.813 52.4903 129.598 52.7336 128.962 52.977C128.458 53.1694 127.896 53.2621 127.246 53.2621ZM130.167 45.5021C129.836 44.415 128.997 44.028 128.384 44.028C128.058 44.028 126.959 44.1438 126.548 45.6226V45.6296C126.453 46.063 126.409 46.5173 126.409 47.0527C126.409 48.1791 126.638 48.9742 127.11 49.4818C127.433 49.8317 127.907 50.0334 128.405 50.0334C128.862 50.0334 129.334 49.8248 129.697 49.4632C130.356 48.7795 130.356 47.6437 130.356 47.0295C130.356 46.4524 130.324 45.9749 130.167 45.5021Z" fill="#375475"/>
<path fill-rule="evenodd" clip-rule="evenodd" d="M117.087 48.6633C116.586 49.755 115.804 50.2858 114.814 50.2858C114.391 50.2858 113.785 50.1838 113.295 49.6924C112.733 49.1292 112.705 48.5405 112.684 48.012L112.675 47.8312H120.894C120.852 46.0697 120.783 44.1853 119.155 42.5721C117.7 41.1606 115.843 40.7063 114.544 40.7063C110.767 40.7063 108.231 43.3439 108.231 47.0316C108.231 48.705 108.788 50.2394 109.801 51.3636C110.941 52.6221 112.585 53.4473 114.565 53.4473C117.215 53.4473 119.268 52.1702 120.653 50.1537C120.53 50.1015 120 49.8805 119.385 49.6238C118.414 49.2186 117.229 48.7243 117.087 48.6633ZM112.733 45.3118C112.844 44.8018 113.133 43.5317 114.657 43.5317C115.351 43.5317 116.151 43.9396 116.378 44.8575L116.428 45.1611L116.463 45.518H112.689L112.733 45.3118Z" fill="#375475"/>
<path d="M119.577 24.5461C119.624 24.7848 119.647 25.0259 119.647 25.2576V31.6223H124.006V25.3272C124.006 25.0768 124.006 24.56 124.251 24.101C124.547 23.5425 125.014 23.2574 125.807 23.2574C127.543 23.2574 127.539 24.6398 127.537 25.3713L127.537 25.4407V31.6223H131.894C131.894 31.3187 131.896 24.0107 131.896 24.0107L131.894 24.0014C131.873 22.9143 131.847 21.6836 130.828 20.6823C130.111 19.9614 128.959 19.5489 127.671 19.5489C124.875 19.5489 124.096 21.0346 123.876 21.5306L123.744 21.8365L123.594 21.5399C123.289 20.9535 122.877 20.279 121.393 19.8154C120.697 19.5952 120.063 19.5489 119.649 19.5489C117.31 19.5489 116.655 20.6241 116.28 21.2408C116.266 21.2631 116.253 21.2848 116.24 21.3058L115.924 21.8203V19.8432H111.768V31.6223H116.129V25.2066L116.134 25.1302C116.155 24.7292 116.183 24.2308 116.629 23.7812C116.96 23.4474 117.371 23.2574 117.919 23.2574C118.611 23.2574 119.362 23.5934 119.577 24.5461Z" fill="#375475"/>
<path fill-rule="evenodd" clip-rule="evenodd" d="M140.228 28.9191C141.217 28.9191 141.999 28.3929 142.501 27.3013C142.732 27.3986 145.752 28.6572 146.069 28.787C144.679 30.8058 142.628 32.0829 139.978 32.0829C138.003 32.0829 136.354 31.2577 135.216 29.9992C134.201 28.875 133.646 27.3383 133.646 25.6672C133.646 21.9796 136.181 19.3419 139.957 19.3419C141.259 19.3419 143.114 19.7962 144.568 21.2077C146.194 22.8186 146.263 24.703 146.31 26.4668H138.089L138.096 26.6453C138.119 27.1738 138.149 27.7671 138.711 28.328C139.199 28.8194 139.804 28.9191 140.228 28.9191ZM140.073 22.1627C138.549 22.1627 138.257 23.4375 138.149 23.9474L138.102 24.1537H141.879L141.844 23.799L141.789 23.4908C141.567 22.5729 140.766 22.1627 140.073 22.1627Z" fill="#375475"/>
<path d="M152.174 19.7529H147.995V31.6224H152.331V26.0457L152.331 26.0414C152.354 25.2918 152.415 23.3269 155.305 23.3269C155.571 23.3269 155.998 23.3408 156.26 23.3571V19.5721C154.632 19.5767 153.651 19.8757 152.437 20.9628L152.174 21.1969V19.7529Z" fill="#375475"/>
<path d="M175.097 30.0935C175.617 29.572 175.955 28.9949 176.23 28.4154C176.045 28.3137 174.191 27.2948 173.305 26.8076L172.861 26.5635C172.62 27.3377 172.049 28.624 170.638 28.624C169.646 28.624 168.462 28.128 168.462 25.7569C168.462 23.6964 169.339 22.4146 170.752 22.4146C171.764 22.4146 172.484 23.0265 172.854 24.2921C173.15 24.1252 175.976 22.5259 176.223 22.3822C175.996 22.0113 175.698 21.6011 175.296 21.2001C173.531 19.4038 171.258 19.2763 170.525 19.2763C168.518 19.2763 166.876 19.9833 165.78 21.1306C164.741 22.1968 164.145 23.8679 164.145 25.6225C164.145 29.4376 166.543 32.059 170.252 32.059C172.872 32.059 174.431 30.7819 175.097 30.0935Z" fill="#375475"/>
<path fill-rule="evenodd" clip-rule="evenodd" d="M185.348 30.7379C184.774 31.1365 183.706 31.8782 181.581 31.8782C178.57 31.8782 177.492 29.8386 177.492 28.077C177.492 27.1105 177.814 26.2993 178.445 25.6642C179.491 24.5976 180.782 24.4255 182.735 24.1653L182.758 24.1623C184.057 23.9815 184.564 23.8656 185.278 23.6593L185.396 23.6268L185.392 23.5017C185.366 22.6024 185.061 22.0044 183.646 22.0044C182.596 22.0044 182.145 22.3126 181.958 23.2514C181.733 23.256 178.241 23.3487 177.895 23.358C178.063 22.3335 178.399 21.1213 179.93 20.3147C180.94 19.7886 182.298 19.4386 184.076 19.4386C186.432 19.4386 188.035 20.1177 188.837 21.1514C189.503 22.009 189.503 23.0474 189.503 23.7335V30.3091C189.503 30.9604 189.556 31.2547 189.778 31.6233H185.621V30.5501L185.348 30.7379ZM182.57 26.9112H182.566C181.588 27.3029 181.511 27.8893 181.511 28.0701C181.511 28.4827 181.867 29.0111 182.829 29.0111C183.514 29.0111 184.684 28.6287 185.13 27.639C185.371 27.1105 185.371 26.6956 185.371 26.2831V26.0605L185.11 26.1533L185.025 26.1827C184.624 26.3219 184.21 26.4655 183.785 26.5867L183.662 26.6145L183.599 26.6294C183.265 26.708 182.921 26.789 182.573 26.9089L182.57 26.9112Z" fill="#375475"/>
<path d="M199.719 25.1652V31.6226H204.08V24.1639C204.08 23.5311 204.08 21.6815 202.947 20.5713C202.221 19.8852 201.224 19.5213 199.943 19.5213C197.565 19.5213 196.785 20.6385 196.37 21.2329L196.353 21.2565L196.327 21.2945L196.019 21.7302V19.8203H191.91V31.6226H196.269V25.3274C196.269 24.8082 196.292 23.2321 198.033 23.2321C199.726 23.2321 199.721 24.5483 199.719 25.1107C199.719 25.1297 199.719 25.1479 199.719 25.1652Z" fill="#375475"/>
<path d="M145.612 44.7337C145.612 46.0688 145.882 47.2091 146.391 48.0319C147.006 49.0286 147.938 49.5339 149.154 49.5339C150.257 49.5339 151.777 48.9312 152.549 46.8081C152.728 46.8939 154.23 47.6227 155.362 48.1719L155.371 48.1765C156.008 48.4857 156.526 48.737 156.621 48.7829C156.247 49.4898 155.745 50.4077 155.035 51.1169C153.52 52.6142 151.349 53.4695 148.925 53.4695C146.349 53.4695 144.21 52.5331 142.746 50.8156C141.477 49.3299 140.776 47.1906 140.776 45.0281C140.776 42.8447 141.537 40.5756 142.86 39.0249C144.356 37.2727 146.453 36.3131 148.925 36.3131C151.4 36.3131 153.643 37.2495 155.234 38.8928C155.854 39.5302 156.286 40.2719 156.596 40.8398C156.508 40.8837 156.066 41.1049 155.504 41.3857C154.376 41.9494 152.767 42.7534 152.586 42.8447C152.184 41.9037 151.293 40.0911 149.129 40.0911C147.947 40.0911 147.203 40.6636 146.863 41.002C145.612 42.2096 145.612 44.1102 145.612 44.7337Z" fill="#375475"/>
<path fill-rule="evenodd" clip-rule="evenodd" d="M178.497 42.3758C177.982 41.8868 176.479 40.7093 173.681 40.6838C171.569 40.6722 169.814 41.3328 168.609 42.5358C167.485 43.6529 166.893 45.3357 166.893 47.1667C166.893 48.8147 167.437 50.4372 168.422 51.4987C169.564 52.7364 171.296 53.4225 173.433 53.4225C175.535 53.4225 177.288 52.7944 178.497 51.6656C179.668 50.5716 180.285 48.9097 180.285 47.0972C180.285 45.3264 179.603 43.4374 178.497 42.3758ZM173.57 50.3074C171.537 50.3074 171.229 48.2538 171.229 47.03C171.229 45.8549 171.532 43.8754 173.539 43.8245C174.171 43.8036 174.684 43.9844 175.073 44.3599C175.609 44.8814 175.882 45.7645 175.882 46.9836C175.882 49.7302 174.624 50.3074 173.57 50.3074Z" fill="#375475"/>
<path d="M187.792 45.1882C189.862 45.6611 190.355 45.7746 190.91 46.062C192.04 46.6716 192.665 47.7772 192.665 49.0567C192.665 51.291 190.986 53.4188 187.237 53.4188C183.997 53.4188 182.053 51.8321 181.072 51.0319L181.038 51.0036C181.269 50.7927 183.253 48.9639 183.445 48.7855C183.854 49.1888 184.411 49.6546 185.269 50.0209C185.933 50.2897 186.562 50.4195 187.193 50.4195C187.88 50.4195 188.576 50.1437 188.576 49.5341C188.576 48.8573 187.752 48.7369 187.288 48.669L187.26 48.6649C186.849 48.5977 185.885 48.4378 184.832 48.1249C183.734 47.805 181.697 47.1468 181.697 44.7525C181.697 43.8207 182.111 42.7569 182.83 42.0569C183.75 41.1807 185.11 40.6963 186.874 40.6963C187.721 40.6963 188.579 40.8006 189.492 41.0115C190.973 41.3658 191.856 42.0368 192.42 42.4657L192.422 42.4671C192.284 42.5908 191.585 43.2295 190.984 43.7782L190.981 43.7811L190.98 43.7825C190.535 44.1884 190.146 44.5441 190.079 44.6041C189.293 44.1128 188.185 43.4383 186.946 43.4383C185.935 43.4383 185.785 43.9204 185.785 44.2124C185.785 44.692 186.139 44.7793 187.611 45.143L187.7 45.1651L187.792 45.1882Z" fill="#375475"/>
<path d="M203.247 46.062C202.694 45.7746 202.202 45.6611 200.128 45.1882L200.037 45.1651L199.942 45.1415C198.477 44.779 198.123 44.6913 198.123 44.2124C198.123 43.9204 198.275 43.4383 199.284 43.4383C200.523 43.4383 201.631 44.1128 202.419 44.6041L202.658 44.386C203.221 43.8707 204.563 42.6437 204.762 42.4671L204.754 42.4611C204.187 42.0321 203.305 41.3645 201.832 41.0115C200.916 40.8006 200.061 40.6963 199.212 40.6963C197.447 40.6963 196.088 41.1807 195.167 42.0569C194.448 42.7569 194.036 43.8207 194.036 44.7525C194.036 47.1468 196.076 47.805 197.168 48.1249C198.222 48.4378 199.186 48.5977 199.598 48.6649L199.624 48.6687C200.089 48.7364 200.912 48.8561 200.912 49.5341C200.912 50.1437 200.218 50.4195 199.531 50.4195C198.9 50.4195 198.271 50.2897 197.605 50.0209C196.749 49.6546 196.194 49.1888 195.782 48.7855C195.59 48.9639 193.606 50.7927 193.375 51.0036L193.412 51.0335C194.393 51.8342 196.334 53.4188 199.575 53.4188C203.326 53.4188 205 51.291 205 49.0567C205 47.7772 204.378 46.6716 203.247 46.062Z" fill="#375475"/>
<path d="M157.794 41.1173H161.972V42.5613L162.236 42.3295C163.452 41.2401 164.433 40.9434 166.061 40.9342V44.7238C165.8 44.7052 165.369 44.6867 165.104 44.6867C162.211 44.6867 162.153 46.6638 162.132 47.4078V52.9868H157.794V41.1173Z" fill="#375475"/>
</svg>
