<svg width="206" height="49" viewBox="0 0 206 49" fill="none" xmlns="http://www.w3.org/2000/svg">
<path d="M174.739 1.21309C173.66 1.38541 172.613 1.65207 171.605 2.00353C171.807 2.22166 172.024 2.42891 172.255 2.62391C173.045 2.0974 173.875 1.62531 174.739 1.21309ZM192.571 8.61319C191.653 7.34069 190.576 6.19018 189.369 5.19158C188.775 5.70131 188.14 6.17203 187.468 6.60058C188.375 7.70393 189.167 8.90614 189.825 10.1882C190.781 9.71517 191.698 9.18867 192.571 8.61319ZM188.678 4.64694C187.428 3.70957 186.054 2.9273 184.585 2.33005C184.344 2.61393 184.082 2.8824 183.801 3.13318C184.93 3.95944 185.969 4.90089 186.901 5.93984C187.528 5.54667 188.122 5.11404 188.678 4.64694ZM183.721 2.00353C182.713 1.65207 181.666 1.38541 180.587 1.21309C181.451 1.62531 182.281 2.0974 183.071 2.62391C183.302 2.42891 183.519 2.22166 183.721 2.00353ZM177.663 0C188.356 0 197.017 8.65627 197.017 19.3265C197.017 29.9967 188.356 38.653 177.663 38.653C166.969 38.653 158.308 29.9963 158.308 19.3265C158.308 8.65672 166.97 0 177.663 0ZM180.888 3.92815C181.404 3.72181 181.889 3.46786 182.337 3.17309C181.314 2.51416 180.224 1.94956 179.08 1.49199C179.725 2.26973 180.329 3.08284 180.888 3.92815ZM178.096 4.52994C178.771 4.49729 179.423 4.38935 180.041 4.21566C179.443 3.32682 178.793 2.47561 178.096 1.66567V4.52994ZM180.529 4.9671C179.761 5.20655 178.944 5.35212 178.097 5.38976V8.53155C179.503 8.49845 180.864 8.30435 182.157 7.97058C181.676 6.93254 181.132 5.92941 180.529 4.9671ZM183.102 3.69188C182.569 4.07463 181.985 4.40205 181.359 4.66417C181.966 5.64734 182.515 6.67088 182.999 7.72978C184.108 7.38286 185.161 6.93073 186.142 6.38744C185.228 5.38613 184.208 4.48187 183.102 3.69188ZM174.437 3.92815C174.997 3.08284 175.6 2.26973 176.246 1.49199C175.102 1.94956 174.012 2.51416 172.989 3.17309C173.436 3.46786 173.922 3.72181 174.437 3.92815ZM177.229 1.66567C176.532 2.47561 175.883 3.32682 175.285 4.21566C175.902 4.38935 176.554 4.49729 177.229 4.52994V1.66567ZM166.805 34.1262C167.231 34.284 167.839 34.4664 168.59 34.4196C169.581 34.3584 170.881 33.8673 172.12 33.4074C173.359 32.9472 176.61 32.1803 177.384 32.027C178.158 31.8737 178.344 31.5363 178.53 31.1989C178.716 30.8615 178.592 30.3709 178.499 29.7877C178.406 29.2049 178.251 28.2843 178.22 27.4254C178.189 26.5665 178.159 25.7992 176.796 24.9403C175.433 24.0814 174.566 23.0687 174.659 22.3019C174.752 21.535 175.65 20.8906 175.65 20.8906C175.65 20.8906 175.433 20.2466 175.526 19.9705C175.619 19.6943 176.455 19.7863 176.455 19.7863C176.455 19.7863 176.331 18.8662 176.393 18.6204C176.455 18.3751 176.889 18.4975 176.889 18.4975L177.291 18.2522C177.291 18.2522 176.981 17.6078 176.857 17.1788C176.733 16.7493 176.981 16.4119 177.477 16.4119C177.972 16.4119 178.592 16.3502 180.078 16.0133C181.564 15.6759 182.215 12.8533 185.714 12.3014C189.213 11.7491 191.938 14.3875 191.938 14.3875C191.938 14.3875 197.512 19.5718 193.858 25.4314C190.687 30.5164 186.642 29.2353 186.642 29.2353C186.642 29.2353 185.93 29.5727 186.271 31.0452C186.611 32.5177 188.748 33.7448 188.748 33.7448L188.92 33.8242C193.249 30.4675 196.033 25.2205 196.033 19.3265C196.033 15.6396 194.935 12.1994 193.06 9.32335C192.151 9.92287 191.195 10.4702 190.2 10.9618C190.461 11.5287 190.696 12.1092 190.903 12.7028C190.541 12.4919 190.16 12.3042 189.768 12.1436C189.657 11.8702 189.541 11.5999 189.418 11.3328C189.115 11.4706 188.809 11.6031 188.5 11.73C187.899 11.5831 187.287 11.5015 186.685 11.496C187.491 11.2185 188.278 10.9056 189.041 10.5587C188.395 9.30249 187.614 8.12659 186.718 7.05045C185.667 7.64725 184.536 8.14246 183.344 8.52203C183.793 9.58956 184.177 10.6906 184.492 11.8203C184.191 11.9105 183.921 12.0139 183.678 12.1264C183.36 10.9736 182.968 9.85212 182.507 8.76601C181.104 9.14014 179.624 9.35601 178.094 9.39048V12.993C179.794 12.9635 181.452 12.7844 183.053 12.4706C182.544 12.7998 182.171 13.1753 181.831 13.5508C180.612 13.7286 179.364 13.8311 178.094 13.8524V15.0927C177.9 15.1063 177.694 15.1131 177.475 15.1131C177.388 15.1131 177.305 15.1181 177.227 15.1272V9.39048C176.543 9.37506 175.868 9.32335 175.205 9.23719C175.002 8.89934 174.763 8.57146 174.495 8.25901C175.381 8.41637 176.294 8.50934 177.227 8.5311V5.3893C176.38 5.35212 175.563 5.20655 174.795 4.96665C174.326 5.71446 173.894 6.48631 173.498 7.28037C173.274 7.09399 173.04 6.91712 172.796 6.75114C173.156 6.03735 173.546 5.34124 173.965 4.66372C173.34 4.40115 172.755 4.07418 172.222 3.69143C171.452 4.24106 170.724 4.84648 170.044 5.50132C169.703 5.4147 169.357 5.35121 169.009 5.31312C169.785 4.5195 170.626 3.78938 171.523 3.13272C171.242 2.88149 170.98 2.61302 170.739 2.32913C169.27 2.92684 167.896 3.70866 166.646 4.64648C162.36 7.86129 159.522 12.905 159.304 18.6154C159.416 18.5138 161.152 16.9579 161.961 16.7801C162.797 16.596 163.447 15.1544 163.447 14.9086C163.447 14.6628 161.867 10.8503 163.788 8.31297C165.46 6.10446 168.03 4.96937 172.087 7.20872C176.144 9.44807 175.369 12.6692 174.595 13.7123C173.821 14.7553 173.48 15.0927 173.604 15.5834C173.728 16.0745 174.1 16.4423 173.945 16.6876C173.789 16.933 173.016 17.025 173.016 17.025C173.016 17.025 173.202 17.5465 173.171 17.7307C173.139 17.9148 172.706 17.8839 172.706 17.8839C172.706 17.8839 172.799 18.191 172.737 18.4055C172.675 18.6204 171.963 18.4975 171.963 18.4975C171.963 18.4975 172.118 19.8167 170.352 19.6018C168.587 19.3868 168.216 18.8349 167.689 19.2335C167.163 19.6322 167.256 20.1537 167.627 21.6878C167.999 23.2215 168.154 26.6885 168.154 26.6885L169.222 27.4399C169.222 27.4399 170.848 27.5166 171.235 27.5474C171.622 27.5783 172.056 27.6857 172.304 27.7007C172.551 27.7161 173.573 26.9184 174.115 26.796C174.657 26.6731 174.827 26.8268 174.827 26.9647C174.827 27.1025 174.673 27.4862 174.673 27.4862C174.673 27.4862 175.54 27.1642 175.849 27.2409C176.159 27.3175 176.329 27.6395 176.097 28.7442C175.865 29.8484 175.385 30.5541 174.409 30.6616C173.434 30.769 172.784 30.3087 172.087 30.3241C171.39 30.3396 169.331 31.2905 167.674 31.1522C166.017 31.0139 165.584 30.3241 165.584 30.3241C165.584 30.3241 165.011 31.3672 164.933 31.7812C164.881 32.0606 164.92 32.3894 164.952 32.5735C165.535 33.1304 166.154 33.6492 166.805 34.1262Z" fill="#FCA400"/>
<path d="M168.404 40.2484C167.382 40.4325 164.858 40.1255 163.372 38.331C162.107 36.8037 161.39 33.1313 161.591 32.978C161.792 32.8247 163.681 34.3126 165.632 36.0763C167.583 37.8403 169.426 40.0643 168.404 40.2484ZM163.82 40.5554C163.666 40.7704 160.95 41.5372 158.03 39.8498C155.057 38.1319 153.613 34.9366 153.663 34.7879C153.756 34.5117 155.738 34.972 159.485 37.0581C163.232 39.1441 164.037 40.3404 163.82 40.5554ZM161.281 36.9048C161.064 36.9968 158.401 35.7085 157.627 32.4261C156.853 29.1437 157.868 26.8735 158.092 26.7815C158.464 26.6282 159.64 28.561 160.507 31.5363C161.374 34.5117 161.622 36.8127 161.281 36.9048ZM157.937 35.5089C157.612 35.6164 154.716 34.4196 152.626 31.92C150.844 29.789 150.009 26.2599 150.18 26.1525C150.35 26.045 152.781 28.1311 154.763 30.3554C156.745 32.5794 158.262 35.4015 157.937 35.5089ZM156.095 30.7386C155.661 30.6466 154.407 29.2317 154.577 25.723C154.686 23.4837 156.453 20.6194 156.776 20.6307C157.209 20.6462 157.41 22.7227 157.225 25.4473C157.039 28.1769 156.528 30.8307 156.095 30.7386ZM149.483 17.5783C149.808 17.3329 151.31 19.8789 152.254 21.9958C153.056 23.792 154.081 27.6558 153.663 27.7937C153.399 27.8812 151.248 26.5511 150.04 23.3299C149.067 20.7346 149.315 17.7044 149.483 17.5783ZM156.745 14.909C157.039 14.9857 156.915 17.3017 156.032 19.7256C155.15 22.149 153.942 24.2963 153.679 24.143C153.416 23.9898 152.92 21.1214 153.756 18.9433C154.593 16.7652 156.451 14.8324 156.745 14.909ZM153.632 16.8264C153.4 16.5348 153.283 13.9345 155.041 11.7187C156.745 9.57141 158.231 8.89617 158.51 9.03448C158.789 9.1728 157.86 11.6266 156.714 13.3599C155.558 15.1072 153.824 17.0672 153.632 16.8264ZM153.121 12.501C152.725 12.3046 152.756 10.3034 153.756 8.2522C154.639 6.44231 156.543 4.69364 156.869 4.81654C157.194 4.93898 156.504 7.53704 155.769 9.18821C155.135 10.6144 153.462 12.6697 153.121 12.501ZM151.527 9.54058C151.836 9.4789 152.642 11.7491 152.796 14.817C152.951 17.8844 152.642 20.2775 152.425 20.2775C152.208 20.2775 150.613 18.9583 150.52 15.7067C150.427 12.4547 151.217 9.60225 151.527 9.54058ZM183.732 48.9917C183.268 49.145 183.113 47.151 179.242 44.5434C178.625 44.128 178.049 43.7802 177.517 43.489C177.068 43.7448 176.59 44.04 176.083 44.3811C172.212 46.9887 172.058 48.9827 171.593 48.8294C171.128 48.6761 170.385 47.8476 170.385 47.8476C170.385 47.8476 173.027 44.6269 176.194 42.8342C174.343 42.0184 173.296 41.9975 173.296 41.9975C173.296 41.9975 171.957 44.206 167.815 43.9607C163.665 43.7153 161.467 42.7948 160.785 42.3349C160.622 42.2243 159.918 41.5068 165.183 41.0157C170.126 40.555 174.032 40.8515 177.464 42.2097C180.992 40.7128 185.007 40.374 190.142 40.8529C195.407 41.3436 194.704 42.0615 194.54 42.1721C193.858 42.6324 191.66 43.5525 187.51 43.7979C183.368 44.0428 182.029 41.8347 182.029 41.8347C182.029 41.8347 180.86 41.8583 178.807 42.8188C182.116 44.5665 184.94 48.0099 184.94 48.0099C184.94 48.0099 184.197 48.838 183.732 48.9917ZM186.922 40.086C185.9 39.9019 187.743 37.678 189.693 35.9139C191.644 34.1498 193.533 32.6619 193.734 32.8156C193.936 32.9689 193.219 36.6413 191.954 38.1687C190.468 39.9631 187.944 40.2702 186.922 40.086ZM191.505 40.3926C191.288 40.1777 192.093 38.9813 195.841 36.8957C199.588 34.8097 201.569 34.3494 201.662 34.6255C201.712 34.7738 200.269 37.9691 197.296 39.6874C194.376 41.3744 191.66 40.6076 191.505 40.3926ZM194.044 36.742C193.704 36.6499 193.951 34.3494 194.818 31.3735C195.685 28.3977 196.862 26.4654 197.234 26.6187C197.457 26.7107 198.472 28.9809 197.698 32.2633C196.924 35.5457 194.261 36.834 194.044 36.742ZM197.389 35.3461C197.064 35.2387 198.581 32.4166 200.563 30.1922C202.545 27.9678 204.976 25.8817 205.146 25.9892C205.317 26.0967 204.482 29.6258 202.7 31.7567C200.609 34.2573 197.714 35.4536 197.389 35.3461ZM199.231 30.5758C198.798 30.6679 198.287 28.0141 198.101 25.284C197.916 22.5599 198.117 20.4829 198.55 20.4679C198.873 20.4566 200.64 23.3209 200.749 25.5602C200.919 29.0689 199.665 30.4838 199.231 30.5758ZM205.843 17.4155C206.01 17.542 206.258 20.5718 205.285 23.1676C204.077 26.3887 201.927 27.7184 201.662 27.6313C201.244 27.493 202.269 23.6292 203.071 21.8334C204.016 19.716 205.518 17.1701 205.843 17.4155ZM198.581 14.7467C198.875 14.67 200.733 16.6024 201.569 18.781C202.406 20.9591 201.91 23.8274 201.647 23.9807C201.383 24.134 200.176 21.9867 199.293 19.5632C198.411 17.1393 198.287 14.8233 198.581 14.7467ZM201.693 16.664C201.502 16.9048 199.767 14.9448 198.612 13.1975C197.466 11.4643 196.537 9.00999 196.816 8.87213C197.095 8.73381 198.581 9.40906 200.285 11.5563C202.042 13.7721 201.925 16.3724 201.693 16.664ZM202.204 12.3386C201.864 12.5073 200.191 10.4521 199.556 9.02541C198.822 7.37469 198.132 4.77664 198.457 4.65374C198.782 4.5313 200.687 6.27996 201.569 8.08985C202.57 10.141 202.601 12.1418 202.204 12.3386ZM203.799 9.37823C204.109 9.43945 204.898 12.2924 204.806 15.5444C204.713 18.7959 203.118 20.1151 202.901 20.1151C202.685 20.1151 202.375 17.7225 202.53 14.6546C202.684 11.5867 203.489 9.31655 203.799 9.37823Z" fill="#FCA400"/>
<path fill-rule="evenodd" clip-rule="evenodd" d="M19.9262 28.9827C19.9262 29.6861 19.8667 33.1412 18.8028 35.8939C17.6199 38.9396 14.4868 40.1114 12.1806 40.1114C6.79984 40.1114 5.61694 36.3633 5.61694 31.267V13.871H0V33.5517C0 39.4675 3.54732 44.1534 9.75662 44.1534C13.8949 44.1534 17.6798 42.6306 19.9262 38.9401H20.0443V43.275H25.5431V13.8714H19.9262V28.9827Z" fill="#FCA400"/>
<path fill-rule="evenodd" clip-rule="evenodd" d="M36.251 13.871H30.7517V43.2745H36.3686V27.2844C36.3686 21.5436 37.9059 20.2548 38.7344 19.4353C41.0993 17.0917 44.1738 17.2681 44.1738 17.2681C48.904 17.2681 50.9736 19.9038 50.9736 24.7657V43.2745H56.5896V22.9495C56.5896 13.5195 47.4254 12.9921 45.3562 12.9921C42.3999 12.9921 38.2606 14.5149 36.3686 18.2055H36.2505L36.251 13.871Z" fill="#FCA400"/>
<path fill-rule="evenodd" clip-rule="evenodd" d="M66.8676 43.275V13.8714H61.2507V43.275H66.8676ZM60.7183 7.0178H67.4V0.984985H60.7183V7.0178Z" fill="#FCA400"/>
<path fill-rule="evenodd" clip-rule="evenodd" d="M95.4856 23.3014C95.1899 16.9175 90.4602 12.993 84.1927 12.993C74.7918 12.993 70.4163 20.1977 70.4163 28.8081C70.4163 37.4766 74.2003 44.1539 83.7203 44.1539C90.283 44.1539 95.2494 40.1123 95.7223 33.4932H90.1054C89.8106 37.7106 87.5043 40.1123 83.7789 40.1123C78.3982 40.1123 76.3295 35.4854 76.3295 28.5732C76.3295 21.662 78.3982 17.035 83.7789 17.035C87.7991 17.035 89.5739 19.6117 89.8687 23.3018H95.4856V23.3014Z" fill="#FCA400"/>
<path fill-rule="evenodd" clip-rule="evenodd" d="M124.398 29.6271V26.8744C124.398 18.7324 120.2 13.1681 111.33 12.9926C101.929 12.9926 97.5539 20.1972 97.5539 28.8077C97.5539 37.4762 101.339 44.1534 110.858 44.1534C117.952 44.1534 123.156 40.8144 124.043 34.1371H118.13C117.479 38.4136 115.291 40.1119 110.916 40.1119C105.18 40.1119 103.052 34.7815 103.466 29.6271H124.398ZM103.466 25.7616C103.466 20.9586 106.245 17.0341 110.916 17.0341C116.356 17.0341 118.602 20.8416 118.484 25.7616H103.466Z" fill="#FCA400"/>
<path fill-rule="evenodd" clip-rule="evenodd" d="M135.758 43.275V17.7365H142.616V13.871H135.758V9.18548C135.58 5.96433 137.413 5.14396 140.606 5.14396C141.552 5.14396 142.498 5.26096 143.444 5.31991V0.692024C142.084 0.458021 140.784 0.106564 139.423 0.106564C135.225 0.106564 130.318 1.80535 130.14 8.24766V13.871H124.346V17.7365H130.14V43.275H135.758Z" fill="#FCA400"/>
</svg>
