<svg width="257" height="62" viewBox="0 0 257 62" fill="none" xmlns="http://www.w3.org/2000/svg">
<path d="M217.999 1.53493C216.653 1.75297 215.347 2.09038 214.09 2.53508C214.342 2.81108 214.612 3.07331 214.9 3.32005C215.886 2.65386 216.921 2.05652 217.999 1.53493ZM240.247 10.8983C239.102 9.28821 237.757 7.83247 236.251 6.56894C235.511 7.2139 234.718 7.80951 233.88 8.35176C235.012 9.74783 236 11.269 236.82 12.8911C238.013 12.2927 239.157 11.6265 240.247 10.8983ZM235.389 5.8798C233.83 4.69374 232.116 3.70393 230.284 2.94822C229.983 3.30742 229.656 3.64712 229.305 3.96443C230.713 5.00991 232.009 6.20113 233.173 7.51572C233.955 7.01823 234.696 6.47082 235.389 5.8798ZM229.205 2.53508C227.948 2.09038 226.641 1.75297 225.295 1.53493C226.373 2.05652 227.409 2.65386 228.395 3.32005C228.683 3.07331 228.953 2.81108 229.205 2.53508ZM221.647 0C234.988 0 245.793 10.9528 245.793 24.4539C245.793 37.955 234.988 48.9079 221.647 48.9079C208.307 48.9079 197.501 37.9545 197.501 24.4539C197.501 10.9534 208.307 0 221.647 0ZM225.671 4.97031C226.314 4.70923 226.92 4.3879 227.479 4.01493C226.202 3.18118 224.843 2.46679 223.415 1.88782C224.22 2.8719 224.973 3.90073 225.671 4.97031ZM222.188 5.73176C223.03 5.69044 223.843 5.55387 224.614 5.33411C223.868 4.20944 223.057 3.13241 222.188 2.10759V5.73176ZM225.223 6.2849C224.265 6.58787 223.246 6.77207 222.189 6.81969V10.795C223.944 10.7531 225.641 10.5076 227.254 10.0852C226.654 8.77178 225.975 7.50252 225.223 6.2849ZM228.434 4.67136C227.768 5.15565 227.039 5.56994 226.259 5.9016C227.016 7.14561 227.7 8.4407 228.304 9.78054C229.688 9.34158 231.001 8.76949 232.225 8.08207C231.085 6.8151 229.814 5.67093 228.434 4.67136ZM217.623 4.97031C218.321 3.90073 219.074 2.8719 219.88 1.88782C218.452 2.46679 217.093 3.18118 215.816 4.01493C216.374 4.3879 216.98 4.70923 217.623 4.97031ZM221.106 2.10759C220.237 3.13241 219.427 4.20944 218.68 5.33411C219.451 5.55387 220.264 5.69044 221.106 5.73176V2.10759ZM208.101 43.1801C208.633 43.3798 209.392 43.6105 210.328 43.5514C211.564 43.4739 213.187 42.8525 214.732 42.2706C216.278 41.6882 220.334 40.7179 221.3 40.524C222.266 40.33 222.498 39.9031 222.729 39.4762C222.961 39.0493 222.807 38.4284 222.691 37.6905C222.575 36.9532 222.382 35.7883 222.343 34.7016C222.304 33.6148 222.266 32.6439 220.566 31.5571C218.866 30.4703 217.784 29.189 217.9 28.2187C218.016 27.2484 219.136 26.433 219.136 26.433C219.136 26.433 218.865 25.6182 218.982 25.2687C219.098 24.9193 220.141 25.0358 220.141 25.0358C220.141 25.0358 219.986 23.8715 220.064 23.5605C220.141 23.2501 220.681 23.405 220.681 23.405L221.183 23.0946C221.183 23.0946 220.797 22.2792 220.643 21.7364C220.488 21.193 220.797 20.7661 221.415 20.7661C222.033 20.7661 222.806 20.688 224.66 20.2617C226.515 19.8348 227.326 16.2634 231.691 15.5651C236.057 14.8662 239.457 18.2046 239.457 18.2046C239.457 18.2046 246.411 24.7644 241.852 32.1785C237.895 38.6126 232.85 36.9916 232.85 36.9916C232.85 36.9916 231.961 37.4185 232.386 39.2817C232.811 41.1448 235.477 42.6976 235.477 42.6976L235.692 42.798C241.092 38.5507 244.566 31.9117 244.566 24.4539C244.566 19.7889 243.196 15.436 240.857 11.7969C239.723 12.5555 238.53 13.2481 237.289 13.8701C237.614 14.5873 237.907 15.3218 238.166 16.0729C237.714 15.8061 237.239 15.5685 236.749 15.3654C236.611 15.0194 236.466 14.6774 236.313 14.3394C235.935 14.5139 235.553 14.6814 235.167 14.8421C234.417 14.6562 233.654 14.5529 232.903 14.546C233.909 14.1948 234.89 13.7989 235.843 13.3599C235.037 11.7705 234.063 10.2826 232.944 8.92098C231.633 9.67611 230.222 10.3027 228.735 10.783C229.295 12.1337 229.774 13.5269 230.168 14.9563C229.791 15.0705 229.455 15.2013 229.152 15.3436C228.755 13.885 228.266 12.466 227.691 11.0917C225.94 11.5651 224.094 11.8382 222.186 11.8818V16.4401C224.306 16.4029 226.375 16.1762 228.371 15.7791C227.738 16.1957 227.271 16.6708 226.848 17.1459C225.326 17.3709 223.769 17.5005 222.186 17.5275V19.0969C221.944 19.1141 221.687 19.1227 221.413 19.1227C221.304 19.1227 221.201 19.129 221.104 19.1405V11.8818C220.25 11.8623 219.408 11.7969 218.581 11.6879C218.327 11.2604 218.03 10.8455 217.695 10.4502C218.801 10.6493 219.94 10.7669 221.104 10.7945V6.81912C220.047 6.77207 219.028 6.58788 218.069 6.28433C217.485 7.23054 216.945 8.20716 216.452 9.2119C216.173 8.97607 215.88 8.75228 215.575 8.54226C216.025 7.63909 216.512 6.7583 217.034 5.90103C216.254 5.5688 215.524 5.15508 214.859 4.67079C213.898 5.36624 212.991 6.13228 212.143 6.96085C211.717 6.85126 211.286 6.77092 210.851 6.72272C211.819 5.71856 212.868 4.79473 213.988 3.96385C213.637 3.64596 213.31 3.30627 213.009 2.94707C211.177 3.70334 209.463 4.69259 207.903 5.87922C202.555 9.94694 199.015 16.3288 198.743 23.5542C198.883 23.4257 201.049 21.4569 202.058 21.232C203.101 20.999 203.912 19.1749 203.912 18.8639C203.912 18.5529 201.941 13.7289 204.337 10.5185C206.424 7.72401 209.63 6.28778 214.691 9.12124C219.752 11.9547 218.786 16.0305 217.82 17.3502C216.854 18.67 216.43 19.0969 216.584 19.7177C216.738 20.3392 217.202 20.8045 217.009 21.115C216.815 21.4254 215.85 21.5419 215.85 21.5419C215.85 21.5419 216.082 22.2017 216.043 22.4347C216.004 22.6677 215.463 22.6287 215.463 22.6287C215.463 22.6287 215.579 23.0171 215.502 23.2885C215.425 23.5605 214.536 23.405 214.536 23.405C214.536 23.405 214.729 25.0742 212.527 24.8022C210.325 24.5303 209.861 23.8319 209.204 24.3363C208.548 24.8407 208.664 25.5006 209.127 27.4417C209.591 29.3824 209.784 33.7691 209.784 33.7691L211.117 34.7199C211.117 34.7199 213.146 34.8169 213.628 34.8559C214.111 34.8949 214.652 35.0309 214.961 35.0499C215.27 35.0694 216.545 34.06 217.221 33.9051C217.897 33.7496 218.11 33.9441 218.11 34.1186C218.11 34.293 217.917 34.7784 217.917 34.7784C217.917 34.7784 218.998 34.3711 219.385 34.468C219.771 34.565 219.984 34.9724 219.694 36.3702C219.404 37.7674 218.805 38.6603 217.588 38.7962C216.371 38.9322 215.56 38.3498 214.691 38.3693C213.822 38.3888 211.252 39.5921 209.186 39.4171C207.119 39.2421 206.578 38.3693 206.578 38.3693C206.578 38.3693 205.863 39.6891 205.766 40.213C205.701 40.5664 205.75 40.9825 205.789 41.2154C206.517 41.9201 207.289 42.5765 208.101 43.1801Z" fill="black"/>
<path d="M210.096 50.9265C208.821 51.1595 205.672 50.771 203.818 48.5005C202.24 46.5679 201.346 41.9212 201.597 41.7273C201.847 41.5333 204.204 43.416 206.638 45.6475C209.072 47.8796 211.371 50.6936 210.096 50.9265ZM204.378 51.315C204.185 51.587 200.797 52.5573 197.153 50.4221C193.445 48.2486 191.644 44.2055 191.706 44.0173C191.822 43.6679 194.294 44.2503 198.97 46.8898C203.644 49.5293 204.649 51.043 204.378 51.315ZM201.21 46.6959C200.939 46.8123 197.617 45.1821 196.651 41.0289C195.686 36.8757 196.952 34.0032 197.231 33.8868C197.695 33.6928 199.163 36.1384 200.244 39.9031C201.326 43.6679 201.635 46.5794 201.21 46.6959ZM197.037 44.9297C196.632 45.0657 193.02 43.5514 190.412 40.3886C188.189 37.6922 187.148 33.2269 187.36 33.0909C187.572 32.9549 190.605 35.5944 193.078 38.4089C195.55 41.2229 197.444 44.7937 197.037 44.9297ZM194.739 38.8938C194.198 38.7773 192.634 36.987 192.846 32.5475C192.981 29.714 195.186 26.0899 195.589 26.1042C196.13 26.1237 196.381 28.7512 196.149 32.1986C195.918 35.6524 195.28 39.0103 194.739 38.8938ZM186.491 22.2419C186.896 21.9315 188.77 25.1528 189.948 27.8314C190.948 30.1042 192.228 34.9931 191.706 35.1675C191.376 35.2782 188.693 33.5953 187.186 29.5195C185.972 26.2356 186.282 22.4014 186.491 22.2419ZM195.55 18.8645C195.918 18.9615 195.763 21.8919 194.662 24.9589C193.561 28.0253 192.054 30.7423 191.726 30.5483C191.397 30.3544 190.779 26.7251 191.822 23.9691C192.866 21.2131 195.184 18.7675 195.55 18.8645ZM191.667 21.2905C191.378 20.9216 191.232 17.6314 193.425 14.8277C195.55 12.1108 197.405 11.2564 197.753 11.4314C198.1 11.6064 196.942 14.7113 195.512 16.9044C194.071 19.1152 191.907 21.5952 191.667 21.2905ZM191.03 15.8176C190.535 15.5691 190.574 13.0369 191.822 10.4416C192.923 8.1515 195.299 5.9389 195.705 6.0944C196.111 6.24932 195.25 9.53666 194.333 11.6259C193.542 13.4305 191.455 16.031 191.03 15.8176ZM189.041 12.0717C189.427 11.9937 190.431 14.8662 190.624 18.748C190.818 22.6292 190.431 25.6572 190.161 25.6572C189.891 25.6572 187.901 23.988 187.785 19.8738C187.669 15.759 188.654 12.1498 189.041 12.0717ZM229.22 61.9895C228.64 62.1835 228.447 59.6604 223.618 56.3611C222.848 55.8354 222.129 55.3953 221.466 55.027C220.905 55.3506 220.309 55.7241 219.677 56.1556C214.848 59.455 214.655 61.9781 214.075 61.7841C213.495 61.5902 212.568 60.5418 212.568 60.5418C212.568 60.5418 215.864 56.4666 219.815 54.1984C217.505 53.1661 216.2 53.1397 216.2 53.1397C216.2 53.1397 214.529 55.9341 209.361 55.6237C204.184 55.3133 201.442 54.1485 200.592 53.5666C200.387 53.4266 199.51 52.5188 206.078 51.8974C212.245 51.3144 217.118 51.6897 221.399 53.4082C225.801 51.5141 230.81 51.0855 237.216 51.6914C243.784 52.3123 242.907 53.2206 242.702 53.3606C241.853 53.943 239.11 55.1073 233.932 55.4177C228.765 55.7276 227.094 52.9337 227.094 52.9337C227.094 52.9337 225.636 52.9635 223.074 54.1789C227.202 56.3903 230.726 60.7472 230.726 60.7472C230.726 60.7472 229.799 61.795 229.22 61.9895ZM233.199 50.7211C231.924 50.4881 234.223 47.6742 236.656 45.4421C239.09 43.21 241.447 41.3273 241.698 41.5218C241.949 41.7158 241.055 46.3625 239.476 48.295C237.622 50.5656 234.474 50.9541 233.199 50.7211ZM238.917 51.109C238.646 50.837 239.65 49.3233 244.326 46.6844C249 44.0449 251.472 43.4624 251.588 43.8119C251.651 43.9995 249.85 48.0426 246.141 50.2167C242.498 52.3513 239.11 51.381 238.917 51.109ZM242.084 46.4899C241.66 46.3734 241.969 43.4625 243.05 39.6971C244.132 35.9318 245.6 33.4868 246.063 33.6808C246.342 33.7972 247.609 36.6697 246.643 40.8229C245.677 44.9761 242.355 46.6063 242.084 46.4899ZM246.257 44.7237C245.852 44.5877 247.744 41.0169 250.217 38.2024C252.689 35.3878 255.723 32.7483 255.935 32.8843C256.148 33.0203 255.106 37.4857 252.883 40.182C250.275 43.346 246.662 44.8597 246.257 44.7237ZM248.556 38.6878C248.015 38.8043 247.378 35.4464 247.146 31.992C246.914 28.5452 247.165 25.9171 247.706 25.8982C248.109 25.8839 250.314 29.508 250.449 32.3415C250.661 36.781 249.097 38.5713 248.556 38.6878ZM256.804 22.0359C257.013 22.196 257.322 26.0296 256.108 29.3141C254.602 33.3898 251.918 35.0722 251.588 34.9621C251.066 34.7871 252.346 29.8982 253.346 27.6259C254.524 24.9468 256.398 21.7255 256.804 22.0359ZM247.744 18.6591C248.111 18.5621 250.429 21.0071 251.472 23.7637C252.516 26.5196 251.897 30.149 251.569 30.3429C251.241 30.5369 249.734 27.8199 248.633 24.7535C247.532 21.6865 247.378 18.756 247.744 18.6591ZM251.627 21.0851C251.388 21.3898 249.225 18.9098 247.783 16.6989C246.354 14.5058 245.195 11.4004 245.543 11.226C245.89 11.0509 247.745 11.9053 249.87 14.6223C252.062 17.4259 251.917 20.7162 251.627 21.0851ZM252.265 15.6121C251.84 15.8256 249.753 13.2251 248.961 11.4199C248.045 9.33125 247.184 6.04391 247.59 5.8884C247.995 5.73348 250.371 7.94607 251.472 10.2361C252.72 12.8315 252.759 15.3631 252.265 15.6121ZM254.254 11.8663C254.64 11.9438 255.626 15.5536 255.51 19.6684C255.394 23.7826 253.404 25.4518 253.134 25.4518C252.864 25.4518 252.478 22.4244 252.671 18.5426C252.863 14.6608 253.868 11.7883 254.254 11.8663Z" fill="black"/>
<path fill-rule="evenodd" clip-rule="evenodd" d="M24.8593 36.672C24.8593 37.562 24.7851 41.9338 23.4578 45.4168C21.9821 49.2705 18.0734 50.7532 15.1961 50.7532C8.48329 50.7532 7.00754 46.0107 7.00754 39.5623V17.551H0V42.4531C0 49.9384 4.42554 55.8676 12.1721 55.8676C17.3349 55.8676 22.0569 53.9407 24.8593 49.2711H25.0067V54.7561H31.8669V17.5516H24.8593V36.672Z" fill="black"/>
<path fill-rule="evenodd" clip-rule="evenodd" d="M45.2258 17.551H38.365V54.7555H45.3725V34.5231C45.3725 27.2593 47.2903 25.6285 48.324 24.5917C51.2744 21.6262 55.11 21.8494 55.11 21.8494C61.0113 21.8494 63.5933 25.1844 63.5933 31.3362V54.7555H70.5997V29.0381C70.5997 17.1063 59.1666 16.439 56.5852 16.439C52.8969 16.439 47.7329 18.3658 45.3725 23.0355H45.2252L45.2258 17.551Z" fill="black"/>
<path fill-rule="evenodd" clip-rule="evenodd" d="M83.4222 54.7561V17.5516H76.4147V54.7561H83.4222ZM75.7505 8.87966H84.0864V1.24631H75.7505V8.87966Z" fill="black"/>
<path fill-rule="evenodd" clip-rule="evenodd" d="M119.125 29.4834C118.756 21.4059 112.856 16.4401 105.037 16.4401C93.3082 16.4401 87.8495 25.5562 87.8495 36.4511C87.8495 47.4194 92.5703 55.8682 104.447 55.8682C112.635 55.8682 118.831 50.7544 119.421 42.3791H112.413C112.045 47.7155 109.168 50.7544 104.52 50.7544C97.8074 50.7544 95.2266 44.8998 95.2266 36.1539C95.2266 27.409 97.8074 21.5545 104.52 21.5545C109.536 21.5545 111.75 24.8149 112.118 29.4839H119.125V29.4834Z" fill="black"/>
<path fill-rule="evenodd" clip-rule="evenodd" d="M155.195 37.4874V34.0044C155.195 23.7023 149.958 16.6617 138.893 16.4396C127.164 16.4396 121.706 25.5557 121.706 36.4505C121.706 47.4189 126.428 55.8676 138.303 55.8676C147.154 55.8676 153.646 51.6427 154.752 43.1939H147.375C146.564 48.6049 143.834 50.7538 138.375 50.7538C131.22 50.7538 128.565 44.0093 129.081 37.4874H155.195ZM129.081 32.5963C129.081 26.5191 132.548 21.5534 138.375 21.5534C145.162 21.5534 147.965 26.371 147.817 32.5963H129.081Z" fill="black"/>
<path fill-rule="evenodd" clip-rule="evenodd" d="M169.368 54.7561V22.4422H177.924V17.551H169.368V11.6224C169.146 7.5467 171.433 6.50868 175.416 6.50868C176.597 6.50868 177.777 6.65672 178.957 6.73132V0.875622C177.26 0.579537 175.638 0.134836 173.941 0.134836C168.703 0.134836 162.582 2.28432 162.36 10.4358V17.551H155.131V22.4422H162.36V54.7561H169.368Z" fill="black"/>
</svg>
