<svg width="199" height="61" viewBox="0 0 199 61" fill="none" xmlns="http://www.w3.org/2000/svg">
<path d="M44.3232 22.2496L44.4109 22.0302L44.1478 21.5914L44.2794 21.2403L44.4986 20.8892L45.1123 20.582L45.3754 20.9331L45.1123 21.0647L45.2439 21.3281L45.3754 21.4158L45.2877 21.5036L44.6301 21.0647L44.4109 21.4158L44.8931 22.0302L44.6739 22.4252L44.0163 22.6446L43.9725 22.3374L44.3232 22.2496ZM64.5777 26.9453C64.0516 24.2683 62.561 21.8547 60.4567 20.1871C59.0538 19.0022 58.6592 18.695 58.1331 17.9489C60.1498 24.795 63.3063 24.8388 64.6654 30.0173C64.8846 27.3403 70.4086 22.9079 65.1915 15.4475C66.5067 18.9144 64.49 23.654 64.5777 26.9453ZM54.9327 11.8489C56.774 17.9489 61.1581 16.5885 64.0955 22.9518C63.7886 20.8014 66.2437 13.9554 60.5005 9.74245C62.4295 12.0683 61.8596 16.4568 62.9556 19.3094C60.7636 14.5259 55.9849 13.736 54.9327 11.8489ZM23.3672 18.1683C23.4111 18.0367 23.4549 17.8611 23.4549 17.7295C23.2795 17.7734 23.148 17.8173 22.9727 17.7734L23.3672 18.1683ZM56.1603 11.1906C57.4755 12.7705 59.7991 13.6921 61.1143 15.2719C60.1498 10.6201 56.5548 6.75828 52.3023 5.83669C54.4066 7.41655 54.845 9.56691 56.1603 11.1906ZM38.6239 7.76762L39.1938 7.81151L39.413 7.59209L38.9746 7.37266L37.7909 7.32878L37.484 7.5482L36.8264 7.46043V7.63597C37.2648 7.67985 37.7032 7.72374 38.0539 7.76762H38.6239ZM151.646 22.4252C151.646 18.6511 153.663 15.6669 156.907 15.6669C159.669 15.6669 161.992 17.2468 161.992 22.4691V23.0835H154.671C154.671 25.2338 155.548 26.5504 157.915 26.5504C159.756 26.5504 160.677 25.9799 161.247 25.5849L161.335 27.9547C160.151 28.4813 158.836 28.7885 157.564 28.7885C153.443 28.7885 151.646 25.8482 151.646 22.4252ZM154.583 21.1525H158.967C158.967 18.9144 158.222 17.7734 156.819 17.7734C155.241 17.7295 154.583 19.441 154.583 21.1525ZM40.0706 15.3597C38.9746 14.877 37.7909 14.5698 36.6072 14.3942V15.1842C37.7032 15.3597 38.7992 15.6669 39.8076 16.0619C39.9391 15.7986 40.0268 15.5791 40.0706 15.3597ZM93.4251 22.2058C93.4689 17.0273 96.4501 15.6669 99.0367 15.6669C101.623 15.6669 104.605 17.0273 104.605 22.2058C104.605 27.5597 101.623 28.7885 99.0367 28.7885C96.4501 28.7446 93.4251 27.5158 93.4251 22.2058ZM96.5816 22.2058C96.5816 24.3561 97.0639 26.5942 99.0367 26.5942C101.01 26.5942 101.492 24.3122 101.492 22.2058C101.492 20.0554 101.053 17.8173 99.0367 17.8173C97.0639 17.8612 96.5816 20.0993 96.5816 22.2058ZM178.696 10.0496H175.671V28.5691H178.696V10.0496ZM117.099 10.0496H114.03V28.5691H117.099V10.0496ZM60.2813 24.8827C59.9744 31.0705 63.4817 32.1676 63.2187 37.5655C64.6654 33.7914 70.4086 32.7381 68.2604 23.6978C68.3042 27.1648 65.2353 29.1396 63.9201 34.5813C64.1832 28.4813 61.8158 27.823 60.2813 24.8827ZM33.4068 18.6511C33.8891 18.5194 34.3275 18.4317 34.8097 18.3L35.7304 18.0806C35.7742 15.7986 35.9934 6.1 35.9934 6.01223C36.2126 4.43237 37.7909 0 34.6344 0C31.6093 0 32.8807 4.52014 33.0999 6.01223C33.0999 6.1 33.3191 16.2813 33.4068 18.6511ZM36.3003 32.4748H36.2126C36.2126 32.6504 36.1688 33.4403 36.1688 33.8353C36.6072 33.6158 36.9141 33.3964 36.9141 33.0453C36.9579 32.8698 36.6949 32.6504 36.3003 32.4748ZM32.7054 25.4532C32.6615 24.6633 32.6615 23.8295 32.6615 23.6978H32.6177C31.9601 24.0928 31.6093 24.5755 31.5655 25.2338C31.5655 25.8921 31.9601 26.3309 32.6615 26.7698V26.4626L32.2231 25.9799L32.4423 25.541L32.7054 25.4532ZM29.9872 9.8741C30.7764 9.47914 31.5655 9.17194 32.3985 8.90863C32.3985 9.74245 32.4423 10.664 32.4423 11.6734C31.6093 11.9806 30.864 12.5511 30.3379 13.2532C29.8118 13.9554 28.0582 15.0964 26.8745 15.7547C25.8223 16.3691 25.2524 16.4129 24.9893 16.3252C24.7701 16.5007 24.2002 16.9835 23.5864 18.4755C23.6741 18.1245 23.7618 17.7295 23.8933 17.3784C23.8933 17.3784 23.1042 17.7295 22.5343 17.4662C23.148 17.554 23.7618 17.3345 24.1564 16.8518C24.3756 16.6324 24.5071 16.3252 24.5948 16.018C24.5948 16.018 24.5071 15.623 24.9017 14.9209C25.1647 14.482 25.2085 13.6043 25.5593 13.0777C25.91 12.5511 26.3046 12.0683 26.6991 11.5856C27.9267 10.1813 29.1542 10.1374 29.9872 9.8741ZM28.3651 12.3317L27.5321 12.2878L26.7868 13.5165L27.4006 13.3849L28.3651 12.3317ZM34.6782 34.3619C34.8974 34.2741 35.1166 34.2302 35.3358 34.1424C35.3358 33.4842 35.555 24.4439 35.555 22.7763C34.8536 22.9518 34.1521 23.1273 33.4506 23.3906C33.4945 24.6194 33.6699 33.6597 33.6699 34.6252C34.0644 34.5374 34.3713 34.4058 34.6782 34.3619ZM27.576 25.146C27.576 28.4813 30.2503 29.7101 32.8369 30.5439C32.8369 29.5784 32.793 28.613 32.7492 27.6475C31.5655 27.1209 30.7764 26.3748 30.7764 25.1899C30.7764 24.005 31.5217 23.3468 32.6177 22.8201C32.8369 22.7324 33.1438 22.6007 33.4506 22.513C34.1083 22.2935 34.8536 22.118 35.5989 21.8986L36.4318 21.6791C40.0706 20.8014 44.1917 19.6604 44.1917 14.7453C44.1917 12.2878 42.3942 9.56691 38.0539 8.60144C37.6155 8.51367 37.1771 8.46978 36.7387 8.4259C36.7387 8.77698 36.6949 9.65468 36.6949 9.65468C36.6949 9.91799 36.651 10.9273 36.651 11.1029C36.9141 11.1468 37.221 11.1906 37.484 11.1906C40.0268 11.805 40.9475 13.2532 40.9475 14.6576C40.9475 16.9835 38.9308 17.8612 36.5195 18.5633L35.6865 18.7827C34.9412 18.9583 34.1521 19.1338 33.4068 19.3532C33.1438 19.441 32.8807 19.4849 32.5738 19.5727C29.8995 20.4942 27.576 21.8108 27.576 25.146ZM34.2398 38.3554C34.0206 38.4432 33.8014 38.5309 33.8014 38.5748C33.8014 38.5748 34.0206 49.0194 34.0206 49.195C34.0206 51.3453 35.1166 51.3453 35.1166 49.195C35.1166 49.0633 35.3358 37.9165 35.3358 37.9165C35.3358 37.9165 35.0289 38.0043 34.8536 38.0921C34.7659 38.136 34.459 38.2676 34.2398 38.3554ZM40.4214 33.0892C40.4214 30.6317 38.4485 29.6662 36.3003 28.9201C36.2565 29.7101 36.2565 30.8072 36.2126 31.5971C37.1333 31.9482 37.7471 32.387 37.7471 33.0892C37.7471 33.9669 36.8264 34.4496 36.1688 34.713C35.9057 34.8007 35.5112 34.9324 35.3358 34.9763C34.8097 35.1518 34.2398 35.3273 33.7137 35.5029C33.4507 35.5906 33.1876 35.7223 32.8807 35.854C32.0039 36.3367 31.0394 37.0388 31.0394 38.2676C31.0394 39.6281 32.0039 40.3302 33.0122 40.9007C33.0122 40.6813 32.9684 38.6187 32.9684 38.5748C33.0122 38.1799 33.363 37.9165 33.7137 37.741C34.2398 37.5216 34.7659 37.3022 35.292 37.1266C35.5989 37.0389 35.8181 36.9072 36.125 36.8633C38.0978 36.2928 40.4214 35.5468 40.4214 33.0892ZM38.8431 45.377C39.0623 42.6561 37.5279 41.5151 36.0373 40.7252L35.9934 42.305C37.221 42.8755 38.3608 43.7532 38.8431 45.377ZM119.554 48.4489C119.554 49.195 119.642 49.941 119.73 50.6871H116.968C116.836 50.1166 116.748 49.546 116.792 48.9755H116.748C115.959 50.0288 115.039 50.9065 113.197 50.9065C111.225 50.9065 109.427 49.546 109.427 47.1763C109.427 43.7094 112.233 42.8317 116.135 42.8317H116.748V42.3489C116.748 41.0763 116.135 39.8914 114.381 39.8914C113.11 39.9353 111.926 40.3741 110.918 41.164L110.698 38.7065C111.97 38.0482 113.329 37.741 114.732 37.741C118.677 37.741 119.598 39.6719 119.598 42.8755L119.554 48.4489ZM116.748 45.2014L116.705 44.4554H116.442C113.855 44.4554 112.277 44.982 112.277 46.8691C112.189 47.8784 112.978 48.7561 113.986 48.8439H114.206C116.047 48.8439 116.748 47.4835 116.748 45.2014ZM141.869 20.977H146.999V28.6129H150.155V11.3223H146.999V18.3439H141.869V11.3223H138.669V28.5691H141.869V20.977ZM134.416 35.5468H137.617V32.5187H134.416V35.5468ZM105.306 38.0043H108.068C108.024 38.6626 107.98 39.3209 107.98 40.023V49.3705C107.98 53.364 106.753 56.1727 102.106 56.1727C100.615 56.1727 99.1244 55.9094 97.7215 55.3827L97.853 52.6619C98.9929 53.3201 100.308 53.7151 101.623 53.759C104.517 53.759 104.955 51.7403 104.955 49.7655V48.5367H104.911C104.385 49.5022 103.552 50.6871 101.58 50.6871C99.8259 50.6871 97.1516 49.5022 97.1516 44.3676C97.1516 40.8568 98.423 37.7849 101.755 37.7849C103.596 37.7849 104.473 38.8381 105.087 39.9353H105.174C105.174 39.277 105.262 38.6626 105.306 38.0043ZM104.999 44.1921C104.999 41.5151 103.991 40.1108 102.544 40.1108C100.922 40.1547 100.308 41.6468 100.308 44.1921C100.308 47.1763 101.273 48.405 102.325 48.405C104.21 48.4489 104.999 47.0885 104.999 44.1921ZM134.504 50.6871H137.529V37.9604H134.504V50.6871ZM123.281 28.7885C120.124 28.7885 118.809 25.7604 118.809 22.2496C118.809 18.0806 120.475 15.6669 123.193 15.6669C124.596 15.5791 125.911 16.413 126.481 17.6856H126.525V10.0496H129.594V26.4187C129.594 27.1209 129.638 27.8669 129.682 28.5691H126.788C126.7 27.9108 126.7 27.2525 126.7 26.5942H126.613C126.13 27.6914 125.21 28.7885 123.281 28.7885ZM124.07 26.5065C125.867 26.5065 126.481 24.5317 126.481 22.1619C126.481 19.7043 125.824 17.905 124.114 17.905C122.404 17.905 121.834 19.5727 121.834 22.118C121.834 25.0583 122.316 26.5065 124.07 26.5065ZM111.882 18.4755C112.145 18.4755 112.452 18.5633 112.715 18.6072V15.7108C112.54 15.6669 112.364 15.623 112.189 15.623C110.26 15.623 109.296 17.159 108.945 18.1245H108.901C108.901 17.3345 108.813 16.5446 108.813 15.7986H106.051C106.139 16.5007 106.139 17.2029 106.139 17.905L106.183 28.5691H109.208V21.5914C109.208 19.2655 110.611 18.4755 111.882 18.4755ZM159.844 48.4489C159.844 49.195 159.932 49.941 160.019 50.6871H157.258C157.126 50.1166 157.038 49.546 157.082 48.9755H157.038C156.249 50.0288 155.329 50.9065 153.487 50.9065C151.514 50.9065 149.717 49.546 149.717 47.1763C149.717 43.7094 152.523 42.8317 156.425 42.8317H157.038V42.3489C157.038 41.0763 156.425 39.8914 154.671 39.8914C153.4 39.9353 152.216 40.3741 151.207 41.164L150.988 38.7065C152.26 38.0482 153.619 37.741 155.022 37.741C158.967 37.741 159.888 39.6719 159.888 42.8755V48.4489H159.844ZM156.994 44.4554H156.688C154.101 44.4554 152.523 44.982 152.523 46.8691C152.435 47.8784 153.224 48.7561 154.233 48.8439H154.452C156.293 48.8439 156.951 47.4835 156.951 45.2014V44.4554H156.994ZM128.322 37.7849C126.262 37.7849 125.385 39.1453 124.947 39.9353H124.903C124.903 39.277 124.815 38.6187 124.815 37.9604H121.922C122.009 38.6626 122.009 39.3648 122.009 40.0669V50.6871H125.034V43.2705C125.034 41.6468 125.604 40.2863 127.183 40.2863C128.454 40.2863 128.936 41.1201 128.936 43.0511V50.6871H132.005V42.4806C132.093 39.9353 131.216 37.7849 128.322 37.7849ZM148.445 40.5935V37.9604H140.116V40.2863H145.377L139.94 48.054H139.896V50.6871H148.577V48.3612H143.053L148.445 40.5935ZM191.804 21.1525C191.804 19.5288 192.374 18.1683 193.952 18.1683C195.224 18.1683 195.706 19.0022 195.706 20.9331V28.5691H198.731V20.4065C198.731 17.8173 197.854 15.7108 194.961 15.7108C193.076 15.7108 192.374 16.764 191.804 17.554H191.717V10.0935H188.691V28.6129H191.717V21.1525H191.804ZM185.228 12.2878L182.203 13.2532H182.159V15.8863H180.142V18.1245H182.159V25.0583C182.159 27.7353 183.431 28.7885 185.71 28.7885C186.412 28.7885 187.113 28.6568 187.771 28.3935V26.2432C187.42 26.4187 187.026 26.5065 186.631 26.5065C185.754 26.5065 185.228 26.1115 185.228 24.7511V18.1245H187.771V15.8863H185.228V12.2878ZM195.311 37.7849C193.251 37.7849 192.374 39.1453 191.936 39.9353H191.892C191.892 39.277 191.804 38.6187 191.804 37.9604H188.911C188.998 38.6626 188.998 39.3648 188.998 40.0669L189.042 50.6871H192.067V43.2705C192.067 41.6468 192.637 40.2863 194.215 40.2863C195.487 40.2863 195.969 41.1201 195.969 43.0511V50.6871H198.994V42.4806C199.082 39.9353 198.205 37.7849 195.311 37.7849ZM186.587 44.2799C186.587 49.6338 183.606 50.8626 181.019 50.8626C178.433 50.8626 175.408 49.6338 175.408 44.2799C175.452 39.1453 178.433 37.741 181.019 37.741C183.606 37.7849 186.587 39.1014 186.587 44.2799ZM183.431 44.3237C183.431 42.1734 182.992 39.9353 180.975 39.9353C178.959 39.9353 178.52 42.1734 178.52 44.3237C178.52 46.4741 179.003 48.7122 180.975 48.7122C182.992 48.7561 183.431 46.4741 183.431 44.3237ZM172.996 28.5691H170.234C170.103 27.9986 170.015 27.4281 170.059 26.8576H170.015C169.226 27.9108 168.305 28.7885 166.464 28.7885C164.491 28.7885 162.694 27.4281 162.694 25.0583C162.694 21.5914 165.5 20.7137 169.401 20.7137H170.015V20.2309C170.015 18.9583 169.401 17.7734 167.648 17.7734C166.376 17.8173 165.193 18.2561 164.184 19.046L163.965 16.5885C165.237 15.9741 166.596 15.623 167.999 15.623C171.944 15.623 172.865 17.554 172.865 20.7576V26.3309C172.821 27.077 172.909 27.823 172.996 28.5691ZM169.971 22.3374H169.665C167.078 22.3374 165.5 22.864 165.5 24.7511C165.412 25.7604 166.201 26.6381 167.209 26.7259H167.429C169.27 26.7259 169.928 25.3655 169.928 23.0835L169.971 22.3374ZM170.585 35.5468H173.742V32.5187H170.585V35.5468ZM14.9059 38.882L15.6074 39.9791L15.6512 39.8036L15.3005 39.0137L14.9059 38.882ZM170.717 50.6871H173.742V37.9604H170.673L170.717 50.6871ZM166.201 34.4058L163.176 35.3712L163.132 37.9604H161.116V40.1986H163.132V47.1763C163.132 49.8094 164.404 50.8626 166.683 50.8626C167.385 50.9065 168.086 50.7748 168.744 50.4676V48.3173C168.393 48.5367 167.999 48.5806 167.604 48.5806C166.727 48.5806 166.201 48.1856 166.201 46.8252V40.2424H168.744V37.9604H166.201V34.4058ZM10.9602 17.9489C10.4341 18.695 10.0396 19.046 8.63667 20.1871C6.48846 21.8986 4.99787 24.2683 4.51562 26.9453C4.64714 23.6101 2.63046 18.8705 3.98953 15.4475C-1.27139 22.864 4.29641 27.2964 4.51562 30.0173C5.78701 24.8388 8.94356 24.795 10.9602 17.9489ZM8.85587 24.8827C7.32144 27.823 4.91019 28.5252 5.21707 34.5813C3.94569 29.1835 0.832978 27.1648 0.876819 23.7417C-1.27139 32.7381 4.42794 33.7914 5.91853 37.6094C5.65548 32.1676 9.11892 31.0705 8.85587 24.8827ZM9.46965 45.0259C7.89137 39.1014 10.6972 37.0388 8.54899 31.3338C8.32978 34.5374 6.18158 36.1173 7.62833 41.954C5.08555 36.995 1.18371 35.1079 0 31.7288C0.131523 41.0324 7.58449 42.4367 9.46965 45.0259ZM10.3026 38.3554C10.8287 40.8129 9.29428 44.4554 11.7494 47.8784C9.2066 45.0259 3.81416 44.2799 1.57827 39.9353C4.34025 50.5554 11.4863 48.3612 14.6867 50.6871C12.1001 46.8252 14.2483 44.2799 10.3026 38.3554ZM4.99787 23.0396C7.93521 16.6324 12.3193 17.9928 14.1606 11.9367C13.0646 13.7799 8.28594 14.5259 6.09389 19.3094C7.23376 16.4568 6.66383 12.1122 8.54899 9.74245C2.8935 14.0432 5.30476 20.8453 4.99787 23.0396ZM32.1354 5.00288C32.1793 5.2223 32.2231 5.39784 32.2231 5.61727C32.2231 5.61727 32.2669 5.70504 32.2669 5.7928C27.0499 6.31942 22.2274 8.60144 18.5009 12.2439L21.2629 15.0086C22.4904 13.8237 23.8495 12.8144 25.3401 11.9806C25.1209 12.2439 24.9017 12.5072 24.7263 12.8144C24.6386 12.9899 24.5948 13.1655 24.5071 13.3849C23.5426 14.0432 22.6219 14.7892 21.7451 15.5791L23.3234 17.159C23.1042 17.2468 22.8411 17.3345 22.6219 17.3784H22.4466L21.1752 16.1058C17.9748 19.4849 16.1773 23.9173 16.0896 28.5691H20.0353C20.123 24.9705 21.4821 21.5036 23.981 18.9144L23.6741 18.6072C23.8056 18.3 23.9372 18.0806 24.0248 17.905L24.5071 18.3878C26.6553 16.2813 29.4611 14.9209 32.4423 14.482V15.2719C29.6803 15.7108 27.0499 16.9835 25.0332 18.9144L27.7952 21.6791C27.006 22.6885 26.6553 23.9612 26.6991 25.2777C26.6553 27.2086 27.6636 29.0079 29.2858 29.9734C29.7242 30.2806 30.2064 30.5 30.6887 30.7194C30.864 31.0705 31.0832 31.3777 31.3463 31.6849L31.8724 31.1583C32.1354 31.246 32.3985 31.3777 32.7054 31.4216L31.9162 32.2115C32.1793 32.4309 32.4862 32.6065 32.8369 32.7381V33.5719C32.3108 33.3964 31.8285 33.0892 31.3901 32.7381L28.6281 35.5029C29.1981 36.0295 29.8995 36.4683 30.601 36.8194C30.4695 37.0388 30.3818 37.3022 30.3379 37.5655C29.505 37.1705 28.7597 36.6439 28.0582 36.0295L25.2962 38.7942C27.4444 40.8129 30.1626 41.9978 33.0999 42.3489V43.1389C30.4695 42.8755 27.9705 41.8662 25.8662 40.2424L25.9538 40.4619L25.7346 40.9885L24.3317 40.9007L23.8056 41.4712L22.7973 41.3835L22.0958 42.1295C25.1209 45.0259 29.0666 46.7813 33.2753 47.0885V47.8784C28.8912 47.5273 24.7263 45.7281 21.4821 42.7L18.7201 45.4648C27.6636 53.9784 41.7804 53.9784 50.6363 45.377L47.8743 42.6122C44.6301 45.6842 40.4214 47.5712 35.9496 47.8784V47.0885C36.9579 47.0007 38.0101 46.8691 39.0184 46.6058C39.2815 46.518 39.6322 46.2986 39.6761 45.4209C39.8953 41.9101 37.8347 40.6374 36.0811 39.8036L36.125 37.6532C37.221 37.3022 38.4485 36.995 39.413 36.3367L39.5007 36.2489L39.5884 36.205C40.6844 35.5029 41.342 34.2741 41.2982 33.0014C41.2982 29.9734 38.7554 28.7885 36.388 27.9986C36.388 26.6381 36.4757 23.9173 36.4757 23.9173L37.484 24.4439L37.8786 24.3561L38.2732 24.4439L38.2293 24.0928L38.0101 24.005V23.654L37.7909 23.6978L38.4485 22.8201L38.7116 22.9518L38.0101 23.6101L38.2293 23.5662L38.4924 23.3029L39.6322 23.0835L39.7199 23.1712L40.8159 22.0741L40.6406 21.9424H40.3775L39.983 22.0302L39.8953 22.118L39.6761 22.2058L39.6322 22.3374L39.3692 22.2935L38.9746 22.3813L38.7992 22.118L39.3692 21.8986L39.5884 22.118L39.7199 21.7669L40.0706 21.5914L40.2022 21.4597L39.983 21.2842C40.246 21.1964 40.509 21.0647 40.8159 20.9331C40.9913 21.1086 41.1667 21.2403 41.342 21.4158L44.1478 18.6511L43.9286 18.4755C44.1917 18.0806 44.4547 17.5978 44.5863 17.1151L44.937 17.7734L45.8576 16.8518L45.5508 16.3691L46.033 16.2813L45.0247 15.0086V14.5259C45.0247 13.2971 44.6739 12.0683 43.9286 11.059L44.2794 10.9712L44.4547 10.7518L46.5153 11.8489L47.1729 12.5511L47.4798 13.6482L47.3921 13.9554L47.8305 13.9115L48.1812 14.0871L48.0935 14.5698L50.724 11.9367C46.9537 8.25036 42.0435 5.92446 36.8264 5.44172C36.8702 5.2223 36.9141 5.04676 36.9579 4.78345L37.0018 4.6518C49.1896 5.92446 58.44 16.1496 58.44 28.4374C58.4838 41.6468 47.7866 52.3986 34.5905 52.3986C22.3589 52.4424 12.1439 43.1827 10.8726 31.0266C9.46964 18.1245 18.9831 6.36331 32.1354 5.00288ZM48.5319 15.5791C48.8827 15.9741 49.2334 16.413 49.5841 16.8079L50.5486 17.6417L51.3816 18.7827L52.0831 20.0115L51.9954 20.2309L51.7323 20.0993L51.6885 20.1871C53.0037 22.7763 53.7052 25.6727 53.7052 28.5691H57.6509C57.5632 22.6885 55.3273 17.0712 51.2501 12.8583L48.5319 15.5791ZM45.1562 18.8705C45.6823 19.441 46.1207 20.0554 46.5591 20.7137L46.7783 20.2309L46.9975 20.3626L46.866 20.977L47.2167 20.8453L47.3044 20.977L47.0413 21.1086L47.129 21.3281L47.0413 21.4158L46.9537 21.2842C47.0852 21.4597 47.1729 21.6353 47.3044 21.8547L47.6113 21.8108L47.8305 22.118V22.5568L48.1812 23.0396L48.0058 23.3029C48.1374 23.6101 48.5319 24.3122 48.5319 24.3122L48.8827 24.2683L48.7073 23.1273L48.6196 22.4691L48.2689 21.4597L47.7428 20.4504L46.866 19.1777L46.9537 18.9583L47.8305 19.5727L47.699 19.7043L47.4359 19.5727L48.5319 21.1525L49.0142 22.6885L49.1896 24.005L48.9704 25.2777L48.795 25.4971C49.0142 26.4626 49.1457 27.4719 49.1457 28.4813H53.0914C53.0476 25.8921 52.4776 23.3468 51.3816 20.977L50.724 21.1964L49.058 19.2655L48.795 19.3094L47.4798 18.4755L47.5674 18.0806L47.3482 17.8173L46.3837 17.7734L45.1562 18.8705ZM45.9015 27.2525L45.8576 27.4719L45.3754 27.5597L45.2 27.6914L45.1123 27.9108L44.7178 28.218L44.8055 28.5252H48.2689C48.2251 27.8669 48.1812 27.1209 48.0497 26.4626L47.5674 27.2525V26.9014L47.9182 25.8043C47.8305 25.5849 47.8305 25.4094 47.7428 25.1899L47.6113 25.7604L47.4359 26.1115L47.0413 26.3309L46.866 26.682L46.1645 26.7698L45.4631 27.1209L45.9015 27.2525ZM41.2543 24.4878L41.342 24.6633L41.5174 24.2683H41.3859L41.2543 24.005L41.5612 23.9173L41.912 24.1806L42.0435 23.7417C41.8243 23.3907 41.5612 23.0835 41.2982 22.7763L40.9036 23.2151L40.8159 23.9612L41.1667 24.1806V24.2683L40.8159 24.3561L41.2543 24.4878ZM42.438 37.2583L42.175 36.995L41.6489 36.7317L40.9475 36.205C40.7282 36.3806 40.5529 36.5561 40.2898 36.7317L40.7283 36.9072L41.2105 37.2583L41.4735 37.1705L42.3065 37.3899L42.438 37.2583ZM42.7449 23.3906H43.1833L43.008 23.1712C43.0518 23.1712 43.3587 23.0835 43.3587 23.0835L43.6217 23.1712L43.3587 23.259L43.271 23.3468L43.5779 23.5662L44.4109 24.5755L44.5863 24.5317V24.4H44.8055L44.8931 24.7511L44.7178 24.8389L44.6301 24.6194L44.4109 24.7511L44.5424 25.1022L44.8931 25.4094L45.2439 25.0583L45.3754 24.5317L45.9015 24.3122L46.6468 25.0144L46.3837 25.1899L46.2084 25.9799L45.9892 26.287H46.3399L46.5591 26.3748L46.7783 26.1115L47.0413 25.9799L47.129 25.4094L47.4798 25.146L47.6551 24.8827C47.4798 24.2683 47.3044 23.6978 46.9975 23.1273L45.9892 22.4691L45.9453 21.8547L46.2961 21.7669C45.77 20.9331 45.2 20.187 44.5863 19.4849L41.8243 22.2496C42.2188 22.6007 42.4819 22.9518 42.7449 23.3906ZM43.271 37.0388L43.8848 36.1173L44.1917 37.346L44.0163 37.8727L44.4109 38.2676C46.6906 35.854 48.0497 32.6942 48.1812 29.3151H45.2L45.7261 30.4122L46.3837 30.5439L47.0413 30.3245L47.129 30.7194L46.9098 30.8072L46.3837 30.5878L46.4714 30.9388L46.6468 31.246L45.6823 31.5094L45.3316 31.7288H44.7616L44.4547 31.5971L44.2794 31.641L44.4986 31.8604L44.2794 32.1237L44.1917 32.036L43.9725 32.2993L43.6217 32.4309C43.4025 32.9137 43.0957 33.3964 42.7888 33.8353L43.008 33.923L43.1395 33.6597L43.4902 33.7475L43.6217 34.2741L43.6656 34.8007L43.4464 35.3273L43.5779 35.5468L43.2272 36.2928L42.9641 36.6439L43.271 37.0388ZM47.2606 42.0856L44.4986 39.3209C44.2794 39.5403 44.0602 39.7158 43.841 39.9353L44.104 40.3741H44.5424L45.1123 40.9885L44.5424 41.7345L44.1917 42.5245L44.6739 42.8317V43.095L44.1478 43.5777L44.2794 43.9288L43.9286 44.7187C45.0685 43.9727 46.2084 43.095 47.2606 42.0856ZM53.0037 29.2712H49.058C48.9265 32.8259 47.5236 36.1612 45.0247 38.7504L46.2084 39.9353L46.3399 39.8036L46.4276 39.1453L46.5591 38.6187L47.2167 38.8381L47.0852 39.1014L47.3044 39.1892L47.6113 40.7252L47.3044 41.0763L47.8305 41.6029C51.0309 38.2237 52.8722 33.8791 53.0037 29.2712ZM51.1186 44.8504C55.1958 40.6813 57.5632 35.1079 57.6947 29.2712H53.749C53.6613 34.0547 51.7323 38.6187 48.3566 42.0856L51.1186 44.8504ZM27.5321 35.5468C25.91 33.8353 24.9455 31.641 24.814 29.3151H24.1564L24.3756 29.6223L24.1564 30.7633L24.2002 31.4216V31.7288L24.3317 31.9043L24.244 32.3871H24.1125L23.8495 31.8604L23.6741 31.4216L23.7618 31.3338L23.9372 31.5532L24.1564 31.4216L23.8056 30.6755L23.8933 30.5L24.1125 29.5784L23.981 29.3151H23.0603L22.8411 29.6223H22.315L22.0958 30.1489L22.315 30.5878L22.0958 31.1583L22.5781 31.3777L23.148 32.4748L23.0603 33.0453L23.5426 33.9669L23.6303 35.459L24.0248 36.4245L23.8933 37.3899C24.1125 37.6971 24.4194 38.0043 24.7263 38.3115L27.5321 35.5468ZM23.8495 28.4813H24.814C24.8578 28.0424 24.9017 27.5597 24.9455 27.1209L24.814 26.9892L23.981 26.8576L23.4988 27.1209L23.4111 27.9108L23.8495 28.4813ZM26.6991 30.3683H26.1731L25.6031 29.754C25.8223 31.7288 26.6991 33.5281 28.0582 34.9763L30.8202 32.2115C30.4695 31.8165 30.1626 31.3338 29.8995 30.8072L29.7242 31.641L29.4173 31.8604L29.505 32.036L29.1104 32.2554L28.8473 31.7288L29.4611 31.5532L29.1104 31.0705L28.7597 30.7194L28.4528 31.246L28.4966 31.641L27.9267 31.2899L28.1459 31.1144L27.6198 30.7633L27.4006 30.8511L26.6991 30.3683ZM20.8683 28.5252H22.6219L22.7096 27.8669L23.1919 27.3403L23.0165 27.0331L23.8495 25.4532L24.4194 25.541L25.0332 25.0583H25.2524L25.647 24.795L25.7346 24.6633L25.2524 24.7511L24.7263 24.8389L25.1209 24.4878H25.2524L25.647 24.4H25.8662C26.2169 23.6101 26.743 22.9079 27.3129 22.2496L24.5509 19.4849C22.2274 21.8547 20.9121 25.1022 20.8683 28.5252ZM20.8683 29.3151C20.9121 29.9295 20.956 30.5878 21.0875 31.1583L21.1313 31.2022H21.789L22.1397 30.6317L21.789 30.2806L22.052 29.3151H20.8683ZM20.5614 40.6813C20.8245 41.0324 21.0875 41.3396 21.3944 41.6468L22.052 40.9885L21.8766 40.8568L20.9998 40.3302L20.5614 40.6813ZM16.1773 29.2712C16.265 31.0266 16.528 32.7381 17.0541 34.4058H17.6241L18.6324 34.0547L18.5886 32.2993L19.5969 31.0266L19.6846 30.5439L20.1668 30.4561C20.0792 30.0611 20.0792 29.6662 20.0792 29.3151L16.1773 29.2712ZM11.4863 28.5252H15.432C15.5197 23.6978 17.4049 19.0022 20.7368 15.5352L17.9748 12.7705C13.8537 16.9835 11.5302 22.6007 11.4863 28.5252ZM11.4863 29.3151C11.6179 35.1957 13.9853 40.7691 18.1063 44.9381L20.8683 42.1734C19.8161 41.1201 18.9393 39.9353 18.1502 38.7065L18.0186 39.277L17.5802 39.1453L16.8349 37.9165L16.4842 37.8288L16.2212 37.4777V36.995L16.1335 36.9072L15.8704 37.1266L15.2567 36.9511L15.169 36.6L14.9498 36.4683V37.1266L14.8182 37.0388L14.2045 36.1611L13.8537 36.0734L13.9414 36.4245L13.8099 36.5561L13.9414 37.1705L14.599 38.3993L14.3798 38.3115L13.9853 37.6532L13.1523 35.6345L13.0646 34.5374L13.3277 34.0547L14.0729 33.7475L14.2922 33.9669L14.0291 34.1863L15.0374 34.4058L14.6867 33.923L15.7827 34.0108L16.0019 34.2302L16.2212 34.2741C15.6951 32.6504 15.3882 30.9389 15.3882 29.2273L11.4863 29.3151ZM46.3399 11.2784L46.1207 10.9273L45.5946 10.664L45.2 10.9712L45.7261 11.2345L46.2961 11.6295L46.3399 11.2784ZM12.9331 11.1906C14.2483 9.61079 14.6867 7.41654 16.7911 5.88057C12.4947 6.80216 8.89971 10.5763 7.93521 15.2719C9.29428 13.6482 11.6179 12.7266 12.9331 11.1906ZM57.344 47.8784C59.7991 44.4554 58.2646 40.8568 58.7469 38.3554C54.8012 44.3237 56.9494 46.8691 54.3189 50.6871C57.5632 48.405 64.7093 50.5554 67.4274 39.9353C65.2792 44.2799 59.8867 45.0259 57.344 47.8784ZM81.8949 28.6129L84.613 14.4381H84.6569L87.2435 28.6129H91.0138L94.565 11.3223H91.6714L89.1287 24.6194H89.0848L86.4982 11.3223H82.6402L80.0536 24.6194H80.0097L77.5547 11.3223H74.5735L78.0808 28.6129H81.8949ZM88.5149 42.0856C88.5149 48.2734 85.2268 50.9504 81.6319 50.9504C78.0369 50.9504 74.7488 48.2734 74.7488 42.0856C74.7488 35.8978 78.0369 33.2209 81.6319 33.2209C85.2268 33.177 88.5149 35.854 88.5149 42.0856ZM85.2707 42.0856C85.2707 37.3022 83.6486 35.6345 81.6319 35.6345C79.6152 35.6345 77.9931 37.346 77.9931 42.0856C77.9931 46.8252 79.6152 48.5367 81.6319 48.5367C83.6486 48.5367 85.2707 46.8252 85.2707 42.0856ZM60.5444 31.3338C58.3962 37.0388 61.202 39.1014 59.6237 45.0259C61.5089 42.4367 69.0057 41.0763 69.0495 31.7288C67.9096 35.1518 63.964 36.995 61.4212 41.954C62.9118 36.1173 60.7197 34.5374 60.5444 31.3338ZM20.956 54.9439C18.7639 51.9158 20.2545 50.1604 14.0729 44.6309C15.3882 46.6496 14.0291 49.195 18.194 53.1446C14.1168 50.7309 8.50514 51.7403 5.78701 48.5367C10.478 57.4892 18.6324 53.8029 20.956 54.9439ZM92.5921 40.2863C92.5483 39.4964 92.5044 38.7065 92.4606 37.9604H89.6986C89.7863 38.6626 89.7863 39.3648 89.7863 40.0669V50.7309H92.8113V43.7532C92.8113 41.3835 94.2142 40.5935 95.4418 40.5935C95.7487 40.5935 96.0555 40.6813 96.3186 40.7252V37.8288C96.1432 37.7849 95.9679 37.741 95.7925 37.741C93.9512 37.7849 92.9867 39.3209 92.5921 40.2863ZM47.4798 55.3827C45.2877 54.8122 43.008 54.4173 40.7283 54.3734C38.6239 54.3295 36.5195 54.6806 34.5905 55.4266C32.6177 54.6806 30.5133 54.3295 28.4528 54.3734C26.1731 54.4611 23.8933 54.8122 21.7013 55.3827C17.9748 56.3482 14.7744 57.1381 11.9686 55.7338C14.6429 58.1036 17.7994 58.9813 22.315 58.4986C26.0854 58.1036 29.1104 56.2166 32.6615 56.2166H32.793C30.5571 57.3137 28.5843 58.8935 26.9183 60.7806L28.6281 61C28.6281 61 30.4256 57.3576 34.5905 56.436C38.7554 57.4014 40.5529 61 40.5529 61L42.2627 60.7806C40.6406 58.8935 38.6239 57.3137 36.388 56.2166H36.5195C40.0706 56.1727 43.0957 58.0597 46.866 58.4986C51.3816 58.9813 54.4943 58.1475 57.2125 55.7338C54.4066 57.1381 51.2062 56.3482 47.4798 55.3827ZM50.8994 53.1446C55.0642 49.195 53.7052 46.6496 55.0204 44.6309C48.8388 50.1604 50.3733 51.8719 48.1374 54.9439C50.4609 53.8468 58.6592 57.4892 63.3063 48.5367C60.5882 51.7842 54.9327 50.7309 50.8994 53.1446Z" fill="#FCA400"/>
</svg>
