<svg width="248" height="76" viewBox="0 0 248 76" fill="none" xmlns="http://www.w3.org/2000/svg">
<path d="M55.237 27.7209L55.3462 27.4475L55.0184 26.9007L55.1823 26.4633L55.4555 26.0259L56.2204 25.6432L56.5482 26.0806L56.2204 26.2446L56.3843 26.5727L56.5482 26.682L56.439 26.7914L55.6194 26.2446L55.3462 26.682L55.9472 27.4475L55.6741 27.9396L54.8545 28.213L54.7999 27.8302L55.237 27.7209ZM80.4788 33.5712C79.8231 30.236 77.9655 27.2288 75.343 25.1511C73.5947 23.6748 73.1029 23.2921 72.4473 22.3626C74.9606 30.8921 78.8943 30.9468 80.5881 37.3986C80.8612 34.0633 87.7454 28.541 81.2437 19.246C82.8828 23.5655 80.3695 29.4705 80.4788 33.5712ZM68.4589 14.7626C70.7536 22.3626 76.2172 20.6676 79.8778 28.5957C79.4953 25.9165 82.555 17.3871 75.3976 12.1381C77.8016 15.036 77.0914 20.5036 78.4573 24.0576C75.7255 18.0978 69.7701 17.1137 68.4589 14.7626ZM29.121 22.636C29.1756 22.4719 29.2302 22.2532 29.2302 22.0892C29.0117 22.1439 28.8478 22.1986 28.6292 22.1439L29.121 22.636ZM69.9887 13.9424C71.6278 15.9108 74.5235 17.059 76.1625 19.0273C74.9605 13.2317 70.4804 8.42015 65.1807 7.27194C67.8032 9.24029 68.3496 11.9194 69.9887 13.9424ZM48.1343 9.6777L48.8446 9.73238L49.1177 9.45899L48.5714 9.18561L47.0962 9.13093L46.7137 9.40432L45.8942 9.29496V9.51367C46.4406 9.56834 46.9869 9.62302 47.424 9.6777H48.1343ZM188.986 27.9396C188.986 23.2374 191.499 19.5194 195.542 19.5194C198.984 19.5194 201.88 21.4878 201.88 27.9942V28.7597H192.756C192.756 31.4389 193.848 33.0791 196.799 33.0791C199.093 33.0791 200.241 32.3684 200.951 31.8763L201.06 34.8288C199.585 35.4849 197.946 35.8676 196.362 35.8676C191.226 35.8676 188.986 32.2043 188.986 27.9396ZM192.646 26.354H198.11C198.11 23.5655 197.181 22.1439 195.433 22.1439C193.466 22.0892 192.646 24.2216 192.646 26.354ZM49.9373 19.1367C48.5714 18.5353 47.0962 18.1525 45.621 17.9338V18.918C46.9869 19.1367 48.3528 19.5194 49.6095 20.0115C49.7734 19.6835 49.8826 19.4101 49.9373 19.1367ZM116.429 27.6662C116.484 21.2144 120.199 19.5194 123.423 19.5194C126.646 19.5194 130.361 21.2144 130.361 27.6662C130.361 34.3367 126.646 35.8676 123.423 35.8676C120.199 35.813 116.429 34.282 116.429 27.6662ZM120.363 27.6662C120.363 30.3453 120.964 33.1338 123.423 33.1338C125.881 33.1338 126.482 30.2907 126.482 27.6662C126.482 24.9871 125.936 22.1986 123.423 22.1986C120.964 22.2532 120.363 25.0417 120.363 27.6662ZM222.696 12.5209H218.926V35.5942H222.696V12.5209ZM145.933 12.5209H142.108V35.5942H145.933V12.5209ZM75.1245 31.0014C74.742 38.7108 79.1129 40.0777 78.7851 46.8029C80.5881 42.1007 87.7454 40.7885 85.0682 29.5252C85.1228 33.8446 81.2983 36.305 79.6592 43.0849C79.9871 35.4849 77.0367 34.6647 75.1245 31.0014ZM41.6326 23.2374C42.2336 23.0734 42.78 22.964 43.381 22.8L44.5283 22.5266C44.5829 19.6835 44.8561 7.6 44.8561 7.49065C45.1293 5.5223 47.0962 0 43.1624 0C39.3925 0 40.977 5.63165 41.2502 7.49065C41.2502 7.6 41.5233 20.2849 41.6326 23.2374ZM45.2386 40.4604H45.1293C45.1293 40.6791 45.0747 41.6633 45.0747 42.1554C45.621 41.882 46.0035 41.6086 46.0035 41.1712C46.0581 40.9525 45.7303 40.6791 45.2386 40.4604ZM40.7584 31.7122C40.7038 30.7281 40.7038 29.6892 40.7038 29.5252H40.6492C39.8296 30.0173 39.3925 30.6187 39.3379 31.4389C39.3379 32.259 39.8296 32.8058 40.7038 33.3525V32.9698L40.1574 32.3683L40.4306 31.8216L40.7584 31.7122ZM37.371 12.3022C38.3545 11.8101 39.3379 11.4273 40.376 11.0993C40.376 12.1381 40.4306 13.2863 40.4306 14.5439C39.3925 14.9266 38.4637 15.6374 37.8081 16.5122C37.1525 17.3871 34.967 18.8086 33.4918 19.6288C32.1806 20.3942 31.4703 20.4489 31.1425 20.3396C30.8693 20.5583 30.1591 21.1597 29.3942 23.0187C29.5034 22.5813 29.6127 22.0892 29.7766 21.6518C29.7766 21.6518 28.7932 22.0892 28.0829 21.7612C28.8478 21.8705 29.6127 21.5971 30.1044 20.9957C30.3776 20.7223 30.5415 20.3396 30.6508 19.9568C30.6508 19.9568 30.5415 19.4648 31.0332 18.5899C31.361 18.0432 31.4157 16.9496 31.8528 16.2935C32.2899 15.6374 32.7816 15.036 33.2733 14.4345C34.8031 12.6849 36.3329 12.6302 37.371 12.3022ZM35.3495 15.364L34.3114 15.3094L33.3826 16.8403L34.1475 16.6763L35.3495 15.364ZM43.2171 42.8115C43.4902 42.7022 43.7634 42.6475 44.0366 42.5381C44.0366 41.718 44.3098 30.4547 44.3098 28.377C43.4356 28.5957 42.5614 28.8144 41.6872 29.1424C41.7419 30.6734 41.9604 41.9367 41.9604 43.1396C42.4521 43.0302 42.8346 42.8662 43.2171 42.8115ZM34.366 31.3295C34.366 35.4849 37.6988 37.0158 40.9223 38.0547C40.9223 36.8518 40.8677 35.6489 40.8131 34.446C39.3379 33.7899 38.3545 32.8604 38.3545 31.3842C38.3545 29.9079 39.2833 29.0878 40.6492 28.4317C40.9223 28.3223 41.3048 28.1583 41.6872 28.0489C42.5068 27.7755 43.4356 27.5568 44.3644 27.2835L45.4025 27.0101C49.9373 25.9165 55.0731 24.495 55.0731 18.3712C55.0731 15.3094 52.833 11.9194 47.424 10.7166C46.8777 10.6072 46.3313 10.5525 45.7849 10.4978C45.7849 10.9353 45.7303 12.0288 45.7303 12.0288C45.7303 12.3568 45.6757 13.6144 45.6757 13.8331C46.0035 13.8878 46.3859 13.9424 46.7137 13.9424C49.8826 14.7079 51.03 16.5122 51.03 18.2619C51.03 21.1597 48.5167 22.2532 45.5118 23.1281L44.4737 23.4014C43.5449 23.6201 42.5614 23.8389 41.6326 24.1122C41.3048 24.2216 40.977 24.2763 40.5945 24.3856C37.2617 25.5338 34.366 27.1741 34.366 31.3295ZM42.6707 47.7871C42.3975 47.8964 42.1243 48.0058 42.1243 48.0604C42.1243 48.0604 42.3975 61.0734 42.3975 61.2921C42.3975 63.9712 43.7634 63.9712 43.7634 61.2921C43.7634 61.1281 44.0366 47.2403 44.0366 47.2403C44.0366 47.2403 43.6541 47.3496 43.4356 47.459C43.3263 47.5137 42.9439 47.6777 42.6707 47.7871ZM50.3744 41.2259C50.3744 38.164 47.9157 36.9612 45.2386 36.0317C45.1839 37.0158 45.1839 38.3827 45.1293 39.3669C46.2767 39.8043 47.0416 40.3511 47.0416 41.2259C47.0416 42.3194 45.8942 42.9209 45.0747 43.2489C44.7469 43.3583 44.2551 43.5223 44.0366 43.577C43.381 43.7957 42.6707 44.0144 42.0151 44.2331C41.6872 44.3424 41.3594 44.5065 40.977 44.6705C39.8843 45.2719 38.6823 46.1468 38.6823 47.6777C38.6823 49.3727 39.8843 50.2475 41.1409 50.9583C41.1409 50.6849 41.0863 48.1151 41.0863 48.0604C41.1409 47.5683 41.578 47.2403 42.0151 47.0216C42.6707 46.7482 43.3263 46.4748 43.982 46.2561C44.3644 46.1468 44.6376 45.9827 45.02 45.9281C47.4787 45.2173 50.3744 44.2878 50.3744 41.2259ZM48.4075 56.5353C48.6806 53.1453 46.7684 51.7237 44.9108 50.7396L44.8561 52.7079C46.3859 53.4187 47.8065 54.5122 48.4075 56.5353ZM148.992 60.3626C148.992 61.2921 149.102 62.2216 149.211 63.1511H145.769C145.605 62.4403 145.496 61.7295 145.55 61.0187H145.496C144.512 62.3309 143.365 63.4245 141.07 63.4245C138.611 63.4245 136.371 61.7295 136.371 58.777C136.371 54.4576 139.868 53.364 144.731 53.364H145.496V52.7626C145.496 51.177 144.731 49.7007 142.545 49.7007C140.961 49.7554 139.486 50.3022 138.229 51.2863L137.956 48.2245C139.54 47.4043 141.234 47.0216 142.982 47.0216C147.9 47.0216 149.047 49.4273 149.047 53.4187L148.992 60.3626ZM145.496 56.3166L145.441 55.3871H145.113C141.89 55.3871 139.923 56.0432 139.923 58.3942C139.813 59.6518 140.797 60.7453 142.054 60.8547H142.327C144.621 60.8547 145.496 59.1597 145.496 56.3166ZM176.802 26.1353H183.194V35.6489H187.128V14.1065H183.194V22.8547H176.802V14.1065H172.814V35.5942H176.802V26.1353ZM167.514 44.2878H171.502V40.5151H167.514V44.2878ZM131.236 47.3496H134.678C134.623 48.1698 134.568 48.9899 134.568 49.8647V61.5108C134.568 66.4863 133.039 69.9856 127.247 69.9856C125.39 69.9856 123.532 69.6576 121.784 69.0014L121.947 65.6115C123.368 66.4317 125.007 66.9237 126.646 66.9784C130.252 66.9784 130.799 64.4633 130.799 62.0029V60.472H130.744C130.088 61.6748 129.05 63.1511 126.592 63.1511C124.406 63.1511 121.073 61.6748 121.073 55.2777C121.073 50.9036 122.658 47.0763 126.81 47.0763C129.105 47.0763 130.198 48.3885 130.962 49.7554H131.072C131.072 48.9353 131.181 48.1698 131.236 47.3496ZM130.853 55.059C130.853 51.7237 129.597 49.9741 127.794 49.9741C125.772 50.0288 125.007 51.8878 125.007 55.059C125.007 58.777 126.209 60.3079 127.52 60.3079C129.87 60.3626 130.853 58.6676 130.853 55.059ZM167.623 63.1511H171.393V47.295H167.623V63.1511ZM153.636 35.8676C149.703 35.8676 148.063 32.095 148.063 27.7209C148.063 22.5266 150.14 19.5194 153.527 19.5194C155.275 19.4101 156.915 20.4489 157.625 22.0345H157.679V12.5209H161.504V32.9151C161.504 33.7899 161.559 34.7194 161.613 35.5942H158.007C157.898 34.7741 157.898 33.954 157.898 33.1338H157.789C157.188 34.5007 156.04 35.8676 153.636 35.8676ZM154.62 33.0245C156.86 33.0245 157.625 30.564 157.625 27.6115C157.625 24.5496 156.805 22.3079 154.674 22.3079C152.544 22.3079 151.833 24.3856 151.833 27.5568C151.833 31.2201 152.434 33.0245 154.62 33.0245ZM139.431 23.0187C139.759 23.0187 140.141 23.1281 140.469 23.1827V19.5741C140.251 19.5194 140.032 19.4648 139.813 19.4648C137.409 19.4648 136.207 21.3784 135.77 22.5813H135.716C135.716 21.5971 135.606 20.613 135.606 19.6835H132.164C132.274 20.5583 132.274 21.4331 132.274 22.3079L132.328 35.5942H136.098V26.9007C136.098 24.0029 137.847 23.0187 139.431 23.0187ZM199.203 60.3626C199.203 61.2921 199.312 62.2216 199.421 63.1511H195.979C195.815 62.4403 195.706 61.7295 195.761 61.0187H195.706C194.723 62.3309 193.575 63.4245 191.281 63.4245C188.822 63.4245 186.582 61.7295 186.582 58.777C186.582 54.4576 190.079 53.364 194.941 53.364H195.706V52.7626C195.706 51.177 194.941 49.7007 192.756 49.7007C191.171 49.7554 189.696 50.3022 188.439 51.2863L188.166 48.2245C189.751 47.4043 191.444 47.0216 193.193 47.0216C198.11 47.0216 199.257 49.4273 199.257 53.4187V60.3626H199.203ZM195.651 55.3871H195.269C192.045 55.3871 190.079 56.0432 190.079 58.3942C189.969 59.6518 190.953 60.7453 192.209 60.8547H192.483C194.777 60.8547 195.597 59.1597 195.597 56.3166V55.3871H195.651ZM159.919 47.0763C157.352 47.0763 156.259 48.7712 155.713 49.7554H155.658C155.658 48.9353 155.549 48.1151 155.549 47.295H151.943C152.052 48.1698 152.052 49.0446 152.052 49.9194V63.1511H155.822V53.9108C155.822 51.8878 156.532 50.1928 158.499 50.1928C160.083 50.1928 160.684 51.2317 160.684 53.6374V63.1511H164.509V52.9266C164.618 49.7554 163.525 47.0763 159.919 47.0763ZM184.997 50.5755V47.295H174.617V50.1928H181.173L174.398 59.8705H174.343V63.1511H185.161V60.2532H178.277L184.997 50.5755ZM239.032 26.354C239.032 24.3309 239.743 22.636 241.71 22.636C243.294 22.636 243.895 23.6748 243.895 26.0806V35.5942H247.665V25.4245C247.665 22.1986 246.572 19.5741 242.966 19.5741C240.617 19.5741 239.743 20.8863 239.032 21.8705H238.923V12.5755H235.153V35.6489H238.923V26.354H239.032ZM230.837 15.3094L227.067 16.5122H227.012V19.7928H224.499V22.5813H227.012V31.2201C227.012 34.5554 228.597 35.8676 231.438 35.8676C232.312 35.8676 233.186 35.7036 234.006 35.3755V32.6964C233.569 32.9151 233.077 33.0245 232.585 33.0245C231.493 33.0245 230.837 32.5324 230.837 30.8374V22.5813H234.006V19.7928H230.837V15.3094ZM243.403 47.0763C240.835 47.0763 239.743 48.7712 239.196 49.7554H239.142C239.142 48.9353 239.032 48.1151 239.032 47.295H235.426C235.536 48.1698 235.536 49.0446 235.536 49.9194L235.59 63.1511H239.36V53.9108C239.36 51.8878 240.07 50.1928 242.037 50.1928C243.622 50.1928 244.223 51.2317 244.223 53.6374V63.1511H247.993V52.9266C248.102 49.7554 247.009 47.0763 243.403 47.0763ZM232.531 55.1683C232.531 61.8388 228.815 63.3698 225.592 63.3698C222.368 63.3698 218.599 61.8388 218.599 55.1683C218.653 48.7712 222.368 47.0216 225.592 47.0216C228.815 47.0763 232.531 48.7165 232.531 55.1683ZM228.597 55.223C228.597 52.5439 228.051 49.7554 225.537 49.7554C223.024 49.7554 222.478 52.5439 222.478 55.223C222.478 57.9022 223.079 60.6907 225.537 60.6907C228.051 60.7453 228.597 57.9022 228.597 55.223ZM215.594 35.5942H212.151C211.988 34.8835 211.878 34.1727 211.933 33.4619H211.878C210.895 34.7741 209.747 35.8676 207.453 35.8676C204.994 35.8676 202.754 34.1727 202.754 31.2201C202.754 26.9007 206.251 25.8072 211.113 25.8072H211.878V25.2058C211.878 23.6201 211.113 22.1439 208.928 22.1439C207.344 22.1986 205.868 22.7453 204.612 23.7295L204.339 20.6676C205.923 19.9022 207.617 19.4648 209.365 19.4648C214.282 19.4648 215.43 21.8705 215.43 25.8619V32.8058C215.375 33.7353 215.484 34.6648 215.594 35.5942ZM211.824 27.8302H211.441C208.218 27.8302 206.251 28.4863 206.251 30.8374C206.142 32.095 207.125 33.1885 208.382 33.2978H208.655C210.949 33.2978 211.769 31.6029 211.769 28.7597L211.824 27.8302ZM212.589 44.2878H216.522V40.5151H212.589V44.2878ZM18.5762 48.4432L19.4504 49.8101L19.505 49.5914L19.068 48.6072L18.5762 48.4432ZM212.752 63.1511H216.522V47.295H212.698L212.752 63.1511ZM207.125 42.8662L203.355 44.0691L203.3 47.295H200.787V50.0835H203.3V58.777C203.3 62.0576 204.885 63.3698 207.726 63.3698C208.6 63.4245 209.474 63.2604 210.294 62.8777V60.1986C209.857 60.4719 209.365 60.5266 208.873 60.5266C207.781 60.5266 207.125 60.0345 207.125 58.3396V50.1381H210.294V47.295H207.125V42.8662ZM13.659 22.3626C13.0034 23.2921 12.5116 23.7295 10.7633 25.1511C8.08612 27.2835 6.2285 30.236 5.6275 33.5712C5.79141 29.4158 3.27816 23.5108 4.97187 19.246C-1.58444 28.4863 5.35432 34.0086 5.6275 37.3986C7.21195 30.9468 11.1457 30.8921 13.659 22.3626ZM11.0365 31.0014C9.1242 34.6647 6.11923 35.5396 6.50168 43.0849C4.91724 36.3597 1.03808 33.8446 1.09272 29.5799C-1.58444 40.7885 5.51823 42.1007 7.37586 46.8576C7.04804 40.0777 11.3643 38.7108 11.0365 31.0014ZM11.8014 56.0979C9.83447 48.7166 13.3312 46.1468 10.654 39.0388C10.3808 43.0302 7.70367 44.9986 9.50666 52.2705C6.33777 46.0921 1.47517 43.741 0 39.5309C0.163908 51.1223 9.45202 52.872 11.8014 56.0979ZM12.8395 47.7871C13.4951 50.8489 11.5828 55.3871 14.6424 59.6518C11.4736 56.0979 4.75333 55.1683 1.96689 49.7554C5.40896 62.9871 14.3146 60.2532 18.303 63.1511C15.0795 58.3396 17.7567 55.1683 12.8395 47.7871ZM6.2285 28.705C9.88911 20.7223 15.3527 22.4173 17.6474 14.8719C16.2815 17.1683 10.3262 18.0978 7.5944 24.0576C9.01494 20.5036 8.30467 15.0906 10.654 12.1381C3.60597 17.4964 6.61095 25.9712 6.2285 28.705ZM40.0482 6.23309C40.1028 6.50647 40.1574 6.72518 40.1574 6.99856C40.1574 6.99856 40.2121 7.10791 40.2121 7.21727C33.7104 7.87338 27.7004 10.7165 23.0564 15.2547L26.4984 18.6993C28.0283 17.223 29.722 15.9655 31.5796 14.9266C31.3064 15.2547 31.0332 15.5827 30.8147 15.9655C30.7054 16.1842 30.6508 16.4029 30.5415 16.6763C29.3395 17.4964 28.1922 18.4259 27.0994 19.4101L29.0663 21.3784C28.7932 21.4878 28.4653 21.5971 28.1922 21.6518H27.9736L26.3892 20.0662C22.4007 24.2763 20.1607 29.7986 20.0514 35.5942H24.9686C25.0779 31.1108 26.7716 26.7914 29.8859 23.5655L29.5034 23.1827C29.6673 22.8 29.8312 22.5266 29.9405 22.3079L30.5415 22.9094C33.2187 20.2849 36.7154 18.5899 40.4306 18.0432V19.0273C36.9886 19.5741 33.7104 21.1597 31.1971 23.5655L34.6392 27.0101C33.6558 28.2676 33.2187 29.8532 33.2733 31.4935C33.2187 33.8993 34.4753 36.141 36.4968 37.3439C37.0432 37.7266 37.6442 38 38.2452 38.2734C38.4637 38.7108 38.7369 39.0935 39.0647 39.4763L39.7203 38.8201C40.0482 38.9295 40.376 39.0935 40.7584 39.1482L39.775 40.1324C40.1028 40.4058 40.4853 40.6245 40.9223 40.7885V41.8273C40.2667 41.6086 39.6657 41.2259 39.1194 40.7885L35.6773 44.2331C36.3876 44.8892 37.2617 45.436 38.1359 45.8734C37.972 46.1468 37.8627 46.4748 37.8081 46.8029C36.77 46.3108 35.8412 45.6547 34.967 44.8892L31.525 48.3338C34.2021 50.8489 37.5895 52.3252 41.2502 52.7626V53.7468C37.972 53.4187 34.8577 52.1612 32.2352 50.1381L32.3445 50.4115L32.0713 51.0676L30.323 50.9583L29.6673 51.6691L28.4107 51.5597L27.5365 52.4892C31.3064 56.0978 36.2236 58.2849 41.4687 58.6676V59.6518C36.0051 59.2144 30.8147 56.9727 26.7716 53.2L23.3296 56.6446C34.4753 67.2518 52.0681 67.2518 63.1045 56.5353L59.6625 53.0907C55.6194 56.918 50.3744 59.2691 44.8015 59.6518V58.6676C46.0581 58.5583 47.3694 58.3942 48.626 58.0662C48.9538 57.9568 49.3909 57.6835 49.4455 56.5899C49.7187 52.2158 47.1508 50.6302 44.9654 49.5914L45.02 46.9122C46.3859 46.4748 47.9157 46.0921 49.1177 45.2719L49.227 45.1626L49.3363 45.1079C50.7022 44.2331 51.5217 42.7022 51.4671 41.1166C51.4671 37.3439 48.2982 35.8676 45.3479 34.8835C45.3479 33.1885 45.4571 29.7986 45.4571 29.7986L46.7137 30.4547L47.2055 30.3453L47.6972 30.4547L47.6426 30.0173L47.3694 29.9079V29.4705L47.0962 29.5252L47.9158 28.4317L48.2436 28.5957L47.3694 29.4158L47.6426 29.3612L47.9704 29.0331L49.3909 28.7597L49.5002 28.8691L50.8661 27.5022L50.6475 27.3381H50.3197L49.828 27.4475L49.7187 27.5568L49.4455 27.6662L49.3909 27.8302L49.0631 27.7755L48.5714 27.8849L48.3528 27.5568L49.0631 27.2835L49.3363 27.5568L49.5002 27.1194L49.9373 26.9007L50.1012 26.7367L49.828 26.518C50.1558 26.4086 50.4836 26.2446 50.8661 26.0806C51.0846 26.2993 51.3032 26.4633 51.5217 26.682L55.0184 23.2374L54.7452 23.0187C55.0731 22.5266 55.4009 21.9252 55.5648 21.3237L56.0019 22.1439L57.1492 20.9957L56.7668 20.3942L57.3678 20.2849L56.1111 18.6993V18.0978C56.1111 16.5669 55.6741 15.036 54.7452 13.7784L55.1823 13.6691L55.4009 13.3957L57.9688 14.7626L58.7883 15.6374L59.1708 17.0043L59.0615 17.3871L59.6078 17.3324L60.0449 17.5511L59.9357 18.1525L63.2138 14.8719C58.5151 10.2791 52.3959 7.38129 45.8942 6.77985C45.9488 6.50647 46.0035 6.28777 46.0581 5.95971L46.1128 5.79569C61.3016 7.3813 72.8297 20.1209 72.8297 35.4302C72.8844 51.8878 59.5532 65.2835 43.1078 65.2835C27.8643 65.3381 15.1342 53.8014 13.5497 38.6561C11.8014 22.5813 23.6574 7.92805 40.0482 6.23309ZM60.482 19.4101C60.9191 19.9022 61.3562 20.4489 61.7933 20.941L62.9953 21.9799L64.0334 23.4014L64.9075 24.9324L64.7983 25.2058L64.4704 25.0417L64.4158 25.1511C66.0549 28.377 66.9291 31.9856 66.9291 35.5942H71.8463C71.737 28.2676 68.9506 21.2691 63.8694 16.0201L60.482 19.4101ZM56.275 23.5108C56.9307 24.2216 57.477 24.9871 58.0234 25.8072L58.2966 25.2058L58.5698 25.3698L58.4059 26.1353L58.8429 25.9712L58.9522 26.1353L58.6244 26.2993L58.7337 26.5727L58.6244 26.682L58.5151 26.518C58.679 26.7367 58.7883 26.9554 58.9522 27.2288L59.3347 27.1741L59.6078 27.5568V28.1036L60.0449 28.705L59.8264 29.0331C59.9903 29.4158 60.482 30.2906 60.482 30.2906L60.9191 30.236L60.7006 28.8144L60.5913 27.9942L60.1542 26.7367L59.4986 25.4791L58.4059 23.8935L58.5151 23.6201L59.6078 24.3856L59.4439 24.5496L59.1161 24.3856L60.482 26.354L61.083 28.2676L61.3016 29.9079L61.0284 31.4935L60.8098 31.7669C61.083 32.9698 61.2469 34.2273 61.2469 35.4849H66.1642C66.1095 32.259 65.3993 29.0878 64.0334 26.1353L63.2138 26.4086L61.1376 24.0029L60.8098 24.0576L59.1708 23.0187L59.28 22.5266L59.0068 22.1986L57.8049 22.1439L56.275 23.5108ZM57.2039 33.954L57.1492 34.2273L56.5482 34.3367L56.3297 34.5007L56.2204 34.7741L55.7287 35.1568L55.838 35.5396H60.1542C60.0996 34.7194 60.0449 33.7899 59.881 32.9698L59.28 33.954V33.5166L59.7171 32.1496C59.6078 31.8763 59.6078 31.6576 59.4986 31.3842L59.3347 32.095L59.1161 32.5324L58.6244 32.8058L58.4059 33.2432L57.5317 33.3525L56.6575 33.7899L57.2039 33.954ZM51.4124 30.5094L51.5217 30.7281L51.7403 30.236H51.5764L51.4124 29.9079L51.7949 29.7986L52.232 30.1266L52.3959 29.5799C52.1227 29.1425 51.7949 28.7597 51.4671 28.377L50.9754 28.9237L50.8661 29.8532L51.3032 30.1266V30.236L50.8661 30.3453L51.4124 30.5094ZM52.8876 46.4201L52.5598 46.0921L51.9042 45.764L51.03 45.1079C50.7568 45.3266 50.5383 45.5453 50.2105 45.764L50.7568 45.9827L51.3578 46.4201L51.6856 46.3108L52.7237 46.5842L52.8876 46.4201ZM53.2701 29.1424H53.8164L53.5979 28.8691C53.6525 28.8691 54.035 28.7597 54.035 28.7597L54.3628 28.8691L54.035 28.9784L53.9257 29.0878L54.3082 29.3612L55.3462 30.6187L55.5648 30.564V30.4H55.838L55.9472 30.8374L55.7287 30.9468L55.6194 30.6734L55.3462 30.8374L55.5101 31.2748L55.9472 31.6576L56.3843 31.2201L56.5482 30.564L57.2039 30.2906L58.1327 31.1655L57.8049 31.3842L57.5863 32.3683L57.3131 32.7511H57.7502L58.0234 32.8604L58.2966 32.5324L58.6244 32.3683L58.7337 31.6576L59.1708 31.3295L59.3893 31.0014C59.1708 30.236 58.9522 29.5252 58.5698 28.8144L57.3131 27.9942L57.2585 27.2288L57.6956 27.1194C57.04 26.0806 56.3297 25.1511 55.5648 24.2763L52.1227 27.7209C52.6144 28.1583 52.9423 28.5957 53.2701 29.1424ZM53.9257 46.1468L54.6906 44.9986L55.0731 46.5295L54.8545 47.1856L55.3462 47.6777C58.1873 44.6705 59.881 40.7338 60.0449 36.5237H56.3297L56.9853 37.8907L57.8049 38.0547L58.6244 37.7813L58.7337 38.2734L58.4605 38.3827L57.8049 38.1094L57.9141 38.5468L58.1327 38.9295L56.9307 39.2576L56.4936 39.5309H55.7833L55.4009 39.3669L55.1823 39.4216L55.4555 39.695L55.1823 40.023L55.0731 39.9137L54.7999 40.2417L54.3628 40.4058C54.0896 41.0072 53.7072 41.6086 53.3247 42.1554L53.5979 42.2648L53.7618 41.9367L54.1989 42.046L54.3628 42.7022L54.4174 43.3583L54.1442 44.0144L54.3082 44.2878L53.8711 45.2173L53.5432 45.6547L53.9257 46.1468ZM58.8976 52.4345L55.4555 48.9899C55.1823 49.2633 54.9091 49.482 54.636 49.7554L54.9638 50.3022H55.5101L56.2204 51.0676L55.5101 51.9971L55.0731 52.9813L55.6741 53.364V53.6921L55.0184 54.2935L55.1823 54.7309L54.7452 55.7151C56.1658 54.7856 57.5863 53.6921 58.8976 52.4345ZM66.0549 36.4691H61.1376C60.9737 40.8978 59.2254 45.0532 56.1111 48.2791L57.5863 49.7554L57.7502 49.5914L57.8595 48.7712L58.0234 48.1151L58.8429 48.3885L58.679 48.7166L58.9522 48.8259L59.3347 50.7396L58.9522 51.177L59.6078 51.8331C63.5963 47.623 65.891 42.2101 66.0549 36.4691ZM63.7055 55.8791C68.7867 50.6849 71.737 43.741 71.9009 36.4691H66.9837C66.8744 42.4288 64.4704 48.1151 60.2635 52.4345L63.7055 55.8791ZM34.3114 44.2878C32.2899 42.1554 31.0879 39.4216 30.924 36.5237H30.1044L30.3776 36.9065L30.1044 38.3281L30.1591 39.1482V39.5309L30.323 39.7496L30.2137 40.3511H30.0498L29.722 39.695L29.5034 39.1482L29.6127 39.0388L29.8312 39.3122L30.1044 39.1482L29.6673 38.2187L29.7766 38L30.0498 36.8518L29.8859 36.5237H28.7385L28.4653 36.9065H27.8097L27.5365 37.5626L27.8097 38.1094L27.5365 38.8201L28.1375 39.0935L28.8478 40.4604L28.7385 41.1712L29.3395 42.3194L29.4488 44.1784L29.9405 45.3813L29.7766 46.5842C30.0498 46.9669 30.4322 47.3496 30.8147 47.7324L34.3114 44.2878ZM29.722 35.4849H30.924C30.9786 34.9381 31.0332 34.3367 31.0879 33.7899L30.924 33.6259L29.8859 33.4619L29.2849 33.7899L29.1756 34.7741L29.722 35.4849ZM33.2733 37.836H32.6177L31.9074 37.0705C32.1806 39.5309 33.2733 41.7727 34.967 43.577L38.4091 40.1324C37.972 39.6403 37.5895 39.0388 37.2617 38.3827L37.0432 39.4216L36.6607 39.695L36.77 39.9137L36.2783 40.1871L35.9505 39.5309L36.7154 39.3122L36.2783 38.7108L35.8412 38.2734L35.4587 38.9295L35.5134 39.4216L34.8031 38.9842L35.0763 38.7655L34.4207 38.3281L34.1475 38.4374L33.2733 37.836ZM26.0067 35.5396H28.1922L28.3014 34.7194L28.9024 34.0633L28.6839 33.6806L29.722 31.7122L30.4322 31.8216L31.1971 31.2201H31.4703L31.962 30.8921L32.0713 30.7281L31.4703 30.8374L30.8147 30.9468L31.3064 30.5094H31.4703L31.962 30.4H32.2352C32.6723 29.4158 33.3279 28.541 34.0382 27.7209L30.5961 24.2763C27.7004 27.2288 26.0614 31.2748 26.0067 35.5396ZM26.0067 36.5237C26.0614 37.2892 26.116 38.1094 26.2799 38.8201L26.3345 38.8748H27.1541L27.5912 38.164L27.1541 37.7266L27.4819 36.5237H26.0067ZM25.6243 50.6849C25.9521 51.1223 26.2799 51.505 26.6624 51.8878L27.4819 51.0676L27.2633 50.9036L26.1706 50.2475L25.6243 50.6849ZM20.1607 36.4691C20.2699 38.6561 20.5978 40.7885 21.2534 42.8662H21.9637L23.2203 42.4288L23.1657 40.2417L24.4223 38.6561L24.5316 38.0547L25.1325 37.9453C25.0233 37.4532 25.0233 36.9612 25.0233 36.5237L20.1607 36.4691ZM14.3146 35.5396H19.2319C19.3411 29.5252 21.6905 23.6748 25.8428 19.3554L22.4007 15.9108C17.265 21.1597 14.3693 28.1583 14.3146 35.5396ZM14.3146 36.5237C14.4785 43.8504 17.4289 50.7942 22.5647 55.9885L26.0067 52.5439C24.6955 51.2317 23.6027 49.7554 22.6193 48.2245L22.4554 48.9353L21.909 48.7712L20.9802 47.2403L20.5431 47.1309L20.2153 46.6935V46.0921L20.106 45.9827L19.7782 46.2561L19.0133 46.0374L18.904 45.6L18.6309 45.436V46.2561L18.467 46.1468L17.7021 45.0532L17.265 44.9439L17.3742 45.3813L17.2103 45.5453L17.3742 46.3108L18.1938 47.8417L17.9206 47.7324L17.4289 46.9122L16.3908 44.3971L16.2815 43.0302L16.6093 42.4288L17.5381 42.046L17.8113 42.3194L17.4835 42.5928L18.7401 42.8662L18.303 42.2648L19.6689 42.3741L19.9421 42.6475L20.2153 42.7022C19.5597 40.6791 19.1772 38.5468 19.1772 36.4144L14.3146 36.5237ZM57.7502 14.0518L57.477 13.6144L56.8214 13.2863L56.3297 13.6691L56.9853 13.9971L57.6956 14.4892L57.7502 14.0518ZM16.1176 13.9424C17.7567 11.9741 18.303 9.24028 20.9256 7.32662C15.5712 8.47482 11.0911 13.177 9.88911 19.0273C11.5828 17.0043 14.4785 15.8561 16.1176 13.9424ZM71.4638 59.6518C74.5235 55.3871 72.6112 50.9036 73.2122 47.7871C68.295 55.223 70.9721 58.3942 67.694 63.1511C71.737 60.3079 80.6427 62.9871 84.0301 49.7554C81.353 55.1683 74.6327 56.0979 71.4638 59.6518ZM102.06 35.6489L105.447 17.9885H105.502L108.726 35.6489H113.424L117.85 14.1065H114.244L111.075 30.6734H111.02L107.797 14.1065H102.989L99.7653 30.6734H99.7106L96.651 14.1065H92.9358L97.3067 35.6489H102.06ZM110.31 52.4345C110.31 60.1439 106.212 63.4791 101.732 63.4791C97.252 63.4791 93.1543 60.1439 93.1543 52.4345C93.1543 44.7252 97.252 41.3899 101.732 41.3899C106.212 41.3353 110.31 44.6705 110.31 52.4345ZM106.267 52.4345C106.267 46.4748 104.245 44.3971 101.732 44.3971C99.2189 44.3971 97.1974 46.5295 97.1974 52.4345C97.1974 58.3396 99.2189 60.472 101.732 60.472C104.245 60.472 106.267 58.3396 106.267 52.4345ZM75.4523 39.0388C72.7751 46.1468 76.2718 48.7166 74.3049 56.0979C76.6543 52.872 85.997 51.177 86.0517 39.5309C84.6311 43.7957 79.7139 46.0921 76.545 52.2705C78.4026 44.9986 75.6708 43.0302 75.4523 39.0388ZM26.116 68.4547C23.3842 64.682 25.2418 62.495 17.5381 55.6058C19.1772 58.1209 17.4835 61.2921 22.6739 66.213C17.5928 63.2058 10.5994 64.4633 7.21195 60.472C13.058 71.6259 23.2203 67.0331 26.116 68.4547ZM115.391 50.1928C115.337 49.2086 115.282 48.2245 115.227 47.295H111.785C111.894 48.1698 111.894 49.0446 111.894 49.9194V63.2058H115.664V54.5122C115.664 51.5597 117.413 50.5755 118.943 50.5755C119.325 50.5755 119.707 50.6849 120.035 50.7396V47.1309C119.817 47.0763 119.598 47.0216 119.38 47.0216C117.085 47.0763 115.883 48.9899 115.391 50.1928ZM59.1708 69.0014C56.439 68.2907 53.5979 67.7986 50.7568 67.7439C48.1343 67.6892 45.5118 68.1266 43.1078 69.0561C40.6492 68.1266 38.0266 67.6892 35.4587 67.7439C32.6177 67.8532 29.7766 68.2907 27.0448 69.0014C22.4007 70.2043 18.4123 71.1885 14.9156 69.4389C18.2484 72.3914 22.1822 73.4849 27.8097 72.8835C32.5084 72.3914 36.2783 70.0403 40.7038 70.0403H40.8677C38.0813 71.4072 35.6227 73.3755 33.5465 75.7266L35.6773 76C35.6773 76 37.9174 71.4619 43.1078 70.3137C48.2982 71.5166 50.5383 76 50.5383 76L52.6691 75.7266C50.6475 73.3755 48.1343 71.4072 45.3479 70.0403H45.5118C49.9373 69.9856 53.7072 72.3367 58.4059 72.8835C64.0334 73.4849 67.9125 72.446 71.2999 69.4389C67.8032 71.1885 63.8148 70.2043 59.1708 69.0014ZM63.4324 66.213C68.6228 61.2921 66.9291 58.1209 68.5681 55.6058C60.8645 62.495 62.7767 64.6273 59.9903 68.4547C62.886 67.0878 73.1029 71.6259 78.8943 60.472C75.5069 64.518 68.4589 63.2058 63.4324 66.213Z" fill="#C3560C"/>
</svg>
